<svg id="Layer_35" enable-background="new 0 0 64 64" height="512" viewBox="0 0 64 64" width="512" xmlns="http://www.w3.org/2000/svg"><circle cx="30" cy="34" fill="#838f9b" r="28"/><path d="m62 32h-4.07-7.93-2.12c-.92-8.34-7.54-14.96-15.88-15.88v-2.12-7.93-4.07c2.06 0 4.06.21 6 .6v9.4c2.24.61 4.32 1.59 6.16 2.88.97.67 1.87 1.43 2.7 2.26s1.59 1.73 2.26 2.7c1.29 1.84 2.27 3.92 2.88 6.16h9.4c.39 1.94.6 3.94.6 6z" fill="#ff826e"/><path d="m61.4 26h-9.4c-.61-2.24-1.59-4.32-2.88-6.16 1.66-.48 2.88-2.02 2.88-3.84 0-2.21-1.79-4-4-4-1.82 0-3.36 1.22-3.84 2.88-1.84-1.29-3.92-2.27-6.16-2.88v-9.4c11.76 2.39 21.01 11.64 23.4 23.4z" fill="#fcd770"/><path d="m52 16c0 1.82-1.22 3.36-2.88 3.84-.67-.97-1.43-1.87-2.26-2.7s-1.73-1.59-2.7-2.26c.48-1.66 2.02-2.88 3.84-2.88 2.21 0 4 1.79 4 4z" fill="#b4dd7f"/><path d="m32 16.12c8.34.92 14.96 7.54 15.88 15.88h2.12c.05.6 0 1.39 0 2 0 3.69-1 7.15-2.76 10.12-3.46 5.92-9.89 9.88-17.24 9.88-1.48 0-2.92-.16-4.31-.47-8.36-1.83-14.76-8.89-15.6-17.59-.06-.64-.09-1.28-.09-1.94 0-8.2 4.93-15.25 12-18.33 2.45-1.07 5.15-1.67 8-1.67.61 0 1.4-.05 2 0z" fill="#fcd770"/><path d="m30 20c7.73 0 14 6.27 14 14s-6.27 14-14 14-14-6.27-14-14 6.27-14 14-14z" fill="#e6e9ed"/><g fill="#b4dd7f"><path d="m39.51 30.91c.34 1.05-.23 2.18-1.28 2.52s-2.18-.23-2.52-1.28.23-2.18 1.28-2.52c1.05-.35 2.18.23 2.52 1.28z"/><path d="m36.32 39.3c.65.89.45 2.14-.44 2.79-.9.65-2.15.45-2.8-.44-.65-.9-.45-2.15.45-2.8.89-.65 2.14-.45 2.79.45z"/><circle cx="30" cy="34" r="2"/><path d="m26.47 38.85c.9.65 1.1 1.9.45 2.8-.65.89-1.9 1.09-2.8.44-.89-.65-1.09-1.9-.44-2.79.65-.9 1.9-1.1 2.79-.45z"/><path d="m23.01 29.63c1.05.34 1.62 1.47 1.28 2.52s-1.47 1.62-2.52 1.28-1.62-1.47-1.28-2.52 1.47-1.63 2.52-1.28z"/><circle cx="30" cy="26" r="2"/></g><path d="m30 19c-8.271 0-15 6.729-15 15s6.729 15 15 15 15-6.729 15-15-6.729-15-15-15zm0 28c-7.168 0-13-5.832-13-13s5.832-13 13-13 13 5.832 13 13-5.832 13-13 13z"/><path d="m33 34c0-1.654-1.346-3-3-3s-3 1.346-3 3 1.346 3 3 3 3-1.346 3-3zm-3 1c-.551 0-1-.449-1-1s.449-1 1-1 1 .449 1 1-.449 1-1 1z"/><path d="m30 29c1.654 0 3-1.346 3-3s-1.346-3-3-3-3 1.346-3 3 1.346 3 3 3zm0-4c.551 0 1 .449 1 1s-.449 1-1 1-1-.449-1-1 .449-1 1-1z"/><path d="m25.245 32.455c.511-1.573-.353-3.269-1.926-3.78-.762-.248-1.575-.184-2.29.18-.714.363-1.244.983-1.491 1.746-.511 1.574.353 3.27 1.926 3.781.307.1.618.147.925.147 1.265-.001 2.444-.808 2.856-2.074zm-3.805-1.236c.083-.254.259-.46.497-.582.143-.073.297-.109.453-.109.104 0 .208.017.311.05.524.17.812.735.642 1.26s-.736.813-1.26.642c-.525-.171-.813-.737-.643-1.261z"/><path d="m27.061 38.045c-1.338-.971-3.217-.674-4.19.664-.471.648-.662 1.441-.536 2.233s.551 1.487 1.2 1.958c.531.386 1.148.572 1.759.572.928 0 1.845-.429 2.431-1.235.972-1.34.674-3.219-.664-4.192zm-.955 3.016c-.157.216-.389.357-.652.399-.262.042-.529-.021-.744-.179-.446-.324-.545-.951-.221-1.397.195-.269.501-.412.81-.412.204 0 .41.062.586.19.447.325.546.952.221 1.399z"/><path d="m32.939 38.045c-1.338.973-1.636 2.853-.664 4.191.586.807 1.502 1.236 2.431 1.236.611 0 1.228-.186 1.76-.572.648-.471 1.074-1.167 1.2-1.958s-.065-1.584-.536-2.233c-.973-1.339-2.853-1.636-4.191-.664zm2.352 3.236c-.216.157-.481.221-.745.179s-.496-.184-.652-.399c-.324-.446-.225-1.073.221-1.397.177-.128.383-.19.587-.19.31 0 .615.143.81.412.323.445.224 1.071-.221 1.395z"/><path d="m36.681 28.675c-1.573.511-2.437 2.207-1.926 3.78.412 1.267 1.591 2.073 2.855 2.073.306 0 .618-.047.925-.147 1.573-.511 2.437-2.207 1.926-3.781-.248-.762-.777-1.382-1.491-1.746-.714-.363-1.527-.427-2.289-.179zm1.236 3.804c-.523.171-1.089-.118-1.26-.642-.17-.524.117-1.089.642-1.26.102-.033.207-.05.311-.05.156 0 .31.037.453.109.238.122.415.328.497.582.17.525-.118 1.091-.643 1.261z"/><path d="m63 32c0-17.093-13.907-31-31-31h-1v4.035c-.334-.011-.669-.035-1-.035-15.991 0-29 13.009-29 29s13.009 29 29 29 29-13.009 29-29c0-.334-.024-.666-.035-1h4.035zm-2.862-7h-7.389c-.526-1.679-1.261-3.266-2.17-4.736 1.465-.892 2.421-2.496 2.421-4.264 0-2.757-2.243-5-5-5-1.768 0-3.372.956-4.264 2.421-1.469-.909-3.056-1.644-4.735-2.17l.003-7.388c10.373 2.583 18.552 10.763 21.134 21.137zm-10.693-6.381c-1.163-1.533-2.531-2.901-4.064-4.064.52-.937 1.517-1.555 2.619-1.555 1.654 0 3 1.346 3 3 0 1.102-.618 2.099-1.555 2.619zm-.427 14.381c-.002.113-.003.224-.006.337-.006.232-.012.457-.012.663 0 10.477-8.523 19-19 19s-19-8.523-19-19 8.523-19 19-19c.207 0 .433-.006.665-.012.112-.003.223-.004.335-.007v2.031l.89.099c7.825.866 14.133 7.174 14.999 14.999l.098.89zm-18.018-20.018c-.13.002-.259.003-.388.007-.214.006-.422.011-.612.011-2.4 0-4.698.425-6.847 1.169.459-2.492 2.033-4.644 4.361-5.808l2.707-1.354c.259.003.519.019.779.028zm-5.782-5.549c-2.461 1.77-3.986 4.534-4.174 7.601-7.106 3.37-12.044 10.593-12.044 18.966 0 .129.017.253.019.382-2.226-1.207-3.784-3.368-4.172-5.94l-.451-2.995c3.095-9.238 11.053-16.26 20.822-18.014zm-22.218 26.567c0-1.243.092-2.464.255-3.662.921 2.885 3.076 5.188 5.932 6.316 1.049 8.265 6.905 15.048 14.682 17.428-1.835 1.737-4.367 2.548-6.927 2.122l-2.973-.494c-6.649-4.923-10.969-12.821-10.969-21.71zm15.27 24.315c.012 0 .025.002.038.002 3.008 0 5.844-1.343 7.788-3.695 1.266.239 2.568.378 3.904.378 7.11 0 13.394-3.56 17.196-8.982 1.094 2.286 1.086 4.952-.114 7.262l-1.384 2.667c-4.428 3.176-9.846 5.053-15.698 5.053-4.201 0-8.181-.965-11.73-2.685zm38.73-24.315c0 7.23-2.862 13.801-7.507 18.653.937-2.864.548-5.977-1.089-8.556 1.652-2.999 2.596-6.439 2.596-10.097 0-.189.005-.397.011-.611.003-.129.004-.259.007-.389h5.947c.012.334.035.666.035 1zm-8.244-3c-1.284-8.038-7.718-14.472-15.756-15.756v-12.227c1.36.046 2.696.191 4.003.419l-.003 9.328.737.201c6.445 1.758 11.541 6.854 13.298 13.298l.201.737h9.328c.228 1.306.372 2.641.418 4z"/><circle cx="55" cy="22" r="1"/><circle cx="42" cy="9" r="1"/><path d="m16.215 15.586-1.2-1.6c-.555.417-1.098.86-1.613 1.318l1.329 1.494c.474-.42.973-.828 1.484-1.212z"/><path d="m9.072 24.446-1.819-.831c-.289.632-.553 1.281-.785 1.928l1.882.676c.213-.595.456-1.191.722-1.773z"/><path d="m13.352 18.13-1.447-1.38c-.477.5-.938 1.026-1.373 1.564l1.557 1.256c.399-.495.824-.98 1.263-1.44z"/><path d="m19.459 13.552-.918-1.777c-.616.318-1.225.666-1.809 1.033l1.063 1.693c.538-.337 1.098-.656 1.664-.949z"/><path d="m10.948 21.111-1.655-1.123c-.389.574-.758 1.17-1.096 1.771l1.743.979c.311-.551.65-1.099 1.008-1.627z"/><path d="m10.275 49.365c.426.548.878 1.083 1.346 1.59l1.471-1.355c-.429-.466-.846-.958-1.237-1.462z"/><path d="m8.228 41.42-1.893.646c.224.654.478 1.308.755 1.941l1.832-.801c-.255-.582-.488-1.184-.694-1.786z"/><path d="m15.911 52.188c-.502-.389-.994-.805-1.463-1.235l-1.353 1.474c.51.468 1.045.92 1.591 1.343z"/><path d="m9.763 44.93-1.76.949c.328.608.686 1.21 1.064 1.79l1.675-1.093c-.348-.533-.678-1.087-.979-1.646z"/><path d="m7.295 37.707-1.974.324c.112.68.254 1.366.422 2.039l1.94-.486c-.154-.62-.285-1.252-.388-1.877z"/><path d="m30.33 56.999.03 2c.692-.011 1.392-.05 2.079-.118l-.195-1.99c-.633.062-1.277.098-1.914.108z"/><path d="m37.838 55.626.68 1.881c.651-.235 1.3-.5 1.928-.789l-.836-1.818c-.577.266-1.173.51-1.772.726z"/><path d="m34.141 56.625.36 1.967c.682-.125 1.365-.279 2.03-.459l-.521-1.931c-.613.165-1.241.307-1.869.423z"/><path d="m41.317 54.03.983 1.741c.604-.341 1.199-.71 1.77-1.099l-1.125-1.653c-.524.357-1.072.697-1.628 1.011z"/><path d="m26.207 58.715c.687.105 1.383.182 2.071.229l.135-1.995c-.631-.043-1.272-.114-1.903-.21z"/><path d="m54.969 35.246-1.997-.101c-.032.636-.091 1.278-.176 1.908l1.982.266c.092-.684.157-1.381.191-2.073z"/><path d="m54.417 39.369-1.954-.428c-.136.621-.3 1.244-.488 1.853l1.911.59c.204-.662.383-1.34.531-2.015z"/><path d="m50.547 44.347 1.787.897c.312-.622.601-1.261.856-1.899l-1.856-.744c-.235.587-.5 1.174-.787 1.746z"/></svg>