<svg id="Capa_1" enable-background="new 0 0 128 128" height="512" viewBox="0 0 128 128" width="512" xmlns="http://www.w3.org/2000/svg" xmlns:xlink="http://www.w3.org/1999/xlink"><linearGradient id="lg1"><stop offset="0" stop-color="#ffe7a3"/><stop offset="1" stop-color="#ffc219"/></linearGradient><linearGradient id="SVGID_1_" gradientTransform="matrix(1 0 0 -1 0 130)" gradientUnits="userSpaceOnUse" x1="64" x2="64" xlink:href="#lg1" y1="298.98" y2="-31.72"/><linearGradient id="SVGID_2_" gradientTransform="matrix(1 0 0 -1 0 130)" gradientUnits="userSpaceOnUse" x1="64" x2="64" xlink:href="#lg1" y1="-8.63" y2="-61.84"/><linearGradient id="SVGID_3_" gradientTransform="matrix(1 0 0 -1 0 130)" gradientUnits="userSpaceOnUse" x1="60.434" x2="64.463" xlink:href="#lg1" y1="241.22" y2="43.23"/><g><circle cx="67" cy="64" fill="#efb014" r="47"/><circle cx="64" cy="64" fill="url(#SVGID_1_)" r="47"/><circle cx="64" cy="64" fill="url(#SVGID_2_)" r="34.73"/><path d="m32.27 64c-.001-18.598 14.649-33.897 33.23-34.7-.5 0-1 0-1.5 0-19.181.006-34.725 15.56-34.719 34.741.006 19.172 15.547 34.713 34.719 34.719h1.5c-18.604-.804-33.263-16.138-33.23-34.76z" fill="#efb014"/><g><path d="m63.952 103.45c-7.645 0-15.221-2.521-21.341-7.1-.442-.331-.532-.958-.202-1.4.331-.44.957-.533 1.4-.201 5.776 4.322 12.928 6.701 20.143 6.701.017 0 .041.006.048 0 .552 0 .999.446 1 .999.001.569-.5 1.001-1.048 1.001z" fill="#fff"/></g><g><path d="m94.841 49c-.361 0-.71-.196-.888-.538-3.451-6.625-9.088-11.996-15.872-15.124-.501-.231-.721-.825-.489-1.327.23-.501.822-.722 1.327-.49 7.185 3.313 13.153 9 16.808 16.016.255.49.065 1.094-.425 1.349-.148.078-.306.114-.461.114z" fill="#fff"/></g><g><path d="m70.211 30.82c-.059 0-.117-.005-.177-.016-1.984-.354-4.012-.534-6.026-.534-.592.021-1.008-.444-1.008-1 0-.552.447-1 1-1h.008c2.132 0 4.278.19 6.377.565.544.097.906.617.809 1.16-.087.485-.507.825-.983.825z" fill="#fff"/></g><path d="m66.47 61.81v-13.15c2.538 1.007 4.206 3.459 4.21 6.19 0 1.364 1.106 2.47 2.47 2.47s2.47-1.106 2.47-2.47c-.011-5.459-3.817-10.176-9.15-11.34v-2.38c.001-1.364-1.104-2.471-2.468-2.472s-2.471 1.104-2.472 2.468v.004 2.38c-6.263 1.349-10.247 7.519-8.898 13.782.96 4.457 4.441 7.938 8.898 8.898v13.15c-2.538-1.007-4.206-3.459-4.21-6.19-.001-1.364-1.108-2.469-2.472-2.468-1.363.001-2.467 1.105-2.468 2.468.011 5.459 3.817 10.176 9.15 11.34v2.38c0 1.364 1.106 2.47 2.47 2.47s2.47-1.106 2.47-2.47v-2.38c6.263-1.349 10.247-7.519 8.898-13.782-.96-4.457-4.441-7.938-8.898-8.898zm-9.15-7c.004-2.731 1.672-5.183 4.21-6.19v12.38c-2.525-1.002-4.19-3.434-4.21-6.15zm9.15 24.49v-12.3c3.419 1.357 5.09 5.229 3.732 8.648-.677 1.705-2.027 3.055-3.732 3.732z" fill="url(#SVGID_3_)"/></g></svg>