<svg height="512pt" viewBox="0 0 512 512.00745" width="512pt" xmlns="http://www.w3.org/2000/svg"><path d="m384.003906 315.742188c-3.839844-.003907-7.207031-2.570313-8.226562-6.273438-.1875-.683594-17.917969-68.898438 55.089844-112.007812 4.046874-2.253907 9.152343-.871094 11.503906 3.117187 2.351562 3.988281 1.097656 9.125-2.832032 11.578125-61.925781 36.554688-47.460937 92.226562-47.308593 92.789062.597656 2.183594.304687 4.515626-.816407 6.480469-1.117187 1.96875-2.972656 3.410157-5.15625 4.007813-.734374.203125-1.492187.308594-2.253906.308594zm0 0" fill="#59474e"/><path d="m349.871094 76.808594v147.882812l-7.082032 275.453125c-2.871093 2.179688-6.382812 3.351563-9.984374 3.328125h-307.199219c-9.414063-.027344-17.039063-7.652344-17.070313-17.066406v-409.597656c.03125-9.414063 7.65625-17.039063 17.070313-17.066406h307.199219c9.414062.027343 17.039062 7.652343 17.066406 17.066406zm0 0" fill="#4e342e"/><path d="m324.269531 76.808594v147.882812l-7.082031 275.453125c-2.871094 2.179688-6.378906 3.351563-9.984375 3.328125h-281.597656c-9.414063-.027344-17.039063-7.652344-17.070313-17.066406v-409.597656c.03125-9.414063 7.65625-17.039063 17.070313-17.066406h281.597656c9.414063.027343 17.039063 7.652343 17.066406 17.066406zm0 0" fill="#795548"/><path d="m315.738281 213.425781v-111.019531c0-4.710938-3.820312-8.53125-8.535156-8.53125h-256c-4.710937 0-8.53125 3.820312-8.53125 8.53125v358.402344c0 4.710937 3.820313 8.53125 8.53125 8.53125h264.535156zm0 0" fill="#ffeb3a"/><path d="m324.269531 281.609375c-42.664062-8.535156-32.945312-64.777344-32.9375-64.804687.714844-3.15625 21.417969-3.464844 24.421875-3.414063 24.871094.195313 46.9375 15.996094 55.132813 39.476563 5.785156 15.011718 6.109375 39.832031 13.117187 54.339843" fill="#4caf50"/><path d="m290.136719 59.742188v34.132812c-.027344 9.414062-7.652344 17.039062-17.066407 17.066406h-187.734374c-9.414063-.027344-17.039063-7.652344-17.066407-17.066406v-34.132812c.027344-9.414063 7.652344-17.039063 17.066407-17.066407h52.054687c4.039063-19.886719 21.523437-34.179687 41.8125-34.179687 20.292969 0 37.777344 14.292968 41.8125 34.179687h52.054687c9.414063.027344 17.039063 7.652344 17.066407 17.066407zm0 0" fill="#607d8b"/><path d="m264.535156 59.742188v34.132812c-.027344 9.414062-7.652344 17.039062-17.066406 17.066406h-162.132812c-9.414063-.027344-17.039063-7.652344-17.066407-17.066406v-34.132812c.027344-9.414063 7.652344-17.039063 17.066407-17.066407h52.054687c3.101563-15.203125 14.210937-27.519531 29.011719-32.171875 14.800781 4.652344 25.910156 16.96875 29.015625 32.171875h52.050781c9.414062.027344 17.039062 7.652344 17.066406 17.066407zm0 0" fill="#cfd8dc"/><path d="m110.9375 85.339844h-8.535156c-4.710938 0-8.53125-3.820313-8.53125-8.53125 0-4.714844 3.820312-8.535156 8.53125-8.535156h8.535156c4.710938 0 8.53125 3.820312 8.53125 8.535156 0 4.710937-3.820312 8.53125-8.53125 8.53125zm0 0" fill="#547580"/><path d="m256.003906 85.339844h-110.933594c-4.710937 0-8.535156-3.820313-8.535156-8.53125 0-4.714844 3.824219-8.535156 8.535156-8.535156h110.933594c4.710938 0 8.53125 3.820312 8.53125 8.535156 0 4.710937-3.820312 8.53125-8.53125 8.53125zm0 0" fill="#547580"/><path d="m467.203125 290.480469c-9.898437-5.835938-21.1875-8.902344-32.683594-8.871094h-18.6875c-3.242187.027344-6.464843.546875-9.554687 1.535156h-.085938c-13.613281 5.039063-22.527344 18.167969-22.1875 32.679688.285156-14.28125-8.367187-27.226563-21.675781-32.425781-1.023437-.339844-2.046875-.683594-3.070313-.9375-.597656-.085938-1.195312-.257813-1.792968-.339844-1.742188-.34375-3.515625-.515625-5.289063-.511719h-18.6875c-38.0625 0-68.953125 33.105469-68.953125 73.980469v36.949218c-.105468 24.003907 7.261719 47.445313 21.078125 67.074219 18.6875 27.179688 49.449219 43.550781 82.433594 43.859375h31.914063c57.171874 0 103.507812-49.664062 103.507812-110.933594v-36.949218c.363281-26.609375-13.449219-51.40625-36.265625-65.109375zm0 0" fill="#c52828"/><path d="m477.871094 329.992188v36.949218c0 61.269532-46.335938 110.933594-103.511719 110.933594h-31.914063c-20.378906-.035156-40.246093-6.417969-56.832031-18.261719-13.816406-19.628906-21.183593-43.070312-21.078125-67.074219v-36.949218c0-40.875 30.890625-73.980469 68.953125-73.980469h18.6875c1.773438-.003906 3.546875.167969 5.289063.511719.597656.082031 1.195312.253906 1.792968.339844 1.023438.253906 2.046876.597656 3.070313.9375 13.308594 5.199218 21.960937 18.144531 21.675781 32.425781-.339844-14.511719 8.574219-27.640625 22.1875-32.679688h.085938c3.089844-.988281 6.3125-1.507812 9.554687-1.535156h18.6875c11.496094-.03125 22.785157 3.035156 32.683594 8.871094 7.023437 11.980469 10.707031 25.625 10.667969 39.511719zm0 0" fill="#f44335"/><path d="m298.671875 366.941406c-4.714844 0-8.535156-3.820312-8.535156-8.535156 0-39.824219 30.148437-50.34375 31.4375-50.761719 2.886719-.980469 6.078125-.339843 8.371093 1.671875 2.289063 2.011719 3.332032 5.09375 2.734376 8.085938-.597657 2.988281-2.746094 5.433594-5.636719 6.410156-.964844.34375-19.839844 7.511719-19.839844 34.59375 0 4.714844-3.820313 8.535156-8.53125 8.535156zm0 0" fill="#fb7b76"/><path d="m85.335938 153.609375h25.601562c4.710938 0 8.53125 3.820313 8.53125 8.53125v25.601563c0 4.710937-3.820312 8.53125-8.53125 8.53125h-25.601562c-4.710938 0-8.53125-3.820313-8.53125-8.53125v-25.601563c0-4.710937 3.820312-8.53125 8.53125-8.53125zm0 0" fill="#f5f5f5"/><path d="m85.335938 230.40625h25.601562c4.710938 0 8.53125 3.820312 8.53125 8.535156v25.597656c0 4.714844-3.820312 8.535157-8.53125 8.535157h-25.601562c-4.710938 0-8.53125-3.820313-8.53125-8.535157v-25.597656c0-4.714844 3.820312-8.535156 8.53125-8.535156zm0 0" fill="#f5f5f5"/><path d="m85.335938 307.207031h25.601562c4.710938 0 8.53125 3.820313 8.53125 8.535157v25.597656c0 4.714844-3.820312 8.535156-8.53125 8.535156h-25.601562c-4.710938 0-8.53125-3.820312-8.53125-8.535156v-25.597656c0-4.714844 3.820312-8.535157 8.53125-8.535157zm0 0" fill="#f5f5f5"/><path d="m85.335938 384.007812h25.601562c4.710938 0 8.53125 3.820313 8.53125 8.53125v25.601563c0 4.714844-3.820312 8.535156-8.53125 8.535156h-25.601562c-4.710938 0-8.53125-3.820312-8.53125-8.535156v-25.601563c0-4.710937 3.820312-8.53125 8.53125-8.53125zm0 0" fill="#f5f5f5"/><g fill="#35495e"><path d="m110.9375 204.808594h-25.601562c-9.425782 0-17.066407-7.640625-17.066407-17.066406v-25.601563c0-9.425781 7.640625-17.066406 17.066407-17.066406h25.601562c9.425781 0 17.066406 7.640625 17.066406 17.066406v25.601563c0 9.425781-7.640625 17.066406-17.066406 17.066406zm-25.601562-42.667969v25.601563h25.601562v-25.601563zm0 0"/><path d="m110.9375 281.609375h-25.601562c-9.425782 0-17.066407-7.644531-17.066407-17.070313v-25.597656c0-9.425781 7.640625-17.066406 17.066407-17.066406h25.601562c9.425781 0 17.066406 7.640625 17.066406 17.066406v25.597656c0 9.425782-7.640625 17.070313-17.066406 17.070313zm-25.601562-42.667969v25.597656h25.601562v-25.597656zm0 0"/><path d="m110.9375 358.40625h-25.601562c-9.425782 0-17.066407-7.640625-17.066407-17.066406v-25.597656c0-9.425782 7.640625-17.066407 17.066407-17.066407h25.601562c9.425781 0 17.066406 7.640625 17.066406 17.066407v25.597656c0 9.425781-7.640625 17.066406-17.066406 17.066406zm-25.601562-42.664062v25.597656h25.601562v-25.597656zm0 0"/><path d="m110.9375 435.207031h-25.601562c-9.425782 0-17.066407-7.640625-17.066407-17.066406v-25.601563c0-9.425781 7.640625-17.066406 17.066407-17.066406h25.601562c9.425781 0 17.066406 7.640625 17.066406 17.066406v25.601563c0 9.425781-7.640625 17.066406-17.066406 17.066406zm-25.601562-42.667969v25.601563h25.601562v-25.601563zm0 0"/><path d="m273.070312 187.742188h-119.464843c-4.714844 0-8.535157-3.820313-8.535157-8.535157 0-4.710937 3.820313-8.53125 8.535157-8.53125h119.464843c4.714844 0 8.535157 3.820313 8.535157 8.53125 0 4.714844-3.820313 8.535157-8.535157 8.535157zm0 0"/><path d="m247.46875 264.539062h-93.863281c-4.714844 0-8.535157-3.820312-8.535157-8.53125 0-4.714843 3.820313-8.535156 8.535157-8.535156h93.863281c4.714844 0 8.535156 3.820313 8.535156 8.535156 0 4.710938-3.820312 8.53125-8.535156 8.53125zm0 0"/><path d="m230.402344 341.339844h-76.796875c-4.714844 0-8.535157-3.820313-8.535157-8.53125 0-4.714844 3.820313-8.535156 8.535157-8.535156h76.796875c4.714844 0 8.535156 3.820312 8.535156 8.535156 0 4.710937-3.820312 8.53125-8.535156 8.53125zm0 0"/><path d="m230.402344 418.140625h-76.796875c-4.714844 0-8.535157-3.820313-8.535157-8.53125 0-4.714844 3.820313-8.535156 8.535157-8.535156h76.796875c4.714844 0 8.535156 3.820312 8.535156 8.535156 0 4.710937-3.820312 8.53125-8.535156 8.53125zm0 0"/></g><path d="m102.402344 85.339844h8.535156c4.710938 0 8.53125-3.820313 8.53125-8.53125 0-4.714844-3.820312-8.535156-8.53125-8.535156h-8.535156c-4.710938 0-8.53125 3.820312-8.53125 8.535156 0 4.710937 3.820312 8.53125 8.53125 8.53125zm0 0"/><path d="m145.070312 85.339844h110.933594c4.710938 0 8.53125-3.820313 8.53125-8.53125 0-4.714844-3.820312-8.535156-8.53125-8.535156h-110.933594c-4.710937 0-8.535156 3.820312-8.535156 8.535156 0 4.710937 3.824219 8.53125 8.535156 8.53125zm0 0"/><path d="m434.546875 273.074219h-18.542969c-.058594 0-.121094 0-.179687 0-3.882813.007812-7.742188.582031-11.460938 1.707031-.289062.066406-.574219.148438-.851562.246094-4.519531 1.566406-8.71875 3.941406-12.390625 7.007812 1.851562-19.628906 11.570312-48.128906 48.453125-69.90625 3.925781-2.449218 5.183593-7.585937 2.832031-11.574218-2.355469-3.988282-7.457031-5.375-11.503906-3.121094-22.910156 12.445312-40.78125 32.472656-50.550782 56.644531-.453124-1.476563-.9375-2.917969-1.46875-4.265625-4.273437-11.242188-11.316406-21.222656-20.480468-29.011719v-143.992187c0-14.140625-11.460938-25.601563-25.597656-25.601563h-35.703126c-3.605468-10.191406-13.222656-17.019531-24.03125-17.066406h-45.714843c-7.171875-20.449219-26.480469-34.140625-48.152344-34.140625s-40.980469 13.691406-48.152344 34.140625h-45.714843c-10.808594.046875-20.425782 6.875-24.027344 17.066406h-35.703125c-14.140625 0-25.60156275 11.460938-25.60156275 25.601563v409.597656c0 14.140625 11.46093775 25.601562 25.60156275 25.601562h307.199219c3.988281.003907 7.921874-.945312 11.46875-2.773437 7.792968 1.828125 15.773437 2.761719 23.78125 2.773437h31.898437c61.78125 0 112.050781-53.582031 112.050781-119.46875v-36.949218c0-45.480469-34.746094-82.515625-77.457031-82.515625zm-71.621094-17.152344c2.21875 6.695313 3.816407 13.578125 4.769531 20.566406-.851562-.367187-1.613281-.855469-2.472656-1.136719-4.199218-1.507812-8.628906-2.277343-13.089844-2.277343-.070312 0-.121093 0-.1875 0h-18.484374c-2.339844 0-4.640626.160156-6.929688.375-.210938-.058594-.367188-.195313-.589844-.238281-28.242187-5.65625-27.851562-38.605469-26.785156-50.398438 5.445312-.628906 10.921875-.933594 16.402344-.914062h.179687c21.359375.191406 40.277344 13.84375 47.1875 34.058593zm-86.699219 204.886719h-225.023437v-358.402344h10.105469c3.601562 10.191406 13.21875 17.023438 24.027344 17.066406h187.734374c10.808594-.042968 20.425782-6.875 24.03125-17.066406h10.101563v102.527344c-22.039063.785156-23.5 6.921875-24.285156 10.429687-3.003907 17.554688-1.476563 48.640625 18.839843 65.050781-28.386718 14.230469-46.15625 43.425782-45.753906 75.175782v36.949218c-.070312 24.242188 6.960938 47.976563 20.222656 68.269532zm65.109376-384v133.535156c-5.460938-2.292969-11.199219-3.863281-17.066407-4.675781v-103.261719c0-9.425781-7.640625-17.066406-17.066406-17.066406h-8.53125v-17.066406h34.132813c4.710937 0 8.53125 3.820312 8.53125 8.535156zm-256-25.601563h52.054687c.289063-.042969.570313-.101562.851563-.179687.535156-.054688 1.058593-.160156 1.570312-.316406.542969-.160157 1.066406-.378907 1.5625-.648438 1.417969-.761719 2.582031-1.925781 3.34375-3.34375.277344-.496094.5-1.019531.660156-1.5625.128906-.257812.242188-.519531.339844-.792969 3.246094-15.886719 17.226562-27.296875 33.441406-27.296875 16.21875 0 30.195313 11.410156 33.441406 27.296875.101563.308594.222657.609375.359376.90625.132812.414063.292968.824219.480468 1.21875.285156.550781.636719 1.070313 1.039063 1.542969.246093.324219.511719.625.800781.90625.507812.4375 1.0625.8125 1.65625 1.117188 1.199219.816406 2.632812 1.222656 4.078125 1.152343h52.054687c4.714844 0 8.535157 3.820313 8.535157 8.535157v34.132812c0 4.710938-3.820313 8.53125-8.535157 8.53125h-187.734374c-4.710938 0-8.53125-3.820312-8.53125-8.53125v-34.132812c0-4.714844 3.820312-8.535157 8.53125-8.535157zm-59.730469 443.734375c-4.714844 0-8.535157-3.820312-8.535157-8.535156v-409.597656c0-4.714844 3.820313-8.535156 8.535157-8.535156h34.132812v17.066406h-8.535156c-9.425781 0-17.066406 7.640625-17.066406 17.066406v358.402344c0 9.425781 7.640625 17.066406 17.066406 17.066406h238.574219c6.25 6.492188 13.242187 12.21875 20.839844 17.066406zm469.332031-102.402344c0 56.457032-42.617188 102.402344-94.984375 102.402344h-31.898437c-52.367188 0-94.984376-45.925781-94.984376-102.402344v-36.949218c0-36.070313 27.09375-65.449219 60.390626-65.449219h18.816406c2.441406.023437 4.859375.457031 7.160156 1.28125 9.921875 3.972656 16.320312 13.710937 16.03125 24.394531v8.457032c0 4.714843 3.820312 8.535156 8.535156 8.535156 4.710938 0 8.53125-3.820313 8.53125-8.535156v-8.480469c-.316406-10.671875 6.03125-20.417969 15.925782-24.433594l.410156-.117187c2.207031-.710938 4.507812-1.085938 6.824218-1.117188h18.84375c33.304688.015625 60.398438 29.394531 60.398438 65.464844zm0 0"/><path d="m321.574219 307.644531c-1.289063.417969-31.4375 10.9375-31.4375 50.761719 0 4.714844 3.820312 8.535156 8.535156 8.535156 4.710937 0 8.53125-3.820312 8.53125-8.535156 0-27.082031 18.875-34.25 19.839844-34.59375 4.464843-1.507812 6.863281-6.355469 5.351562-10.820312-1.511719-4.464844-6.355469-6.859376-10.820312-5.347657zm0 0"/><path d="m110.9375 145.074219h-25.601562c-9.425782 0-17.066407 7.640625-17.066407 17.066406v25.601563c0 9.425781 7.640625 17.066406 17.066407 17.066406h25.601562c9.425781 0 17.066406-7.640625 17.066406-17.066406v-25.601563c0-9.425781-7.640625-17.066406-17.066406-17.066406zm-25.601562 42.667969v-25.601563h25.601562v25.601563zm0 0"/><path d="m110.9375 221.875h-25.601562c-9.425782 0-17.066407 7.640625-17.066407 17.066406v25.597656c0 9.425782 7.640625 17.070313 17.066407 17.070313h25.601562c9.425781 0 17.066406-7.644531 17.066406-17.070313v-25.597656c0-9.425781-7.640625-17.066406-17.066406-17.066406zm-25.601562 42.664062v-25.597656h25.601562v25.597656zm0 0"/><path d="m110.9375 298.675781h-25.601562c-9.425782 0-17.066407 7.640625-17.066407 17.066407v25.597656c0 9.425781 7.640625 17.066406 17.066407 17.066406h25.601562c9.425781 0 17.066406-7.640625 17.066406-17.066406v-25.597656c0-9.425782-7.640625-17.066407-17.066406-17.066407zm-25.601562 42.664063v-25.597656h25.601562v25.597656zm0 0"/><path d="m110.9375 375.472656h-25.601562c-9.425782 0-17.066407 7.640625-17.066407 17.066406v25.601563c0 9.425781 7.640625 17.066406 17.066407 17.066406h25.601562c9.425781 0 17.066406-7.640625 17.066406-17.066406v-25.601563c0-9.425781-7.640625-17.066406-17.066406-17.066406zm-25.601562 42.667969v-25.601563h25.601562v25.601563zm0 0"/><path d="m153.605469 187.742188h119.464843c4.714844 0 8.535157-3.820313 8.535157-8.535157 0-4.710937-3.820313-8.53125-8.535157-8.53125h-119.464843c-4.714844 0-8.535157 3.820313-8.535157 8.53125 0 4.714844 3.820313 8.535157 8.535157 8.535157zm0 0"/><path d="m247.46875 247.472656h-93.863281c-4.714844 0-8.535157 3.820313-8.535157 8.535156 0 4.710938 3.820313 8.53125 8.535157 8.53125h93.863281c4.714844 0 8.535156-3.820312 8.535156-8.53125 0-4.714843-3.820312-8.535156-8.535156-8.535156zm0 0"/><path d="m230.402344 324.273438h-76.796875c-4.714844 0-8.535157 3.820312-8.535157 8.535156 0 4.710937 3.820313 8.53125 8.535157 8.53125h76.796875c4.714844 0 8.535156-3.820313 8.535156-8.53125 0-4.714844-3.820312-8.535156-8.535156-8.535156zm0 0"/><path d="m230.402344 401.074219h-76.796875c-4.714844 0-8.535157 3.820312-8.535157 8.535156 0 4.710937 3.820313 8.53125 8.535157 8.53125h76.796875c4.714844 0 8.535156-3.820313 8.535156-8.53125 0-4.714844-3.820312-8.535156-8.535156-8.535156zm0 0"/></svg>