<svg height="511pt" viewBox="1 -9 511.9985 511" width="511pt" xmlns="http://www.w3.org/2000/svg"><path d="m246.945312 54.492188c26.039063 0 50.402344 5.207031 71.015626 14.949218-.929688-38.230468-32.351563-68.941406-71.015626-68.941406-38.660156 0-70.085937 30.710938-71.015624 68.941406 20.613281-9.742187 44.976562-14.949218 71.015624-14.949218zm0 0" fill="#9b5729"/><path d="m209.816406 58.226562c5.128906-27.523437 26.289063-49.441406 53.492188-55.824218-5.253906-1.230469-10.726563-1.902344-16.363282-1.902344-38.660156 0-70.085937 30.710938-71.015624 68.941406 10.425781-4.929687 21.808593-8.695312 33.886718-11.214844zm0 0" fill="#7f441c"/><path d="m369.636719 392.578125c-5.035157-2.394531-10.378907-4.238281-15.949219-5.492187l10.738281 10.679687zm0 0" fill="#f66"/><path d="m381.84375 442.894531-53.550781-53.257812-59.785157 91.578125c-4.078124 6.246094-10.625 10.355468-17.894531 11.402344h-7.339843c-7.265626-1.046876-13.8125-5.15625-17.890626-11.402344l-62.675781-96.003906h-5.730469c-41.949218 0-76.078124 33.941406-76.078124 75.664062v27.457031c0 2.976563 2.414062 5.386719 5.390624 5.386719h321.3125c2.976563 0 5.390626-2.410156 5.390626-5.386719v-27.457031c0-1.398438-.042969-2.78125-.121094-4.160156-11.726563-.65625-22.660156-5.5-31.027344-13.820313zm0 0" fill="#f66"/><path d="m164.703125 389.375-2.714844-4.164062h-5.011719c-41.949218 0-76.078124 33.941406-76.078124 75.664062v27.460938c0 2.972656 2.414062 5.386718 5.390624 5.386718h32.5625c-2.976562 0-5.390624-2.414062-5.390624-5.386718v-27.460938c0-33.074219 21.453124-61.238281 51.242187-71.5zm0 0" fill="#fe3745"/><path d="m323.84375 385.210938h-23.433594l-53.464844 81.898437-53.46875-81.898437h-31.488281l63.394531 97.105468c4.078126 6.246094 10.625 10.355469 17.890626 11.402344h7.339843c7.269531-1.046875 13.816407-5.15625 17.894531-11.402344l60.21875-92.246094zm0 0" fill="#def9ff"/><path d="m277.714844 377.9375v-22.132812c-5.707032.992187-11.527344 1.511718-17.425782 1.511718h-26.679687c-5.851563 0-11.6875-.515625-17.433594-1.523437v22.144531c0 4.011719-3.28125 7.273438-7.3125 7.273438h-16.113281l54.191406 83.015624 54.195313-83.015624h-16.105469c-4.035156 0-7.316406-3.261719-7.316406-7.273438zm0 0" fill="#f8d5ab"/><path d="m213.855469 383.238281c-1.308594 1.222657-3.0625 1.972657-4.992188 1.972657h-16.113281l54.195312 83.015624 11.195313-17.148437zm0 0" fill="#eac092"/><path d="m115.679688 206.570312h17.753906v-24.222656c0-2.9375 2.40625-5.324218 5.359375-5.324218h90.355469c16.832031 0 32.875-8.875 41.855468-23.164063.984375-1.566406 2.683594-2.503906 4.546875-2.503906 1.859375 0 3.558594.9375 4.539063 2.503906 8.988281 14.289063 25.027344 23.164063 41.859375 23.164063h33.148437c2.953125 0 5.355469 2.386718 5.355469 5.324218v24.222656h17.761719c1.9375 0 3.804687.285157 5.582031.785157v-36.460938c0-74.335937-61.269531-117.402343-136.851563-117.402343-75.582031 0-136.851562 43.066406-136.851562 117.402343v36.464844c1.777344-.503906 3.648438-.789063 5.585938-.789063zm0 0" fill="#b57a4e"/><path d="m115.679688 206.570312h17.753906v-24.222656c0-2.9375 2.40625-5.324218 5.359375-5.324218h3.886719v-6.128907c0-68.914062 52.65625-110.945312 120.558593-116.710937-5.34375-.457032-10.777343-.691406-16.292969-.691406-75.582031 0-136.851562 43.066406-136.851562 117.402343v36.460938c1.777344-.5 3.648438-.785157 5.585938-.785157zm0 0" fill="#9b5729"/><path d="m360.457031 247.277344c13.507813 1.433594 25.261719 8.792968 32.566407 19.410156 3.957031-3.792969 6.421874-9.085938 6.421874-14.953125v-25.277344c0-11.535156-9.503906-20.886719-21.230468-20.886719h-17.757813zm0 0" fill="#f8d5ab"/><path d="m108.125 265.332031c6.167969-1.550781 12.40625-2.335937 18.546875-2.335937 2.328125 0 4.632813.121094 6.90625.34375-.09375-1.746094-.144531-3.5-.144531-5.269532v-52.5h-17.753906c-11.730469 0-21.230469 9.351563-21.230469 20.886719v25.277344c0 7.519531 4.050781 14.09375 10.109375 17.769531.175781-2.003906 1.59375-3.675781 3.566406-4.171875zm0 0" fill="#ffe2b8"/><path d="m315.433594 333.695312c-1.863282-1.855468-2.894532-4.324218-2.894532-6.945312s1.03125-5.089844 2.894532-6.949219c.589844-.582031 1.269531-1.101562 2.03125-1.542969l.917968-.53125-.585937-.886718c-4.894531-7.367188-7.480469-15.9375-7.480469-24.78125 0-24.835938 20.320313-45.042969 45.296875-45.042969 1.980469 0 3.925781.140625 5.839844.386719v-65.054688c0-3.492187-2.84375-6.324218-6.355469-6.324218h-33.148437c-16.488281 0-32.207031-8.695313-41.011719-22.695313-1.160156-1.851563-3.199219-2.96875-5.386719-2.96875-2.191406 0-4.230469 1.117187-5.390625 2.96875-8.804687 14-24.523437 22.695313-41.011718 22.695313h-90.355469c-3.511719 0-6.359375 2.832031-6.359375 6.324218v75.722656c0 1.738282.046875 3.46875.136718 5.183594 15.226563 1.269532 29.039063 7.4375 39.371094 17.714844 15.910156 15.820312 21.785156 39.542969 15.714844 63.449219-.226562.890625-.703125 1.652343-1.335938 2.253906 14.125 7.429687 30.21875 11.648437 47.289063 11.648437h26.679687c22.496094 0 43.300782-7.316406 60.121094-19.675781zm0 0" fill="#ffe2b8"/><path d="m154.613281 268.96875c-.394531-3.578125-.601562-7.214844-.601562-10.898438v-75.726562c0-3.492188 2.847656-6.320312 6.359375-6.320312h-21.578125c-3.511719 0-6.359375 2.828124-6.359375 6.320312v75.726562c0 1.738282.046875 3.464844.136718 5.179688 7.8125.652344 15.253907 2.59375 22.042969 5.71875zm0 0" fill="#ffc987"/><path d="m187.65625 344.417969c-.226562.886719-.703125 1.652343-1.335938 2.253906 14.125 7.429687 30.21875 11.648437 47.289063 11.648437h21.578125c-25.042969 0-47.984375-9.066406-65.671875-24.054687-.382813 3.367187-.996094 6.757813-1.859375 10.152344zm0 0" fill="#ffc987"/><g fill="#72563c"><path d="m256.167969 272.933594h-12.582031c-7.367188 0-13.359376-5.964844-13.359376-13.296875v-20.683594c0-4.144531 3.355469-7.5 7.5-7.5 4.140626 0 7.5 3.355469 7.5 7.5v18.980469h10.9375c4.144532 0 7.5 3.355468 7.5 7.5.003907 4.144531-3.355468 7.5-7.496093 7.5zm0 0"/><path d="m186.621094 237.917969c-10.574219 0-21.148438-4-29.199219-12.007813-2.933594-2.917968-2.949219-7.667968-.027344-10.605468s7.671875-2.949219 10.605469-.03125c10.265625 10.210937 26.972656 10.210937 37.242188 0 2.9375-2.917969 7.683593-2.90625 10.605468.03125 2.917969 2.9375 2.90625 7.6875-.03125 10.605468-8.046875 8.003906-18.621094 12.007813-29.195312 12.007813zm0 0"/><path d="m307.269531 237.917969c-10.574219 0-21.148437-4-29.195312-12.007813-2.9375-2.917968-2.953125-7.667968-.03125-10.605468s7.671875-2.949219 10.605469-.03125c10.269531 10.210937 26.976562 10.210937 37.242187 0 2.9375-2.917969 7.6875-2.90625 10.605469.03125 2.921875 2.9375 2.910156 7.6875-.027344 10.605468-8.050781 8.003906-18.625 12.007813-29.199219 12.007813zm0 0"/><path d="m246.746094 317.753906c-14.703125 0-29.378906-5.546875-40.542969-16.648437-2.9375-2.921875-2.949219-7.667969-.027344-10.605469s7.667969-2.949219 10.605469-.027344c16.570312 16.480469 43.636719 16.382813 60.328125-.21875 2.9375-2.917968 7.6875-2.90625 10.609375.03125 2.917969 2.9375 2.90625 7.6875-.03125 10.605469-11.300781 11.238281-26.136719 16.863281-40.941406 16.863281zm0 0"/></g><path d="m451.703125 189.480469c-1.230469 0-2.339844-.75-2.792969-1.898438-6.046875-15.226562-10.640625-19.820312-25.859375-25.871093-1.144531-.453126-1.894531-1.5625-1.894531-2.792969 0-1.234375.75-2.339844 1.894531-2.796875 15.21875-6.050782 19.8125-10.644532 25.859375-25.871094.453125-1.144531 1.558594-1.898438 2.792969-1.898438 1.230469 0 2.335937.753907 2.792969 1.898438 6.046875 15.226562 10.640625 19.820312 25.859375 25.871094 1.144531.457031 1.894531 1.5625 1.894531 2.796875 0 1.230469-.75 2.339843-1.894531 2.792969-15.21875 6.050781-19.8125 10.644531-25.859375 25.871093-.457032 1.148438-1.5625 1.898438-2.792969 1.898438zm0 0" fill="#ffaf10"/><path d="m433.742188 151.316406c-.09375-.035156-.175782-.082031-.265626-.128906-2.835937 1.703125-6.222656 3.265625-10.425781 4.933594-1.144531.457031-1.894531 1.5625-1.894531 2.796875 0 1.230469.75 2.339843 1.894531 2.792969 15.21875 6.050781 19.8125 10.644531 25.859375 25.871093.453125 1.148438 1.558594 1.898438 2.792969 1.898438 1.230469 0 2.335937-.75 2.792969-1.898438 1.699218-4.28125 3.285156-7.722656 5.023437-10.589843-6.007812-15.066407-10.625-19.648438-25.777343-25.675782zm0 0" fill="#f39600"/><path d="m56.171875 189.792969c-1.234375 0-2.339844-.75-2.792969-1.894531-6.050781-15.230469-10.640625-19.824219-25.863281-25.875-1.144531-.453126-1.894531-1.5625-1.894531-2.792969s.75-2.339844 1.894531-2.796875c15.222656-6.050782 19.8125-10.644532 25.863281-25.871094.453125-1.144531 1.558594-1.894531 2.792969-1.894531 1.230469 0 2.335937.75 2.789063 1.894531 6.046874 15.230469 10.640624 19.820312 25.859374 25.871094 1.144532.457031 1.894532 1.566406 1.894532 2.796875s-.75 2.339843-1.894532 2.792969c-15.21875 6.050781-19.8125 10.644531-25.859374 25.875-.453126 1.144531-1.558594 1.894531-2.789063 1.894531zm0 0" fill="#ffcb00"/><path d="m38.152344 151.636719c-.082032-.035157-.160156-.078125-.238282-.117188-2.832031 1.695313-6.210937 3.25-10.398437 4.914063-1.144531.457031-1.894531 1.5625-1.894531 2.796875 0 1.230469.75 2.335937 1.894531 2.792969 15.222656 6.050781 19.8125 10.644531 25.863281 25.875.453125 1.144531 1.558594 1.894531 2.792969 1.894531 1.230469 0 2.335937-.75 2.789063-1.894531 1.691406-4.253907 3.265624-7.679688 4.992187-10.535157-6.019531-15.109375-10.628906-19.695312-25.800781-25.726562zm0 0" fill="#ffaf10"/><path d="m100.351562 66.699219c-1 0-1.894531-.609375-2.261718-1.535157-4.90625-12.351562-8.628906-16.078124-20.972656-20.984374-.925782-.367188-1.535157-1.265626-1.535157-2.261719 0-1.003907.609375-1.898438 1.535157-2.269531 12.34375-4.90625 16.066406-8.632813 20.972656-20.980469.367187-.925781 1.261718-1.535157 2.261718-1.535157s1.898438.609376 2.265626 1.535157c4.90625 12.347656 8.628906 16.074219 20.96875 20.980469.929687.371093 1.539062 1.265624 1.539062 2.269531 0 .996093-.609375 1.894531-1.539062 2.261719-12.339844 4.90625-16.0625 8.632812-20.96875 20.980468-.367188.929688-1.265626 1.539063-2.265626 1.539063zm0 0" fill="#ffaf10"/><path d="m108.433594 53.96875c-4.738282-11.929688-8.398438-15.816406-19.765625-20.488281-2.84375 2.3125-6.457031 4.144531-11.550781 6.167969-.925782.371093-1.535157 1.265624-1.535157 2.269531 0 1 .609375 1.894531 1.535157 2.261719 12.34375 4.910156 16.066406 8.636718 20.972656 20.984374.367187.925782 1.261718 1.535157 2.261718 1.535157s1.898438-.609375 2.265626-1.535157c1.929687-4.859374 3.679687-8.371093 5.839843-11.15625-.003906-.011718-.015625-.027343-.023437-.039062zm0 0" fill="#f39600"/><path d="m86.3125 343.601562-83.472656 91.847657c-3.785156 3.765625-3.785156 9.863281-.003906 13.628906 3.785156 3.761719 9.917968 3.761719 13.703124-.003906l92.351563-83.015625zm0 0" fill="#c7c8ca"/><path d="m94.988281 352.230469-8.675781-8.628907-83.472656 91.847657c-3.785156 3.765625-3.785156 9.863281-.003906 13.628906 3.785156 3.761719 9.917968 3.761719 13.703124-.003906l4.164063-3.746094c-2.746094-3.765625-2.421875-9.058594.992187-12.453125zm0 0" fill="#a7a9ac"/><path d="m172.648438 280.257812c-16.167969-16.078124-40.378907-22.023437-64.765626-15.898437-2.421874.609375-4.171874 2.703125-4.335937 5.179687l-3.648437 55.316407 27.898437 27.746093 55.625-3.628906c2.492187-.164062 4.59375-1.902344 5.203125-4.308594 6.160156-24.253906.1875-48.332031-15.976562-64.40625zm0 0" fill="#9b5729"/><path d="m122.601562 298.664062 1.992188-30.1875c.183594-2.730468 2.109375-5.03125 4.773438-5.703124.828124-.207032 1.652343-.398438 2.476562-.582032-7.773438-.558594-15.855469.136719-23.960938 2.171875-2.421874.605469-4.171874 2.699219-4.335937 5.175781l-3.648437 55.316407 4.421874 4.398437zm0 0" fill="#7f441c"/><path d="m161.53125 316.964844c-2.109375-3.566406-6.707031-4.746094-10.273438-2.640625l-31.757812 18.773437 18.835938-31.515625c2.125-3.558593.964843-8.160156-2.589844-10.285156-3.558594-2.125-8.160156-.964844-10.289063 2.589844l-21.136719 35.367187 19.074219 18.964844 35.496094-20.980469c3.5625-2.109375 4.746094-6.707031 2.640625-10.273437zm0 0" fill="#602f0e"/><path d="m119.90625 371.15625c-2.007812 2-5.296875 2-7.304688 0l-31.359374-31.1875c-2.007813-2-2.007813-5.265625 0-7.265625l10.332031-10.273437c2.007812-2 5.292969-2 7.304687 0l31.359375 31.1875c2.007813 2 2.007813 5.269531 0 7.269531zm0 0" fill="#8a8c8e"/><path d="m93.722656 346.519531 11.5625-11.496093c1.257813-1.253907 2.964844-1.777344 4.621094-1.625l-11.027344-10.96875c-2.011718-2-5.296875-2-7.308594 0l-10.328124 10.273437c-2.011719 2-2.011719 5.265625 0 7.265625l10.808593 10.753906c-.035156-1.519531.515625-3.050781 1.671875-4.203125zm0 0" fill="#6d6e71"/><path d="m322.429688 316.921875c2.644531 0 5.128906 1.023437 6.992187 2.882813l17.585937 17.488281c2.792969.519531 5.667969.804687 8.609376.804687 2.414062 0 4.785156-.183594 7.097656-.539062l-25.582032-25.4375c-1.867187-1.855469-2.890624-4.324219-2.890624-6.949219 0-2.621094 1.027343-5.089844 2.890624-6.945313 1.871094-1.859374 4.351563-2.882812 6.992188-2.882812s5.125 1.023438 6.992188 2.882812l31.441406 31.265626c2.972656-2.121094 5.679687-4.582032 8.070312-7.324219l-17.800781-17.703125c-1.867187-1.855469-2.894531-4.324219-2.894531-6.949219 0-2.621094 1.027344-5.089844 2.894531-6.945313 1.867187-1.859374 4.351563-2.882812 6.992187-2.882812 2.640626 0 5.125 1.023438 6.996094 2.882812l13.511719 13.441407c1.03125-3.816407 1.585937-7.820313 1.585937-11.953125 0-25.429688-20.730468-46.042969-46.296874-46.042969-25.570313 0-46.296876 20.613281-46.296876 46.042969 0 9.722656 3.035157 18.734375 8.207032 26.164062 1.476562-.84375 3.152344-1.300781 4.902344-1.300781zm0 0" fill="#ff99a3"/><path d="m322.429688 316.921875c2.644531 0 5.128906 1.023437 6.992187 2.882813l17.585937 17.488281c2.792969.519531 5.667969.804687 8.609376.804687 2.410156 0 4.765624-.203125 7.074218-.558594l-2.410156-2.398437c-17.519531-6.558594-29.984375-23.367187-29.984375-43.085937 0-21.835938 15.292969-40.113282 35.808594-44.839844-3.371094-.777344-6.878907-1.199219-10.488281-1.199219-25.566407 0-46.296876 20.613281-46.296876 46.039063 0 9.722656 3.039063 18.734374 8.207032 26.167968 1.476562-.84375 3.152344-1.300781 4.902344-1.300781zm0 0" fill="#ff788c"/><path d="m468.785156 493.71875c-1.441406 0-2.878906-.542969-3.980468-1.636719l-36.214844-36.019531c-4.222656 1.152344-8.585938 1.734375-12.972656 1.734375-13.027344 0-25.273438-5.042969-34.480469-14.195313l-74.101563-73.699218c-2.058594-2.046875-3.191406-4.765625-3.191406-7.65625s1.132812-5.609375 3.191406-7.652344c2.054688-2.046875 4.789063-3.175781 7.699219-3.175781 2.902344 0 5.640625 1.125 7.695313 3.167969l41.996093 41.769531 6.296875-6.265625-55.992187-55.683594c-2.054688-2.046875-3.1875-4.761719-3.1875-7.65625s1.132812-5.609375 3.1875-7.65625c2.058593-2.046875 4.792969-3.171875 7.699219-3.171875 2.910156 0 5.644531 1.125 7.699218 3.171875l55.992188 55.683594 6.296875-6.265625-55.988281-55.683594c-2.058594-2.042969-3.1875-4.761719-3.1875-7.65625 0-2.890625 1.132812-5.609375 3.1875-7.65625 2.054687-2.042969 4.789062-3.171875 7.695312-3.171875 2.910156 0 5.640625 1.128906 7.699219 3.171875l55.992187 55.683594 6.300782-6.265625-41.996094-41.761719c-2.054688-2.046875-3.1875-4.765625-3.1875-7.65625s1.132812-5.609375 3.1875-7.65625c2.054687-2.042969 4.789062-3.171875 7.699218-3.171875 2.910157 0 5.644532 1.128906 7.699219 3.171875l53.851563 53.558594v-19.339844c0-7.511719 6.144531-13.617187 13.695312-13.621094 7.550782 0 13.691406 6.109375 13.691406 13.621094v48.5c6.988282 11.355469 8.957032 25.269531 5.398438 38.171875l36.183594 35.988281c1.0625 1.054688 1.660156 2.488281 1.660156 3.980469 0 1.496094-.597656 2.929688-1.660156 3.984375l-37.585938 37.378906c-1.09375 1.09375-2.535156 1.636719-3.96875 1.636719zm0 0" fill="#ffc987"/><path d="m434.746094 445.457031c-4.222656 1.148438-8.585938 1.730469-12.972656 1.730469-13.03125 0-25.273438-5.042969-34.480469-14.195312l-74.101563-73.695313c-1.855468-1.84375-2.949218-4.234375-3.148437-6.804687-1.101563.523437-2.121094 1.21875-3.007813 2.101562-2.058594 2.042969-3.191406 4.761719-3.191406 7.65625 0 2.890625 1.132812 5.609375 3.191406 7.65625l74.101563 73.695312c9.207031 9.152344 21.453125 14.195313 34.480469 14.195313 4.386718 0 8.75-.582031 12.972656-1.730469l36.214844 36.015625c1.101562 1.09375 2.539062 1.640625 3.980468 1.640625 1.433594 0 2.875-.546875 3.972656-1.640625l4.394532-4.371093zm0 0" fill="#ffaf68"/></svg>