<svg height="512" viewBox="0 0 64 64" width="512" xmlns="http://www.w3.org/2000/svg" xmlns:xlink="http://www.w3.org/1999/xlink"><linearGradient id="linear-gradient" gradientUnits="userSpaceOnUse" x1="32" x2="32" y1="-15.152" y2="4.539"><stop offset="0" stop-color="#4ac297"/><stop offset="1" stop-color="#0b9560"/></linearGradient><linearGradient id="linear-gradient-2" x1="28.881" x2="33.424" xlink:href="#linear-gradient" y1="-64.363" y2="80.685"/><linearGradient id="linear-gradient-3" gradientUnits="userSpaceOnUse" x1="-10.558" x2="287.96" y1="17.574" y2="141.304"><stop offset="0" stop-color="#f3f7ff"/><stop offset="1" stop-color="#cdd9ff"/></linearGradient><linearGradient id="linear-gradient-4" x1="-7.504" x2="44.923" xlink:href="#linear-gradient-3" y1="-12.582" y2="50.854"/><linearGradient id="linear-gradient-5" x1="32" x2="32" xlink:href="#linear-gradient-3" y1="5.585" y2="10.482"/><linearGradient id="linear-gradient-6" gradientUnits="userSpaceOnUse" x1="17.013" x2="37.11" y1="33.103" y2="55.821"><stop offset="0" stop-color="#fdc830"/><stop offset="1" stop-color="#f37335"/></linearGradient><linearGradient id="linear-gradient-7" x1="29.724" x2="45.309" xlink:href="#linear-gradient" y1="29.385" y2="29.385"/><linearGradient id="linear-gradient-8" x1="32" x2="32" xlink:href="#linear-gradient" y1="-32.073" y2="-6.698"/><linearGradient id="linear-gradient-9" x1="32" x2="32" xlink:href="#linear-gradient" y1="-32.466" y2="-7.09"/><linearGradient id="linear-gradient-10" x1="6.289" x2="6.289" xlink:href="#linear-gradient" y1="-31.813" y2="-6.609"/><linearGradient id="linear-gradient-11" x1="57.711" x2="57.711" xlink:href="#linear-gradient" y1="-31.813" y2="-6.609"/><g id="compass"><path d="m37.543 9.035a25.685 25.685 0 0 0 -11.086 0c-1.166.268-1.348-1.052-1.348-2.179a6.891 6.891 0 0 1 13.782 0c0 1.144-.181 2.444-1.348 2.179zm-5.543-2.607a27.6 27.6 0 0 1 4.876.434v-.006a4.876 4.876 0 0 0 -9.752.006 27.6 27.6 0 0 1 4.876-.434z" fill="url(#linear-gradient)"/><ellipse cx="32" cy="35.214" fill="url(#linear-gradient-2)" rx="29" ry="28.786"/><ellipse cx="32" cy="35.214" fill="url(#linear-gradient-3)" rx="26" ry="25.786"/><path d="m7 36.494a26.034 26.034 0 0 1 46.012-16.443 26.032 26.032 0 0 0 -47.012 15.163 25.543 25.543 0 0 0 5.988 16.443 25.5 25.5 0 0 1 -4.988-15.163z" fill="url(#linear-gradient-4)"/><ellipse cx="32" cy="35.214" fill="url(#linear-gradient-5)" rx="2.881" ry="2.853"/><path d="m18.823 47.288 7.53-13.472a1.008 1.008 0 0 1 1.863.707 3.694 3.694 0 0 0 3.677 4.549 3.992 3.992 0 0 0 1.094-.17 1 1 0 0 1 .8 1.821l-13.573 7.913a1 1 0 0 1 -1.391-1.348z" fill="url(#linear-gradient-6)"/><path d="m35.789 35.909a3.724 3.724 0 0 0 -4.756-4.38 1 1 0 0 1 -.811-1.816l13.564-7.921a1 1 0 0 1 1.391 1.348l-7.523 13.46a1.007 1.007 0 0 1 -1.865-.691z" fill="url(#linear-gradient-7)"/><path d="m32 6.428a30.706 30.706 0 0 0 -5.662.595l2.7 3.918v-.005c1.863 2.693 4.048 2.7 5.914 0v.005l2.7-3.918a32.077 32.077 0 0 0 -5.652-.595z" fill="url(#linear-gradient-8)"/><path d="m32 64a31.556 31.556 0 0 0 5.662-.6l-2.7-3.917c-1.863-2.693-4.048-2.7-5.914 0l-2.7 3.917a31.676 31.676 0 0 0 5.652.6z" fill="url(#linear-gradient-9)"/><path d="m3 35.216a30.032 30.032 0 0 0 .6 5.621l3.947-2.683c2.713-1.85 2.716-4.019 0-5.871l-3.947-2.683a31.756 31.756 0 0 0 -.6 5.616z" fill="url(#linear-gradient-10)"/><path d="m61 35.216a29.848 29.848 0 0 0 -.6-5.62l-3.947 2.683c-2.713 1.85-2.716 4.019 0 5.871l3.947 2.687a29.88 29.88 0 0 0 .6-5.621z" fill="url(#linear-gradient-11)"/></g></svg>