<svg height="496pt" viewBox="0 0 496 496" width="496pt" xmlns="http://www.w3.org/2000/svg"><path d="m488 248c0 132.546875-107.453125 240-240 240s-240-107.453125-240-240 107.453125-240 240-240 240 107.453125 240 240zm0 0" fill="#85d3c1"/><path d="m440 104c6.238281 0 11.601562 11.519531 14.238281 21.441406v.078125c1.121094 4.082031 1.761719 7.921875 1.761719 10.480469 0 8.800781-7.199219 16-16 16s-16-7.199219-16-16 7.199219-32 16-32zm0 0" fill="#f9d48a"/><path d="m248 415.199219c0-18.960938 11.199219-36.160157 28.480469-43.839844l43.519531-19.359375h8v72h-16c-8.800781 0-16.800781 3.601562-22.640625 9.359375-5.757813 5.839844-9.359375 13.839844-9.359375 22.640625 0 11.601562 6.160156 21.761719 15.441406 27.28125-15.28125 3.117188-31.203125 4.71875-47.441406 4.71875s-32.160156-1.601562-47.441406-4.71875c9.28125-5.519531 15.441406-15.679688 15.441406-27.28125 0-8.800781-3.601562-16.800781-9.359375-22.640625-5.839844-5.757813-13.839844-9.359375-22.640625-9.359375h-16v-72h8l43.519531 19.359375c17.28125 7.679687 28.480469 24.878906 28.480469 43.839844zm0 0" fill="#f9d48a"/><path d="m408 424v2.800781c-31.199219 28-69.839844 47.917969-112.558594 56.480469-9.28125-5.519531-15.441406-15.679688-15.441406-27.28125 0-8.800781 3.601562-16.800781 9.359375-22.640625 5.839844-5.757813 13.839844-9.359375 22.640625-9.359375zm0 0" fill="#f5f7fa"/><path d="m206.640625 433.359375c5.757813 5.839844 9.359375 13.839844 9.359375 22.640625 0 11.601562-6.160156 21.761719-15.441406 27.28125-42.71875-8.5625-81.359375-28.480469-112.558594-56.480469v-2.800781h96c8.800781 0 16.800781 3.601562 22.640625 9.359375zm0 0" fill="#f5f7fa"/><path d="m276.480469 371.359375c-17.28125 7.679687-28.480469 24.878906-28.480469 43.839844 0-18.960938-11.199219-36.160157-28.480469-43.839844l-43.519531-19.359375h-8v72h-80v-59.761719c0-21.4375 14.238281-40.316406 34.800781-46.160156l77.199219-22.078125 48 40 48-40 77.199219 22.078125c20.5625 5.84375 34.800781 24.722656 34.800781 46.160156v59.761719h-80v-72h-8zm0 0" fill="#ff958a"/><path d="m392 24v8c0 4.398438-3.601562 8-8 8h-272c-4.398438 0-8-3.601562-8-8v-16c0-4.398438 3.601562-8 8-8h272c4.398438 0 8 3.601562 8 8zm0 0" fill="#ff958a"/><path d="m136 92.320312c-10.480469-2.480468-16-4.320312-16-4.320312v-48h256v48s-5.519531 1.839844-16 4.320312c-20.320312 4.71875-59.199219 11.679688-112 11.679688s-91.679688-6.960938-112-11.679688zm0 0" fill="#ff958a"/><path d="m248 104c52.800781 0 91.679688-6.960938 112-11.679688v91.679688c0-8.800781-3.601562-16.800781-9.359375-22.640625-5.839844-5.757813-13.839844-9.359375-22.640625-9.359375v-16h-49.359375c-15.28125 0-30.320313-2.078125-44.960937-6.078125-14.558594-4.082031-28.558594-10.082031-41.679688-17.921875-14.320312 4.800781-24 18.160156-24 33.28125v6.71875c-17.679688 0-32 14.320312-32 32v-91.679688c20.320312 4.71875 59.199219 11.679688 112 11.679688zm0 0" fill="#f9d48a"/><g fill="#f5f7fa"><path d="m168 200v8c0 2.71875.160156 5.359375.398438 8h-.398438c-8.800781 0-16.800781-3.601562-22.640625-9.359375-5.757813-5.839844-9.359375-13.839844-9.359375-22.640625 0-17.679688 14.320312-32 32-32zm0 0"/><path d="m248 288c18 0 34.640625-6 48-16v24l-48 40-48-40v-24c28.640625 14.238281 38.160156 16 48 16zm0 0"/><path d="m350.640625 161.359375c5.757813 5.839844 9.359375 13.839844 9.359375 22.640625 0 17.679688-14.320312 32-32 32h-.398438c.238282-2.640625.398438-5.28125.398438-8v-56c8.800781 0 16.800781 3.601562 22.640625 9.359375zm0 0"/><path d="m272 200h56v8c0 2.71875-.160156 5.359375-.398438 8-2.242187 22.878906-14.160156 42.878906-31.601562 56-13.359375 10-30 16-48 16-9.839844 0-19.359375-1.761719-48-16-3.039062-2.320312-5.921875-4.800781-8.558594-7.441406-12.722656-12.71875-21.203125-29.679688-23.042968-48.558594-.238282-2.640625-.398438-5.28125-.398438-8v-8h56c4.398438 0 8-3.601562 8-8v-8h32v8c0 4.398438 3.601562 8 8 8zm0 0"/><path d="m328 160h-56c-4.398438 0-8 3.601562-8 8v16h-32v-16c0-4.398438-3.601562-8-8-8h-56v-14.71875c0-15.121094 9.679688-28.480469 24-33.28125 13.121094 7.839844 27.121094 13.839844 41.679688 17.921875 14.640624 4 29.679687 6.078125 44.960937 6.078125h49.359375zm0 0"/></g><path d="m328 160v40h-56c-4.398438 0-8-3.601562-8-8v-24c0-4.398438 3.601562-8 8-8zm0 0" fill="#f9d48a"/><path d="m232 184v8c0 4.398438-3.601562 8-8 8h-56v-40h56c4.398438 0 8 3.601562 8 8zm0 0" fill="#f9d48a"/><path d="m248 240c-8.824219 0-16-7.175781-16-16h-16c0 17.648438 14.351562 32 32 32s32-14.351562 32-32h-16c0 8.824219-7.175781 16-16 16zm0 0" fill="#232323"/><path d="m461.6875 122.34375c-2.472656-8.878906-6.96875-18.96875-13.6875-23.664062v-42.679688c0-22.054688-17.945312-40-40-40h-8c0-8.824219-7.175781-16-16-16h-272c-8.824219 0-16 7.175781-16 16v16c0 6.007812 3.367188 11.191406 8.28125 13.929688-65.527344 46.566406-104.28125 121.09375-104.28125 202.070312 0 136.742188 111.257812 248 248 248s248-111.257812 248-248c0-44.175781-11.878906-87.59375-34.3125-125.65625zm-21.6875-9.671875c3.433594 3.832031 8 16.71875 8 23.328125 0 4.40625-3.59375 8-8 8s-8-3.59375-8-8c0-6.609375 4.566406-19.488281 8-23.328125zm-32-80.671875c13.230469 0 24 10.769531 24 24v25.777344c-12.121094-13.441406-25.753906-25.273438-40.472656-35.746094 5.015625-2.703125 8.472656-7.941406 8.472656-14.03125zm-120 424c0-13.230469 10.769531-24 24-24h77.070312c-26.65625 20.480469-57.847656 35.3125-91.804687 42.679688-5.699219-4.511719-9.265625-11.304688-9.265625-18.679688zm112-40h-32v-64h-16v64h-16v-72h-17.695312l-45.046876 20.023438c-10.792968 4.792968-19.441406 12.816406-25.257812 22.5625-5.816406-9.753907-14.464844-17.769532-25.257812-22.5625l-45.046876-20.023438h-17.695312v72h-16v-64h-16v64h-32v-51.792969c0-17.765625 11.929688-33.582031 29.007812-38.464843l73.121094-20.886719 49.871094 41.558593 49.871094-41.558593 73.121094 20.886719c17.078124 4.882812 29.007812 20.699218 29.007812 38.464843zm-201.265625 58.679688c-33.957031-7.367188-65.160156-22.199219-91.804687-42.679688h77.070312c13.230469 0 24 10.769531 24 24 0 7.375-3.566406 14.167969-9.265625 18.679688zm89.265625-182.421876-40 33.328126-40-33.328126v-5.96875c12.015625 6.160157 25.59375 9.710938 40 9.710938s27.984375-3.550781 40-9.710938zm-40-12.257812c-39.695312 0-72-32.304688-72-72h48c8.824219 0 16-7.175781 16-16h16c0 8.824219 7.175781 16 16 16h48c0 39.695312-32.304688 72-72 72zm-104-96c0-10.414062 6.710938-19.214844 16-22.527344v45.046875c-9.289062-3.304687-16-12.105469-16-22.519531zm37.390625-75.816406c-12.894531 7.527344-21.175781 21.273437-21.351563 36.617187-5.960937 1.207031-11.351562 3.855469-16.039062 7.398438v-49.960938c9.910156 2.027344 22.433594 4.175781 37.390625 5.945313zm138.609375 83.816406h-48v-24h48zm0-40h-48c-8.824219 0-16 7.175781-16 16v8h-16v-8c0-8.824219-7.175781-16-16-16h-48v-6.703125c0-10.519531 6.039062-19.953125 15.335938-24.417969 26.585937 15.136719 56.679687 23.121094 87.3125 23.121094h41.351562zm-144 16h48v24h-48zm160-6.527344c9.289062 3.3125 16 12.113282 16 22.527344s-6.710938 19.214844-16 22.527344zm16-9.265625c-4.671875-3.535156-10.054688-6.183593-16-7.390625v-32.816406h-16v16h-41.351562c-25.359376 0-50.320313-6.023438-72.832032-17.496094 12.839844.929688 26.925782 1.496094 42.183594 1.496094 46.246094 0 81.742188-5.207031 104-9.761719zm-104-56.207031c-62.472656 0-105.414062-10.015625-120-14v-34h240v34c-14.585938 3.984375-57.527344 14-120 14zm-136-80h272v16h-272l-.007812-16zm-96 232c0-75.128906 35.625-144.34375 96-187.992188v33.753907l5.472656 1.824219c.519532.167968 4.144532 1.351562 10.527344 2.988281v85.425781c0 19.703125 14.351562 36.023438 33.425781 39.304688 3.703125 20.992187 14.789063 39.464843 30.574219 52.519531v14.136719l-71.382812 20.398437c-23.914063 6.832031-40.617188 28.976563-40.617188 53.847656v43.546875c-39.609375-41.640625-64-97.882812-64-159.753906zm201.34375 229.910156c4.222656-6.429687 6.65625-14 6.65625-21.910156 0-22.054688-17.945312-40-40-40h-8v-55.246094l40.246094 17.886719c14.425781 6.414063 23.753906 20.757813 23.753906 36.550781v40.808594h16v-40.808594c0-15.792968 9.328125-30.144531 23.753906-36.550781l40.246094-17.886719v55.246094h-8c-22.054688 0-40 17.945312-40 40 0 7.910156 2.433594 15.480469 6.65625 21.910156-10.039062 1.328125-20.257812 2.089844-30.65625 2.089844s-20.617188-.761719-30.65625-2.089844zm198.65625-70.15625v-43.546875c0-24.871093-16.703125-47.007812-40.617188-53.839843l-71.382812-20.398438v-14.136719c15.777344-13.046875 26.863281-31.511719 30.574219-52.496093 18.921875-3.160157 33.425781-19.535157 33.425781-39.335938v-85.414062c6.390625-1.640626 10.015625-2.824219 10.527344-2.992188l5.472656-1.824219v-33.503906c16.480469 11.957031 31.238281 26.015625 44.144531 41.964844-8.273437 9.457031-12.144531 27.089843-12.144531 33.769531 0 13.230469 10.769531 24 24 24 7.519531 0 14.160156-3.542969 18.558594-8.976562 14 30.34375 21.441406 63.410156 21.441406 96.976562 0 61.871094-24.390625 118.113281-64 159.753906zm0 0" fill="#232323"/></svg>