<svg id="fill" height="512" viewBox="0 0 64 64" width="512" xmlns="http://www.w3.org/2000/svg"><path d="m10 49v6c0 3.314 9.85 6 22 6s22-2.686 22-6v-6z" fill="#35d7fd"/><path d="m10 49v6c0 3.314 9.85 6 22 6s22-2.686 22-6v-6z" fill="#03b3e2"/><path d="m10 47v6c0 3.314 9.85 6 22 6s22-2.686 22-6v-6z" fill="#35d7fd"/><path d="m10 30v21c0 3.314 9.85 6 22 6s22-2.686 22-6v-21z" fill="#c6ec6b"/><rect fill="#bbf9ff" height="6" rx="2" width="4" x="8" y="41"/><path d="m10 41a1.905 1.905 0 0 0 -.263.027 1.972 1.972 0 0 1 .263.973v2a1.993 1.993 0 0 1 -1.737 1.973 1.993 1.993 0 0 0 3.737-.973v-2a2 2 0 0 0 -2-2z" fill="#35d7fd"/><path d="m42.379 18.621a.761.761 0 0 1 -.039-1.035l12.039-13.965a2.122 2.122 0 0 1 3 0 2.122 2.122 0 0 1 0 3l-13.965 12.039a.761.761 0 0 1 -1.035-.039z" fill="#ffd257"/><path d="m21.621 18.621a.761.761 0 0 0 .039-1.035l-12.039-13.965a2.122 2.122 0 0 0 -3 0 2.122 2.122 0 0 0 0 3l13.965 12.039a.761.761 0 0 0 1.035-.039z" fill="#ffd257"/><g fill="#895e7a"><path d="m31 13h2v4h-2z"/><path d="m35.379 15.5h4.243v2h-4.243z" transform="matrix(.707 -.707 .707 .707 -.684 31.349)"/><path d="m25.5 14.379h2v4.243h-2z" transform="matrix(.707 -.707 .707 .707 -3.906 23.571)"/></g><path d="m10.687 30h-.687v.515c.221-.183.453-.35.687-.515z" fill="#7dd491"/><path d="m43.313 30a10.995 10.995 0 0 1 -6.313 20h-20a10.955 10.955 0 0 1 -7-2.515v3.515c0 3.314 9.85 6 22 6s22-2.686 22-6v-21z" fill="#7dd491"/><path d="m10 30v4c0 3.314 9.85 6 22 6s22-2.686 22-6v-4z" fill="#bbf9ff"/><path d="m21 39h2v18h-2z" fill="#bbf9ff"/><path d="m21 49h2v8h-2z" fill="#35d7fd"/><path d="m41 39h2v18h-2z" fill="#bbf9ff"/><path d="m41 47h2v10h-2z" fill="#35d7fd"/><rect fill="#bbf9ff" height="6" rx="2" width="4" x="40" y="44"/><path d="m42 44a1.905 1.905 0 0 0 -.263.027 1.972 1.972 0 0 1 .263.973v2a1.993 1.993 0 0 1 -1.737 1.973 1.993 1.993 0 0 0 3.737-.973v-2a2 2 0 0 0 -2-2z" fill="#35d7fd"/><rect fill="#bbf9ff" height="6" rx="2" width="4" x="20" y="44"/><path d="m22 44a1.905 1.905 0 0 0 -.263.027 1.972 1.972 0 0 1 .263.973v2a1.993 1.993 0 0 1 -1.737 1.973 1.993 1.993 0 0 0 3.737-.973v-2a2 2 0 0 0 -2-2z" fill="#35d7fd"/><rect fill="#35d7fd" height="6" rx="2" width="4" x="52" y="41"/><path d="m54 41a1.905 1.905 0 0 0 -.263.027 1.972 1.972 0 0 1 .263.973v2a1.993 1.993 0 0 1 -1.737 1.973 1.993 1.993 0 0 0 3.737-.973v-2a2 2 0 0 0 -2-2z" fill="#03b3e2"/><path d="m48 30v8.116c3.717-1.075 6-2.522 6-4.116v-4z" fill="#35d7fd"/><path d="m14 32v5.448a28.58 28.58 0 0 0 4 1.18v-6.628z" fill="#fff"/><ellipse cx="32" cy="30" fill="#ffe8ae" rx="22" ry="6"/><path d="m32.166 24c5.926 1.076 9.834 2.913 9.834 5 0 3.314-9.85 6-22 6h-.166a69.556 69.556 0 0 0 12.166 1c12.15 0 22-2.686 22-6 0-3.3-9.761-5.974-21.834-6z" fill="#ffd257"/><path d="m14.875 45.438.834.417a1.583 1.583 0 0 0 2.291-1.416v-2.2a1.583 1.583 0 0 0 -1.182-1.529c-.27-.07-.534-.143-.791-.217a1.581 1.581 0 0 0 -2.027 1.52v2.009a1.585 1.585 0 0 0 .875 1.416z" fill="#fff"/><path d="m9 55c0 4.6 11.57 7 23 7s23-2.4 23-7v-7.184a3 3 0 0 0 2-2.816v-2a3 3 0 0 0 -2-2.816v-10.184c0-4.6-11.57-7-23-7s-23 2.4-23 7v10.184a3 3 0 0 0 -2 2.816v2a3 3 0 0 0 2 2.816zm23 5c-12.819 0-21-2.961-21-5v-.959c3.8 2.609 12.437 3.959 21 3.959s17.2-1.35 21-3.959v.959c0 2.039-8.181 5-21 5zm-10-15a1 1 0 0 1 1 1v2a1 1 0 0 1 -2 0v-2a1 1 0 0 1 1-1zm1 5.816a3 3 0 0 0 2-2.816v-2a3 3 0 0 0 -2-2.816v-2.7a76.733 76.733 0 0 0 9 .516 76.733 76.733 0 0 0 9-.517v2.7a3 3 0 0 0 -2 2.817v2a3 3 0 0 0 2 2.816v4.647a72.367 72.367 0 0 1 -9 .537 72.367 72.367 0 0 1 -9-.537zm19-1.816a1 1 0 0 1 -1-1v-2a1 1 0 0 1 2 0v2a1 1 0 0 1 -1 1zm1 6.174v-4.358a3 3 0 0 0 2-2.816v-2a3 3 0 0 0 -2-2.816v-2.973c4.268-.656 7.886-1.717 10-3.17v3.143a3 3 0 0 0 -2 2.816v2a3 3 0 0 0 2 2.816v3.184c0 1.368-3.7 3.149-10 4.174zm12-10.174a1 1 0 0 1 -2 0v-2a1 1 0 0 1 2 0zm-23-20c12.819 0 21 2.961 21 5s-8.181 5-21 5-21-2.961-21-5 8.181-5 21-5zm-21 8.041c3.8 2.609 12.437 3.959 21 3.959s17.2-1.35 21-3.959v.959c0 2.039-8.181 5-21 5s-21-2.961-21-5zm-2 9.959a1 1 0 0 1 2 0v2a1 1 0 0 1 -2 0zm2 4.816a3 3 0 0 0 2-2.816v-2a3 3 0 0 0 -2-2.816v-3.143c2.114 1.453 5.732 2.514 10 3.17v2.973a3 3 0 0 0 -2 2.816v2a3 3 0 0 0 2 2.816v4.358c-6.3-1.025-10-2.806-10-4.174z"/><path d="m58.086 2.914a3.138 3.138 0 0 0 -4.464.054l-12.039 13.965a1.762 1.762 0 0 0 2.484 2.484l14.019-12.089a3.125 3.125 0 0 0 0-4.414zm-1.36 2.95-11.526 9.936 9.886-11.472a1.124 1.124 0 0 1 1.64 1.536z"/><path d="m5.968 7.378 13.965 12.039a1.761 1.761 0 0 0 2.484-2.484l-12.089-14.019a3.12 3.12 0 1 0 -4.36 4.464zm1.36-3.049a1.153 1.153 0 0 1 .815-.336 1.022 1.022 0 0 1 .721.281l9.936 11.526-11.472-9.886a1.122 1.122 0 0 1 0-1.585z"/><path d="m31 13h2v4h-2z"/><path d="m35.379 15.5h4.243v2h-4.243z" transform="matrix(.707 -.707 .707 .707 -.684 31.349)"/><path d="m25.5 14.379h2v4.243h-2z" transform="matrix(.707 -.707 .707 .707 -3.906 23.571)"/></svg>