<svg id="icons" enable-background="new 0 0 64 64" height="512" viewBox="0 0 64 64" width="512" xmlns="http://www.w3.org/2000/svg"><g><g><path d="m31.52 1.031c1.09 0 1.98.891 1.98 1.98 0 .99-.721 1.801-1.65 1.961h-.66c-.939-.16-1.66-.971-1.66-1.961-.001-1.089.89-1.98 1.99-1.98z" fill="#edab37"/></g><g><path d="m44.516 27.953c-.553 0-1-.447-1-1s.447-1 1-1c3.852 0 6.984-3.133 6.984-6.984 0-.553.447-1 1-1s1 .447 1 1c0 4.955-4.031 8.984-8.984 8.984z" fill="#f6bb42"/></g><g><path d="m52.5 19.969c-.553 0-1-.447-1-1v-9.994c0-.553.447-1 1-1s1 .447 1 1v9.994c0 .552-.447 1-1 1z" fill="#f6bb42"/></g><g><path d="m52.5 9.975h-.002l-4.469-.004c-.551 0-.998-.447-.998-1s.447-1 1-1l4.469.004c.553 0 1 .449 1 1.002 0 .55-.449.998-1 .998z" fill="#f6bb42"/></g><g><path d="m44.516 27.953h-.68c-.553 0-1-.447-1-1s.447-1 1-1h.68c.553 0 1 .447 1 1s-.448 1-1 1z" fill="#f6bb42"/></g><g><path d="m19.484 27.953c-4.953 0-8.984-4.029-8.984-8.984 0-.553.447-1 1-1s1 .447 1 1c0 3.852 3.133 6.984 6.984 6.984.553 0 1 .447 1 1s-.447 1-1 1z" fill="#f6bb42"/></g><g><path d="m11.5 19.969c-.553 0-1-.447-1-1v-9.994c0-.553.447-1 1-1s1 .447 1 1v9.994c0 .552-.447 1-1 1z" fill="#f6bb42"/></g><g><path d="m11.5 9.975c-.551 0-1-.447-1-.998 0-.553.447-1.002 1-1.002l4.467-.004c.553 0 1 .447 1 1s-.447 1-.998 1l-4.467.004z" fill="#f6bb42"/></g><g><path d="m20.168 27.953h-.684c-.553 0-1-.447-1-1s.447-1 1-1h.684c.553 0 1 .447 1 1s-.447 1-1 1z" fill="#f6bb42"/></g><g><path d="m34.49 36.971 2.01 11.988h-10l2.01-11.988z" fill="#f6bb42"/></g><g><path d="m38.5 53.971v3c-.551 0-1 .439-1 1h-12c0-.561-.451-1-1-1v-3c.549 0 1-.451 1-1h12c0 .549.449 1 1 1z" fill="#ffce54"/></g><g><path d="m42.5 48.959v13.012h-22v-13.012h6 10zm-4 8.012v-3c-.551 0-1-.451-1-1h-12c0 .549-.451 1-1 1v3c.549 0 1 .439 1 1h12c0-.561.449-1 1-1z" fill="#656d78"/></g><g><path d="m31.52 4c.109 0 .221-.01.33-.029h13.65c1.66 0 3 1.34 3 3h-34c0-1.66 1.34-3 3-3h13.689c.11.019.221.029.331.029z" fill="#f6bb42"/></g><path d="m31.5 12.949c-4.961 0-9 4.031-9 9 0 1.432.34 2.791.939 4h3.561l4-4 4 4h4.559c.602-1.209.941-2.568.941-4 0-4.969-4.031-9-9-9z" fill="#edab37"/><g><path d="m35 19.471c.83 0 1.5.67 1.5 1.5 0 .818-.67 1.5-1.5 1.5s-1.5-.682-1.5-1.5c0-.83.67-1.5 1.5-1.5z" fill="#ffce54"/></g><g><path d="m35 25.949h-8l4-4z" fill="#ffce54"/></g><g><path d="m35 26.951c-.256 0-.512-.098-.707-.293l-5.996-5.994c-.391-.391-.391-1.023 0-1.414s1.023-.391 1.414 0l5.996 5.994c.391.391.391 1.023 0 1.414-.195.196-.451.293-.707.293z" fill="#ffce54"/></g><g><path d="m35 22.967c-1.104 0-2-.896-2-2s.896-2 2-2 2 .896 2 2-.896 2-2 2zm0-2.401c-.221 0-.4.18-.4.4s.18.4.4.4.4-.18.4-.4-.179-.4-.4-.4z" fill="#ffce54"/></g><g><path d="m26.008 23.953c-.256 0-.512-.098-.707-.293-.391-.391-.391-1.023 0-1.414l2.996-2.996c.391-.391 1.023-.391 1.414 0s.391 1.023 0 1.414l-2.996 2.996c-.195.195-.451.293-.707.293z" fill="#ffce54"/></g><g><path d="m27.002 26.951c-.256 0-.514-.098-.709-.293-.389-.391-.389-1.023.002-1.414l4-3.996c.391-.389 1.025-.391 1.416 0 .389.393.389 1.025-.002 1.416l-4 3.996c-.195.194-.451.291-.707.291z" fill="#ffce54"/></g><g><path d="m42.5 62.969h-22.002c-.553 0-1-.447-1-1v-13.006c0-.553.447-1 1-1h22.002c.553 0 1 .447 1 1v13.006c0 .552-.447 1-1 1zm-21.002-2h20.002v-11.006h-20.002z" fill="#656d78"/></g><g><path d="m35 25.949h4.559c-1.469 2.961-4.529 5-8.059 5-3.531 0-6.59-2.039-8.061-5h3.561z" fill="#f6bb42"/></g><path d="m21.709 24.959h19.457v.99h-19.457z" fill="#f6bb42"/><g><path d="m19.16 26.949-4.191-17.978-.469-2h34l-.471 2-4.189 17.978-2.34 10.022h-7.01-5.98-7.01zm20.399-1c.602-1.209.941-2.568.941-4 0-4.969-4.031-9-9-9-4.961 0-9 4.031-9 9 0 1.432.34 2.791.939 4 1.471 2.961 4.529 5 8.061 5 3.529 0 6.59-2.039 8.059-5z" fill="#ffce54"/></g></g></svg>