<svg id="Capa_1" enable-background="new 0 0 512 512" height="512" viewBox="0 0 512 512" width="512" xmlns="http://www.w3.org/2000/svg"><g><g><path d="m504.478 219.964c-.874-67.005-72.968-109.384-132.155-77.964-.868.461-1.738.916-2.612 1.366-55.755 28.746-119.146 3.243-144.438-46.469-17.558-34.512-52.54-56.669-91.261-56.669h-.181c-33.699 0-65.371 16.568-84.179 44.53-26.983 40.116-42.152 87.962-42.152 138.514 0 137.131 111.088 248.326 248.178 248.5 133.415.169 244.374-106.912 248.689-240.257.125-3.871.161-7.721.111-11.551zm-345.225-47.618c-10.419 28.519-37.692 44.761-60.915 36.277-23.224-8.484-33.604-38.482-23.185-67.001s37.692-44.761 60.915-36.277c23.224 8.484 33.604 38.481 23.185 67.001z" fill="#e3986d"/><path d="m37.5 223.272c0-50.552 15.169-98.398 42.152-138.514 15.991-23.773 41.282-39.303 69.21-43.424-4.868-.725-9.827-1.105-14.85-1.105h-.181c-33.699 0-65.371 16.568-84.179 44.53-26.983 40.115-42.152 87.961-42.152 138.513 0 137.13 111.088 248.326 248.178 248.499 5.114.007 10.191-.164 15.235-.468-130.211-7.8-233.413-115.861-233.413-248.031z" fill="#d97c40"/><circle cx="105.127" cy="298.625" fill="#ff71a7" r="37.129"/><circle cx="197.423" cy="371.547" fill="#00dcc3" r="37.129"/><circle cx="406.377" cy="298.625" fill="#a4e6ff" r="37.129"/><circle cx="314.082" cy="371.547" fill="#f9f097" r="37.129"/></g><g><path d="m138.317 98.163c-29.051-10.613-59.551 10.554-70.595 40.783-11.832 32.387.585 66.788 27.68 76.686 28.277 10.333 59.297-9.857 70.595-40.783 11.251-30.8.916-66.24-27.68-76.686zm13.578 71.534c-8.991 24.611-32.022 38.891-51.342 31.834-19.319-7.058-27.721-32.822-18.73-57.433 9.825-26.895 33.917-38.2 51.342-31.833 9.081 3.317 16.081 10.922 19.712 21.413 3.82 11.039 3.471 23.831-.982 36.019z"/><path d="m7.069 230.47c-4.138.242-7.298 3.793-7.056 7.931 7.883 135.005 120.082 240.893 255.432 241.065h.319c61.161 0 120.538-22.215 167.216-62.568 3.137-2.711 3.481-7.452.77-10.588s-7.452-3.481-10.588-.769c-43.954 37.998-99.837 58.913-157.398 58.913-.099 0-.202 0-.301 0-127.419-.162-233.043-99.84-240.464-226.927-.24-4.139-3.794-7.297-7.93-7.057z"/><path d="m368.683 135.27c-26.333 13.969-53.259 15.863-78.327 7.776-25.364-8.183-46.738-26.295-58.641-49.691-19.087-37.516-56.65-60.822-98.031-60.822h-.181c-36.488 0-70.312 17.901-90.481 47.885-25.349 37.687-40.212 81.624-42.98 127.063-.252 4.138 2.898 7.697 7.036 7.949 4.14.253 7.697-2.898 7.949-7.036 2.606-42.771 16.594-84.127 40.452-119.596 17.375-25.831 46.542-41.252 78.024-41.252h.181c35.702 0 68.138 20.162 84.65 52.616 13.702 26.932 38.273 47.771 67.412 57.171 28.588 9.223 59.714 7.261 89.975-8.803 25.583-13.582 55.814-12.828 80.868 2.016 24.908 14.757 40.002 40.732 40.377 69.483.808 62.081-22.377 120.675-62.932 165.182-2.792 3.064-2.572 7.812.493 10.604 3.071 2.799 7.819 2.564 10.604-.493 43.027-47.221 67.705-109.471 66.846-175.489-.444-34.027-18.289-64.758-47.736-82.204-29.593-17.532-65.316-18.413-95.558-2.359z"/><path d="m104.773 343.329c24.63 0 44.668-20.038 44.668-44.667 0-24.63-20.038-44.668-44.668-44.668s-44.668 20.038-44.668 44.668c.001 24.629 20.039 44.667 44.668 44.667zm0-74.322c16.352 0 29.654 13.303 29.654 29.655 0 16.351-13.303 29.654-29.654 29.654s-29.654-13.303-29.654-29.654c0-16.352 13.303-29.655 29.654-29.655z"/><path d="m197.149 326.98c-24.63 0-44.668 20.038-44.668 44.667 0 24.63 20.038 44.668 44.668 44.668s44.668-20.038 44.668-44.668c0-24.629-20.038-44.667-44.668-44.667zm0 74.323c-16.352 0-29.654-13.303-29.654-29.655s13.303-29.654 29.654-29.654 29.654 13.303 29.654 29.654-13.302 29.655-29.654 29.655z"/><path d="m450.953 298.662c0-24.63-20.038-44.668-44.668-44.668s-44.667 20.038-44.667 44.668c0 24.629 20.037 44.667 44.667 44.667s44.668-20.038 44.668-44.667zm-74.322 0c0-16.352 13.303-29.655 29.654-29.655 16.352 0 29.655 13.303 29.655 29.655 0 16.351-13.303 29.654-29.655 29.654-16.351 0-29.654-13.303-29.654-29.654z"/><path d="m269.242 371.648c0 24.63 20.038 44.668 44.668 44.668s44.667-20.038 44.667-44.668c0-24.629-20.037-44.667-44.667-44.667-24.63-.001-44.668 20.037-44.668 44.667zm44.668-29.654c16.352 0 29.654 13.303 29.654 29.654 0 16.352-13.303 29.655-29.654 29.655-16.352 0-29.654-13.303-29.654-29.655-.001-16.352 13.302-29.654 29.654-29.654z"/><path d="m184.828 226.299c-12.892 0-23.381 10.489-23.381 23.381 0 4.146 3.361 7.507 7.507 7.507s7.507-3.36 7.507-7.507c0-4.613 3.754-8.368 8.368-8.368s8.368 3.754 8.368 8.368c0 4.146 3.361 7.507 7.507 7.507s7.507-3.36 7.507-7.507c-.002-12.892-10.49-23.381-23.383-23.381z"/><path d="m318.359 249.68c0-4.613 3.754-8.368 8.368-8.368s8.368 3.754 8.368 8.368c0 4.146 3.361 7.507 7.507 7.507s7.507-3.36 7.507-7.507c0-12.892-10.489-23.381-23.381-23.381s-23.381 10.489-23.381 23.381c0 4.146 3.361 7.507 7.507 7.507 4.144-.001 7.505-3.361 7.505-7.507z"/><path d="m277.548 262.575c-3.125-2.724-7.867-2.398-10.591.727-2.823 3.239-6.898 5.096-11.18 5.096s-8.357-1.857-11.179-5.096c-2.724-3.126-7.465-3.451-10.591-.727s-3.451 7.465-.727 10.591c5.675 6.512 13.875 10.246 22.498 10.246s16.823-3.734 22.498-10.246c2.723-3.126 2.397-7.867-.728-10.591z"/></g></g></svg>