<svg height="512pt" viewBox="-31 0 512 512" width="512pt" xmlns="http://www.w3.org/2000/svg"><g fill-rule="evenodd"><path d="m209.4375 362.300781c0-23.746093 19.425781-43.171875 43.171875-43.171875 23.742187 0 43.171875 19.425782 43.171875 43.171875v58.207031h45.113281c12.042969 0 23.140625-2.75 32.984375-7.652343 25.601563-12.75 42.714844-40.035157 45.871094-71.199219l19.125-188.902344c6.339844-62.640625-36.433594-142.753906-114.476562-142.753906h-143.578126c-75.214843 0-117.707031 79.875-114.476562 142.753906l-25.839844 15.945313c-40.804687 25.183593-34.4375 77.75-16.847656 128.832031 23.992188 69.683594 67.398438 108.652344 107.683594 119.6875 8.035156 2.199219 15.949218 3.289062 23.558594 3.289062h54.539062zm0 0" fill="#fd4848"/><path d="m209.4375 420.507812h-54.539062c-7.609376 0-15.519532-1.089843-23.558594-3.289062v84.78125h78.097656zm0 0" fill="#808080"/><path d="m295.777344 420.507812v81.492188h78.097656v-89.144531c-9.84375 4.902343-20.941406 7.652343-32.984375 7.652343zm0 0" fill="#808080"/><path d="m295.777344 502v-139.699219c0-23.746093-19.425782-43.171875-43.167969-43.171875-23.746094 0-43.171875 19.425782-43.171875 43.171875v139.699219zm0 0" fill="#f9f9f9"/></g><path d="m411.097656 39.160156c-23.15625-25.617187-53.136718-39.160156-86.699218-39.160156h-143.578126c-29.003906 0-55.820312 11.015625-77.554687 31.855469-3.984375 3.820312-4.117187 10.152343-.296875 14.136719 3.824219 3.988281 10.152344 4.121093 14.140625.296874 17.9375-17.199218 39.964844-26.289062 63.710937-26.289062h143.578126c35.0625 0 58.433593 17.714844 71.863281 32.570312 23.328125 25.8125 36.148437 64.738282 32.664062 99.175782l-19.128906 188.902344c-4.097656 40.480468-33.078125 69.863281-68.90625 69.863281h-35.109375v-48.210938c0-29.320312-23.855469-53.171875-53.171875-53.171875-29.320313 0-53.171875 23.851563-53.171875 53.171875v48.207031h-44.539062c-40.699219 0-94.136719-35.9375-121.785157-116.230468-20.878906-60.640625-16.746093-98.933594 12.640625-117.066406l11.46875-7.078126 3.527344 68.6875c.28125 5.515626 4.992188 9.738282 10.5 9.472657 5.515625-.28125 9.757812-4.984375 9.472656-10.5l-4.382812-85.371094c-.003906-.125-.011719-.25-.019532-.375-.851562-17.066406 1.90625-35.359375 7.972657-52.914063 1.800781-5.21875-.96875-10.914062-6.1875-12.714843-5.222657-1.804688-10.914063.964843-12.71875 6.183593-6.21875 18.003907-9.371094 36.777344-9.210938 54.671876l-20.925781 12.914062c-21.628906 13.347656-33.421875 34.421875-35.050781 62.636719-1.242188 21.492187 3.339843 46.992187 14 77.960937 13.929687 40.445313 35.425781 74.035156 62.175781 97.144532 14.117188 12.199218 29.441406 21.207031 44.964844 26.625v77.445312c0 5.523438 4.476562 10 10 10h242.535156c5.523438 0 10-4.476562 10-10v-83.28125c24.882812-14.796875 42.40625-42.363281 45.820312-76.054688l19.125-188.902343c4.09375-40.417969-10.359374-84.328125-37.722656-114.601563zm-269.757812 390.34375c4.550781.660156 9.078125 1.003906 13.558594 1.003906h44.539062v61.492188h-58.097656zm78.097656-67.203125c0-18.289062 14.878906-33.171875 33.171875-33.171875 18.289063 0 33.171875 14.882813 33.171875 33.171875v129.699219h-66.34375zm144.4375 129.699219h-58.097656v-61.488281h35.113281c7.96875 0 15.664063-1.121094 22.984375-3.191407zm0 0"/><path d="m266.75 386.066406 7.722656-7.722656c3.90625-3.90625 3.90625-10.238281 0-14.140625-3.90625-3.90625-10.234375-3.90625-14.140625 0l-7.722656 7.722656-7.726563-7.726562c-3.90625-3.902344-10.234374-3.902344-14.140624 0-3.90625 3.90625-3.90625 10.238281 0 14.144531l7.722656 7.722656-7.722656 7.722656c-3.90625 3.90625-3.90625 10.238282 0 14.144532 1.953124 1.953125 4.511718 2.929687 7.070312 2.929687s5.117188-.976562 7.070312-2.929687l7.722657-7.722656 7.726562 7.722656c1.953125 1.953125 4.511719 2.929687 7.070313 2.929687s5.117187-.976562 7.070312-2.929687c3.90625-3.90625 3.90625-10.238282 0-14.144532zm0 0"/><path d="m266.75 454.464844 7.722656-7.722656c3.90625-3.90625 3.90625-10.238282 0-14.144532s-10.234375-3.90625-14.140625 0l-7.726562 7.722656-7.722657-7.722656c-3.90625-3.90625-10.234374-3.90625-14.144531 0-3.902343 3.90625-3.902343 10.238282 0 14.140625l7.726563 7.726563-7.726563 7.722656c-3.902343 3.90625-3.902343 10.238281 0 14.144531 1.953125 1.953125 4.515625 2.929688 7.074219 2.929688s5.117188-.976563 7.070312-2.929688l7.722657-7.726562 7.726562 7.726562c1.949219 1.953125 4.511719 2.929688 7.070313 2.929688s5.117187-.980469 7.070312-2.929688c3.90625-3.90625 3.90625-10.238281 0-14.144531zm0 0"/><path d="m374.871094 346.796875-.027344.234375c-.660156 5.484375 3.246094 10.464844 8.730469 11.125.40625.050781.8125.074219 1.210937.074219 4.988282 0 9.300782-3.726563 9.914063-8.804688l.027343-.234375c.660157-5.480468-3.246093-10.464844-8.730468-11.125-5.480469-.660156-10.464844 3.25-11.125 8.730469zm0 0"/><path d="m388.195312 329.464844c4.996094 0 9.316407-3.738282 9.917969-8.820313l4.835938-40.75c.652343-5.484375-3.265625-10.457031-8.75-11.109375-5.480469-.648437-10.457031 3.265625-11.109375 8.75l-4.835938 40.75c-.652344 5.484375 3.265625 10.457032 8.75 11.109375.402344.046875.800782.070313 1.191406.070313zm0 0"/><path d="m96.75 70c0 5.523438-4.480469 10-10 10-5.523438 0-10-4.476562-10-10s4.476562-10 10-10c5.519531 0 10 4.476562 10 10zm0 0"/></svg>