<?xml version="1.0" encoding="iso-8859-1"?>
<!-- Generator: Adobe Illustrator 19.0.0, SVG Export Plug-In . SVG Version: 6.00 Build 0)  -->
<svg version="1.1" id="Capa_1" xmlns="http://www.w3.org/2000/svg" xmlns:xlink="http://www.w3.org/1999/xlink" x="0px" y="0px"
	 viewBox="0 0 512 512" style="enable-background:new 0 0 512 512;" xml:space="preserve">
<path style="fill:#55ACE5;" d="M512,256c0,62.057-22.079,118.972-58.828,163.276c-12.863,15.517-27.523,29.497-43.656,41.608
	c-34.252,25.704-75.139,43.018-119.641,48.891C278.789,511.248,267.483,512,256,512c-11.483,0-22.789-0.752-33.876-2.226
	c-44.502-5.872-85.389-23.186-119.63-48.891c-16.144-12.11-30.804-26.081-43.666-41.608C22.079,374.972,0,318.056,0,256
	c0-58.525,19.644-112.473,52.694-155.596C99.485,39.361,173.14,0,256,0C397.385,0,512,114.615,512,256z"/>
<path style="fill:#F14881;" d="M293.282,100.404v318.872H58.828C22.079,374.972,0,318.056,0,256
	c0-37.585,8.098-73.289,22.653-105.441c8.108-17.91,18.223-34.722,30.041-50.155H293.282z"/>
<path style="fill:#CF3067;" d="M293.282,100.404v50.155H22.653c8.108-17.91,18.223-34.722,30.041-50.155H293.282z"/>
<path style="fill:#33384A;" d="M428.439,235.562v183.714H158.135V235.562c0-3.615,0.136-7.199,0.418-10.742
	c0.167-2.173,0.397-4.347,0.669-6.499c2.09-16.363,7.095-31.817,14.493-45.808c4.117-7.805,8.976-15.151,14.482-21.953
	c24.785-30.595,62.652-50.155,105.085-50.155c42.444,0,80.311,19.56,105.085,50.155c5.507,6.802,10.376,14.148,14.493,21.953
	c7.189,13.605,12.131,28.578,14.305,44.44c0.282,2.038,0.522,4.096,0.7,6.165C428.251,227.213,428.439,231.372,428.439,235.562z"/>
<path style="fill:#D5D4E2;" d="M289.876,445.21v64.564C278.789,511.248,267.483,512,256,512c-11.483,0-22.789-0.752-33.876-2.226
	V445.21H289.876z"/>
<path style="fill:#F2F2F2;" d="M450.111,184.174v162.105c0,7.45-2.424,14.346-6.531,19.916c-3.803,5.172-9.038,9.195-15.141,11.504
	c-0.481,0.188-0.972,0.366-1.463,0.522c-3.302,1.087-6.813,1.672-10.48,1.672H167.602c-3.281,0-6.457-0.47-9.467-1.358V235.562
	c0-5.841,0.366-11.588,1.087-17.241c3.25-25.485,13.584-48.755,28.975-67.762h228.3
	C435.054,150.559,450.111,165.606,450.111,184.174z"/>
<g>
	<path style="fill:#D5D4E2;" d="M443.58,366.195c-3.803,5.172-9.038,9.195-15.141,11.504c-0.481,0.188-0.972,0.366-1.463,0.522
		l-116.558-69.601l-18.369-10.971l-18.369,10.971l-115.545,68.984v-21.943l98.962-59.099l16.572-9.895h36.759l16.572,9.895
		l101.439,60.594L443.58,366.195z"/>
	<path style="fill:#D5D4E2;" d="M450.111,184.247v5.747c0,11.828-6.217,22.789-16.384,28.86l-5.862,4.263l-100.864,73.446
		l-16.436,11.975c-0.052,0.031-0.094,0.063-0.146,0.084c-11.327,6.698-25.412,6.698-36.739,0c-0.052-0.021-0.094-0.052-0.146-0.084
		l-16.436-11.975l-98.544-71.743c0.167-2.173,0.397-4.347,0.669-6.499c2.09-16.363,7.095-31.817,14.493-45.808h264.662
		C444.855,172.513,450.111,177.768,450.111,184.247z"/>
</g>
<g>
	<path style="fill:#F2F2F2;" d="M450.111,184.174c0,5.914-1.557,11.609-4.378,16.593c-2.821,4.974-6.917,9.226-12.006,12.267
		l-6.562,3.918l-116.6,69.632c-11.4,6.813-25.631,6.813-37.031,0l-114.312-68.263c3.25-25.485,13.584-48.755,28.975-67.762h228.3
		C435.064,150.559,450.111,165.606,450.111,184.174z"/>
	<path style="fill:#F2F2F2;" d="M453.172,419.276c-12.863,15.517-27.523,29.497-43.656,41.608H102.494
		c-16.144-12.11-30.804-26.081-43.666-41.608H453.172z"/>
</g>
<g>
	<path style="fill:#D5D4E2;" d="M229.042,150.559c-5.507,6.802-10.365,14.148-14.482,21.953
		c-7.398,13.991-12.403,29.445-14.493,45.808c-0.272,2.152-0.502,4.326-0.669,6.499c-0.282,3.542-0.418,7.126-0.418,10.742v144.332
		h-31.378c-3.281,0-6.457-0.47-9.467-1.358V235.562c0-5.841,0.366-11.588,1.087-17.241c3.25-25.485,13.584-48.755,28.975-67.762
		H229.042z"/>
	<path style="fill:#D5D4E2;" d="M235.248,440.08L235.248,440.08c0,11.49-9.314,20.804-20.804,20.804h-111.95
		c-16.144-12.11-30.804-26.081-43.666-41.608h155.617C225.934,419.276,235.248,428.59,235.248,440.08z"/>
</g>
<path style="fill:#CF3067;" d="M102.035,257.919c0-39.598-22.411-107.36-79.382-107.36l90.352-18.805l21.942,126.165H102.035z"/>
<path style="fill:#33384A;" d="M118.491,274.376L118.491,274.376c9.089,0,16.456-7.368,16.456-16.456V12.872h-32.912v245.047
	C102.035,267.008,109.403,274.376,118.491,274.376z"/>
<path style="fill:#F14881;" d="M122.078,58.092H17.735c-7.108,0-12.871-5.763-12.871-12.871V12.872
	c0-7.108,5.763-12.871,12.871-12.871h104.341c7.108,0,12.871,5.763,12.871,12.871v32.349
	C134.948,52.33,129.185,58.092,122.078,58.092z"/>
<g>
</g>
<g>
</g>
<g>
</g>
<g>
</g>
<g>
</g>
<g>
</g>
<g>
</g>
<g>
</g>
<g>
</g>
<g>
</g>
<g>
</g>
<g>
</g>
<g>
</g>
<g>
</g>
<g>
</g>
</svg>
