<?xml version="1.0" encoding="iso-8859-1"?>
<!-- Generator: Adobe Illustrator 19.0.0, SVG Export Plug-In . SVG Version: 6.00 Build 0)  -->
<svg version="1.1" id="Capa_1" xmlns="http://www.w3.org/2000/svg" xmlns:xlink="http://www.w3.org/1999/xlink" x="0px" y="0px"
	 viewBox="0 0 512 512" style="enable-background:new 0 0 512 512;" xml:space="preserve">
<circle style="fill:#55ACE5;" cx="256" cy="256" r="256"/>
<path style="fill:#F2F2F2;" d="M500.12,158.835v174.456C467.351,436.903,370.448,512,256,512S44.648,436.903,11.88,333.291V158.835
	c0-22.256,13.991-41.232,33.656-48.619c5.674-2.132,11.828-3.302,18.254-3.302h384.418c6.426,0,12.57,1.17,18.254,3.302
	C486.128,117.603,500.12,136.579,500.12,158.835z"/>
<g>
	<path style="fill:#D5D4E2;" d="M453.914,418.388c-6.301,7.67-13.04,14.963-20.177,21.849L256,334.085L78.252,440.236
		c-7.137-6.896-13.876-14.19-20.177-21.859l169.535-101.24h56.769L453.914,418.388z"/>
	<path style="fill:#D5D4E2;" d="M422.534,140.821H482c10.006,0,18.117,8.112,18.117,18.117v7.671
		c0,18.272-9.607,35.199-25.294,44.568l-209.045,150.97c-6.025,3.599-13.539,3.599-19.564,0L37.17,211.177
		c-15.688-9.369-25.294-26.296-25.294-44.568v-7.671c0-10.006,8.112-18.117,18.117-18.117H89.46"/>
</g>
<path style="fill:#F2F2F2;" d="M422.534,106.915h25.672c28.67,0,51.912,23.242,51.912,51.912l0,0
	c0,18.272-9.607,35.199-25.294,44.568L265.778,328.241c-6.025,3.599-13.539,3.599-19.564,0L37.17,203.396
	c-15.688-9.369-25.294-26.296-25.294-44.568l0,0c0-28.67,23.242-51.912,51.912-51.912H89.46"/>
<g>
</g>
<g>
</g>
<g>
</g>
<g>
</g>
<g>
</g>
<g>
</g>
<g>
</g>
<g>
</g>
<g>
</g>
<g>
</g>
<g>
</g>
<g>
</g>
<g>
</g>
<g>
</g>
<g>
</g>
</svg>
