<?xml version="1.0" encoding="iso-8859-1"?>
<!-- Generator: Adobe Illustrator 19.0.0, SVG Export Plug-In . SVG Version: 6.00 Build 0)  -->
<svg version="1.1" id="Capa_1" xmlns="http://www.w3.org/2000/svg" xmlns:xlink="http://www.w3.org/1999/xlink" x="0px" y="0px"
	 viewBox="0 0 512.002 512.002" style="enable-background:new 0 0 512.002 512.002;" xml:space="preserve">
<g>
	<circle style="fill:#FFC36C;" cx="259" cy="143.85" r="30"/>
	<path style="fill:#E1E6E9;" d="M289.001,143.847c0,16.569-13.432,30-30,30s-30-13.431-30-30c0-16.568,13.432-30,30-30
		S289.001,127.279,289.001,143.847L289.001,143.847z M424.001,45h-336v269.116l74-74c10.521-10.523,27.74-10.523,38.263,0
		l46.809,46.809l83.769-83.769c10.522-10.522,27.74-10.522,38.263,0l54.897,54.897L424.001,45L424.001,45z"/>
	<path style="fill:#4AD194;" d="M330.841,203.156l-83.769,83.769l-46.809-46.809c-10.522-10.523-27.741-10.523-38.263,0l-74,74V381
		h336V258.053l-54.897-54.897C358.581,192.634,341.363,192.634,330.841,203.156z"/>
	<path style="fill:#BCCBD3;" d="M424.001,258.053V381h-336v-66.884V45h336V258.053L424.001,258.053z M459.001,30c0-11-9-20-20-20
		h-366c-11,0-20,9-20,20v452.002c0,11,9,20,20,20h366c11,0,20-9,20-20V30z"/>
</g>
<path d="M439.001,0h-366c-16.542,0-30,13.458-30,30v452.002c0,16.542,13.458,30,30,30h366c16.542,0,30-13.458,30-30V30
	C469.001,13.458,455.543,0,439.001,0z M449.001,482.002c0,5.514-4.486,10-10,10h-366c-5.514,0-10-4.486-10-10V30
	c0-5.514,4.486-10,10-10h366c5.514,0,10,4.486,10,10V482.002z"/>
<path d="M434.001,381V45c0-5.523-4.477-10-10-10h-336c-5.523,0-10,4.477-10,10v336c0,0.003,0-0.003,0,0l0,0c0,5.523,4.477,10,10,10
	h336C429.524,391,434.001,386.523,434.001,381L434.001,381C434.001,380.997,434.001,381.003,434.001,381z M414.001,55v178.911
	l-37.827-37.826c-14.447-14.447-37.957-14.447-52.405,0l-76.697,76.698l-39.737-39.738c-6.978-6.978-16.284-10.821-26.203-10.821
	s-19.225,3.843-26.202,10.821l-56.929,56.929V55H414.001z M98.001,371v-52.742l71.071-71.072c3.2-3.2,7.483-4.962,12.06-4.962
	s8.86,1.762,12.061,4.963l46.809,46.809c1.875,1.875,4.419,2.929,7.071,2.929s5.196-1.054,7.071-2.929l83.768-83.769
	c6.651-6.649,17.472-6.65,24.121,0l51.969,51.969V371H98.001z"/>
<path d="M259.001,183.847c22.056,0,40-17.944,40-39.999c0-22.056-17.944-40-40-40s-40,17.944-40,40
	C219.001,165.903,236.945,183.847,259.001,183.847z M259.001,123.848c11.028,0,20,8.972,20,20c0,11.028-8.972,19.999-20,19.999
	s-20-8.972-20-19.999C239.001,132.82,247.973,123.848,259.001,123.848z"/>
<path d="M123.001,90h31.034c5.523,0,10-4.477,10-10s-4.477-10-10-10h-31.034c-5.523,0-10,4.477-10,10
	C113.001,85.523,117.478,90,123.001,90z"/>
<path d="M182.766,90h0.27c5.523,0,10-4.477,10-10s-4.477-10-10-10h-0.27c-5.523,0-10,4.477-10,10S177.243,90,182.766,90z"/>
<path d="M88.27,457.001h-0.269c-5.523,0-10,4.477-10,10s4.477,10,10,10h0.269c5.523,0,10-4.477,10-10S93.793,457.001,88.27,457.001z
	"/>
<path d="M424.001,457.002l-307-0.001c-5.523,0-10,4.477-10,10s4.477,10,10,10l307,0.001c5.523,0,10-4.477,10-10
	S429.524,457.002,424.001,457.002z"/>
<g>
</g>
<g>
</g>
<g>
</g>
<g>
</g>
<g>
</g>
<g>
</g>
<g>
</g>
<g>
</g>
<g>
</g>
<g>
</g>
<g>
</g>
<g>
</g>
<g>
</g>
<g>
</g>
<g>
</g>
</svg>
