<svg id="Capa_1" enable-background="new 0 0 512 512" height="512" viewBox="0 0 512 512" width="512" xmlns="http://www.w3.org/2000/svg"><path d="m161.629 260.67h33.019v146.244h-33.019z" fill="#d6e4ea" transform="matrix(.707 .707 -.707 .707 288.202 -28.198)"/><path d="m19.518 492.411c-16.805-16.805-15.891-44.319 1.991-59.972l118.471-103.703c5.374-4.704 13.475-4.435 18.525.615l24.073 24.073c5.05 5.05 5.319 13.151.615 18.525l-103.702 118.472c-15.654 17.882-43.168 18.795-59.973 1.99z" fill="#fba615"/><path d="m79.491 490.42 103.703-118.471c4.704-5.374 4.435-13.475-.615-18.525l-15.717-15.717-112.063 128.022c-11.53 13.172-29.492 17.125-44.873 11.583 1.982 5.5 5.166 10.673 9.592 15.099 16.805 16.805 44.319 15.892 59.973-1.991z" fill="#fa9801"/><ellipse cx="326.685" cy="185.245" fill="#c7eefb" rx="177.774" ry="177.774" transform="matrix(.707 -.707 .707 .707 -35.304 285.258)"/><ellipse cx="326.685" cy="185.245" fill="#97e4f9" rx="136.27" ry="136.27" transform="matrix(.707 -.707 .707 .707 -35.304 285.258)"/><path d="m423.043 88.887c-4.142-4.142-8.485-7.962-12.997-11.459 41.435 53.452 37.615 130.643-11.459 179.718-49.074 49.074-126.266 52.894-179.718 11.459 3.497 4.512 7.317 8.855 11.459 12.997 53.217 53.217 139.498 53.217 192.715 0 53.216-53.217 53.216-139.498 0-192.715z" fill="#62d8f9"/><path d="m158.506 329.351c-5.05-5.05-13.151-5.319-18.525-.615l-27.01 23.643 46.58 46.58 23.643-27.01c4.704-5.374 4.435-13.475-.615-18.525z" fill="#fcdd2e"/><path d="m183.194 371.949c4.704-5.374 4.435-13.475-.615-18.525l-15.717-15.717-32.003 36.56 24.692 24.692z" fill="#fbd307"/><path d="m396.43 126.105c2.93-2.929 2.93-7.677.001-10.606-18.63-18.63-43.399-28.89-69.746-28.89s-51.117 10.26-69.746 28.89c-2.929 2.929-2.929 7.677 0 10.606 2.928 2.929 7.677 2.929 10.606 0 15.796-15.797 36.8-24.496 59.14-24.496s43.343 8.699 59.139 24.496c2.928 2.928 7.677 2.93 10.606 0z"/><path d="m457.693 54.237c-72.24-72.238-189.78-72.237-262.016 0-67.035 67.034-71.61 171.78-15.887 243.949l-21.786 21.786c-7.399-3.526-16.487-2.547-22.963 3.121l-118.471 103.703c-21.123 18.49-22.206 51.067-2.354 70.918 19.88 19.881 52.427 18.77 70.918-2.354l103.703-118.471c5.67-6.476 6.648-15.564 3.122-22.963l21.786-21.786c72.099 55.668 176.856 51.206 243.95-15.887 72.402-72.404 72.412-189.602-.002-262.016zm-383.846 431.244c-12.76 14.578-35.221 15.432-49.026 1.628-13.669-13.669-13.091-36.143 1.628-49.026l86.181-75.438 36.656 36.655zm103.704-118.472-18.364 20.979-35.246-35.245 20.98-18.365c2.4-2.1 6.037-1.97 8.282.275l24.074 24.074c2.249 2.25 2.37 5.888.274 8.282zm4.665-24.554-12.742-12.742 19.985-19.985c3.963 4.358 8.115 8.535 12.742 12.742zm264.871-36.808c-62.957 62.957-162.366 66.129-229.003 10.752-.079-.068-.158-.137-.239-.201-7.842-6.541-15.114-13.722-22.112-22.112-.065-.082-.134-.161-.202-.24-55.333-66.585-52.248-166.002 10.753-229.003 66.388-66.387 174.412-66.392 240.804 0 66.542 66.541 66.551 174.254-.001 240.804z"/><path d="m308.714 312.763c-27.86-3.904-53.132-16.512-73.083-36.464-50.207-50.208-50.207-131.902 0-182.109 19.817-19.817 44.909-32.4 72.564-36.39 4.099-.592 6.943-4.394 6.351-8.494s-4.396-6.943-8.494-6.352c-30.884 4.456-58.903 18.505-81.027 40.63-56.056 56.055-56.056 147.265 0 203.321 22.275 22.274 50.495 36.352 81.607 40.711.354.05.704.074 1.051.074 3.68 0 6.892-2.711 7.418-6.46.573-4.101-2.286-7.892-6.387-8.467z"/><path d="m428.346 83.584c-23.086-23.086-52.392-37.304-84.746-41.116-4.106-.481-7.841 2.456-8.326 6.57-.485 4.113 2.457 7.841 6.57 8.325 28.973 3.414 55.218 16.149 75.896 36.827 50.207 50.207 50.207 131.901 0 182.109-20.68 20.68-46.926 33.414-75.904 36.827-4.114.485-7.055 4.212-6.571 8.325.449 3.816 3.688 6.623 7.438 6.623.293 0 .589-.017.887-.052 32.36-3.811 61.668-18.029 84.757-41.118 56.054-56.054 56.054-147.264-.001-203.32z"/></svg>