<?xml version="1.0" encoding="iso-8859-1"?>
<!-- Generator: Adobe Illustrator 19.0.0, SVG Export Plug-In . SVG Version: 6.00 Build 0)  -->
<svg version="1.1" id="Capa_1" xmlns="http://www.w3.org/2000/svg" xmlns:xlink="http://www.w3.org/1999/xlink" x="0px" y="0px"
	 viewBox="0 0 511.997 511.997" style="enable-background:new 0 0 511.997 511.997;" xml:space="preserve">
<circle style="fill:#5C5E70;" cx="255.998" cy="255.998" r="255.998"/>
<path style="fill:#FF525D;" d="M463.162,406.434c-6.426,8.829-13.396,17.23-20.866,25.151
	c-10.94,11.598-22.946,22.173-35.861,31.577l-37.094-37.094c-7.837-7.826-11.755-18.098-11.755-28.369
	c0-10.261,3.918-20.522,11.755-28.358c15.663-15.663,41.064-15.663,56.727,0L463.162,406.434z"/>
<path style="fill:#EF4152;" d="M406.43,463.165c8.829-6.426,17.23-13.396,25.151-20.866l-39.236-39.236
	c-11.567-11.567-14.587-28.442-9.059-42.788c-5.089,1.954-9.853,4.963-13.949,9.07c-7.837,7.826-11.745,18.098-11.745,28.369
	c0,10.261,3.908,20.522,11.745,28.358L406.43,463.165z"/>
<circle style="fill:#E8DBC4;" cx="198.853" cy="198.853" r="198.853"/>
<circle style="fill:#34ABE0;" cx="198.853" cy="198.853" r="159.91"/>
<path style="fill:#279FC9;" d="M245.368,311.922c62.447-62.447,62.447-163.695,0-226.142
	c-22.711-22.711-50.554-37.152-79.795-43.344c51.164-10.834,106.61,3.608,146.348,43.344c62.447,62.448,62.447,163.695,0,226.142
	c-39.737,39.737-95.183,54.18-146.348,43.344C194.814,349.074,222.657,334.633,245.368,311.922z"/>
<path style="fill:#FF525D;" d="M376.534,302.38l-74.156,74.156c-9.84,9.84-9.84,25.793,0,35.633l0,0c9.84,9.84,25.793,9.84,35.633,0
	l74.156-74.156c9.84-9.84,9.84-25.793,0-35.633l0,0C402.327,292.54,386.374,292.54,376.534,302.38z"/>
<path style="fill:#EF4152;" d="M332.767,381.781L332.767,381.781c-9.84-9.84-9.84-25.793,0-35.633l-30.389,30.389
	c-9.84,9.84-9.84,25.793,0,35.633l0,0c9.84,9.84,25.793,9.84,35.633,0l30.389-30.389
	C358.561,391.621,342.607,391.621,332.767,381.781z"/>
<g>
</g>
<g>
</g>
<g>
</g>
<g>
</g>
<g>
</g>
<g>
</g>
<g>
</g>
<g>
</g>
<g>
</g>
<g>
</g>
<g>
</g>
<g>
</g>
<g>
</g>
<g>
</g>
<g>
</g>
</svg>
