<svg id="Capa_1" enable-background="new 0 0 512 512" height="512" viewBox="0 0 512 512" width="512" xmlns="http://www.w3.org/2000/svg"><g><g><path d="m502 305.752h-52.857c-7.864-8.215-18.935-13.324-31.207-13.324s-23.343 5.109-31.207 13.324h-243.575c-7.864-8.215-18.935-13.324-31.207-13.324s-23.342 5.109-31.207 13.324h-70.74c7.521-41.955 44.405-74.692 85.967-80.607l68.105-2.505h303.465s34.463 46.065 34.463 83.112z" fill="#ffa76b"/></g><g><path d="m164.071 222.635s24.035-89.551 88.035-89.551h128.428c6.415 0 12.645 1.969 17.765 5.602 12.661 8.985 37.917 40.257 69.238 83.948h-303.466z" fill="#f9f5f3"/></g><g><circle cx="111.946" cy="335.674" fill="#9da5be" r="43.241"/></g><g><circle cx="417.936" cy="335.674" fill="#9da5be" r="43.241"/></g><g><path d="m80.739 305.752c-7.454 7.764-12.032 18.314-12.032 29.925 0 3.526.421 6.953 1.222 10.239h-43.95c-8.826 0-15.979-7.153-15.979-15.979v-24.184h70.739z" fill="#ffa76b"/></g><g><path d="m386.729 305.752c-7.454 7.764-12.032 18.314-12.032 29.925 0 3.526.421 6.953 1.222 10.239h-221.956c.802-3.286 1.222-6.712 1.222-10.239 0-11.611-4.578-22.161-12.032-29.925z" fill="#ffa76b"/></g><g><path d="m502 305.752v24.184c0 8.826-7.153 15.979-15.979 15.979h-26.068c.801-3.286 1.222-6.712 1.222-10.239 0-11.611-4.578-22.161-12.032-29.925h52.857z" fill="#ffa76b"/></g><g><path d="m79.562 253.726c-1.349 12.094-11.254 21.727-23.378 22.774-2.54.219-5.012.07-7.369-.4-12.069-2.407-15.987-17.769-6.794-25.95 5.403-4.809 11.316-9.046 17.64-12.63 8.13-4.607 18.427.202 19.789 9.448.321 2.176.37 4.441.112 6.758z" fill="#f9f5f3"/></g><g><path d="m500.772 260.35c-.019-.046-.041-.091-.061-.138-10.048-22.88-23.404-41.186-25.045-43.398-.001-.002-.002-.003-.003-.005-9.848-13.738-19.045-26.173-27.334-36.961-3.366-4.38-9.646-5.2-14.022-1.836-4.38 3.365-5.202 9.643-1.837 14.022 4.85 6.31 10.02 13.201 15.457 20.601h-99.215v-69.551h31.821c3.268 0 6.041.118 8.769-2.019 2.385-1.869 3.818-4.781 3.836-7.812.043-7.258-6.314-10.169-12.605-10.169h-128.428c-29.792 0-56.243 17.107-76.494 49.471-9.912 15.841-15.998 31.553-18.977 40.352l-61.033 2.244c-11.918.434-24.918 5.532-35.468 10.772-11.028 5.477-21.143 12.772-29.816 21.512-8.702 8.769-15.936 18.98-21.308 30.106-3.947 8.175-9.009 18.941-9.009 28.211v24.184c0 14.325 11.654 25.979 25.979 25.979h36.733c7.983 19.345 27.04 33 49.233 33s41.25-13.654 49.234-33h32.573 101.014 73.938c7.983 19.345 27.04 33 49.233 33s41.25-13.654 49.233-33h18.851c14.325 0 25.979-11.654 25.979-25.979v-24.184c0-15.036-4.963-31.105-11.228-45.402zm-47.608 35.402c-8.364-7.422-18.679-11.928-29.781-13.043-3.572-.425-7.322-.425-10.894 0-11.101 1.115-21.417 5.621-29.781 13.043h-34.048c.027-.801.051-1.603.051-2.407v-60.705h113.647c3.025 4.419 8.072 12.157 13.152 21.556h-7.975c-5.522 0-10 4.477-10 10s4.478 10 10 10h17.383c2.794 7.09 5.052 14.428 6.217 21.556zm-272.852-23.391c-4.024-4.21-6.24-9.866-6.24-15.927l-.001-23.794h154.642v60.705c0 .806-.024 1.608-.062 2.407h-132.993c-3.513-8.095-8.443-16.168-15.346-23.391zm71.793-129.277h76.606v69.551h-150.675c8.903-23.03 32.09-69.551 74.069-69.551zm-182.481 109.534c-.815 7.301-6.963 13.286-14.301 13.919-4.683.404-12.403-3.801-6.653-8.917 4.878-4.341 10.234-8.177 15.921-11.399 4.708-2.665 5.34 3.636 5.033 6.397zm-37.384 24.278c10.32 13.256 30.833 11.849 43.24 2.478 12.084-9.127 19.078-28.167 10.975-42.095 3.402-.906 6.875-1.637 10.416-2.161l57.198-2.104.001 23.42c0 11.232 4.185 21.796 11.783 29.746 2.861 2.994 5.269 6.225 7.312 9.572h-25.992c-8.366-7.424-18.684-11.931-29.789-13.044-3.65-.228-7.244-.409-10.894.002-11.098 1.116-21.411 5.622-29.772 13.042h-53.649c2.348-6.693 5.444-13.003 9.171-18.856zm26.468 59.02h-32.729c-3.297 0-5.979-2.683-5.979-5.979v-14.184h42.555c-2.559 6.344-3.942 13.313-3.847 20.163zm53.237 33c-18.08 0-33.238-15.161-33.238-33.238 0-18.074 15.121-33.245 33.238-33.245 17.622 0 32.519 14.384 33.209 31.95.706 18.564-14.614 34.533-33.209 34.533zm53.24-33.151c.027-6.817-1.297-13.691-3.847-20.012h19.971c1.908 7.704 2.548 14.873 2.7 20.164h-18.824c0-.051 0-.102 0-.152zm38.86.151c-.121-5.426-.666-12.444-2.208-20.164h121.564c-1.498 2.924-3.292 5.673-5.375 8.186-6.679 8.06-14.287 11.978-23.26 11.978zm160.653 0h-30.653c4.805-5.989 8.511-12.823 10.993-20.164h23.506c-2.564 6.359-3.912 13.304-3.846 20.164zm53.239 33c-18.08 0-33.239-15.154-33.239-33.238 0-18.07 15.13-33.245 33.239-33.245 18.108 0 33.239 15.174 33.239 33.245 0 18.083-15.16 33.238-33.239 33.238zm74.063-38.979c0 3.297-2.683 5.979-5.979 5.979h-14.846c.067-6.86-1.282-13.805-3.847-20.164h24.672z"/><path d="m292.957 254.196h-20.832c-5.522 0-10 4.477-10 10s4.478 10 10 10h20.832c5.522 0 10-4.477 10-10s-4.478-10-10-10z"/><path d="m406.78 159.79c4.893 11.935 23.401 4.263 18.46-7.65-2.087-5.031-8.018-7.492-13.051-5.41-4.975 2.059-7.58 8.064-5.409 13.06z"/></g></g></svg>