<svg id="Layer_1_1_" enable-background="new 0 0 64 64" height="512" viewBox="0 0 64 64" width="512" xmlns="http://www.w3.org/2000/svg"><path d="m15 32h12c2.761 0 5-2.239 5-5v-3.067c0-4.933-3.955-11.933-5.133-11.933h-11.734c-1.178 0-5.133 7-5.133 11.933v3.067c0 2.761 2.239 5 5 5z" fill="#febe07"/><path d="m28.77 4.281-2.09 1.045c-.317.159-.702.068-.915-.216l-1.325-1.767c-.268-.357-.79-.394-1.105-.079l-1.738 1.738c-.316.316-.837.279-1.105-.079l-1.185-1.58c-.268-.357-.79-.394-1.105-.079l-2.03 2.03c-.188.188-.464.26-.72.187l-3.035-.867c-.625-.178-1.157.486-.845 1.057l3.428 6.329h12l2.775-6.781c.262-.627-.397-1.241-1.005-.938z" fill="#febe07"/><path d="m27 32c2.761 0 5-2.239 5-5v-3.067c0-4.933-3.955-11.933-5.133-11.933h-11.734c-.668 0 6.36.431 9.867 6 2.677 4.251 2 14 2 14z" fill="#b18300"/><path d="m28.77 4.281-1.414.707c-2.747 2.756-6.199 4.722-9.994 5.671l-2.72.68.358.661h12l2.775-6.781c.262-.627-.397-1.241-1.005-.938z" fill="#b18300"/><path d="m35 4h10v28h-10z" fill="#5aa2ff"/><path d="m45 16-4 4-4 4h2v8h6z" fill="#2b67b3"/><path d="m29.3 16h-3.3v16h9v-16z" fill="#5aa2ff"/><path d="m47 27h4v5h-4z" fill="#5aa2ff"/><path d="m57.707 30c-1.046 0-2.003.591-2.471 1.527l-.236.473-3 6-7 3c0-2.209-1.791-4-4-4h-14.398c-5.595 0-11.05 1.748-15.602 5v15h23.606c4.832 0 9.566-1.358 13.663-3.919 6.195-3.871 10.456-10.188 11.725-17.381l.434-2.458c.298-1.691-1.003-3.242-2.721-3.242z" fill="#ffe5cf"/><path d="m55 24h-12v8h4v-5h4v5h4z" fill="#cbe6fe"/><path d="m10 37h-6c-.552 0-1 .448-1 1v22c0 .552.448 1 1 1h6c.552 0 1-.448 1-1v-22c0-.552-.448-1-1-1z" fill="#2b67b3"/><path d="m57 24-8-8-4 4-4 4z" fill="#b18300"/><path d="m32 16h3v16h-3z" fill="#2b67b3"/><path d="m4 62h6c1.103 0 2-.897 2-2v-2h22.606c5.024 0 9.933-1.408 14.193-4.07 6.423-4.015 10.862-10.596 12.179-18.056l.434-2.458c.194-1.098-.105-2.218-.822-3.072s-1.768-1.344-2.883-1.344c-.609 0-1.189.151-1.707.415v-4.415h1c.404 0 .77-.244.924-.617.155-.374.069-.804-.217-1.09l-8-8c-.391-.391-1.023-.391-1.414 0l-2.293 2.293v-13.586c0-.552-.447-1-1-1h-10c-.553 0-1 .448-1 1v11h-4.052c-.761-1.674-1.324-2.653-1.776-3.221l2.527-6.176c.281-.675.117-1.434-.418-1.933-.535-.5-1.304-.609-1.957-.283l-1.891.945-1.191-1.588c-.301-.402-.761-.654-1.262-.69-.502-.037-.993.146-1.352.503l-1.521 1.52-.999-1.333c-.302-.403-.762-.654-1.264-.69-.501-.037-.994.147-1.35.503l-1.919 1.919-2.884-.824c-.677-.194-1.392.036-1.829.583-.438.547-.505 1.298-.17 1.911l3.024 5.583c-2.123 1.918-4.716 7.307-4.716 12.204v3.067c0 3.309 2.691 6 6 6h11 9 8 10.382l-2.112 4.225-5.499 2.357c-.617-2.063-2.51-3.582-4.771-3.582h-14.397c-5.204 0-10.211 1.434-14.603 4.146v-2.146c0-1.103-.897-2-2-2h-6c-1.103 0-2 .897-2 2v22c0 1.103.897 2 2 2zm11.177-55.557c.605.173 1.258.005 1.702-.441l1.813-1.813 1 1.335c.303.402.764.654 1.266.689.508.033.992-.149 1.347-.504l1.521-1.52 1.141 1.52c.501.672 1.409.888 2.162.512l1.455-.728-2.256 5.507h-2.71l1.276-2.553-1.789-.895-1.723 3.448h-1.753l-1.394-2.9-1.803.867.977 2.033h-1.814l-2.843-5.25zm9.823 9.557v15h-10c-2.206 0-4-1.794-4-4v-3.067c0-5.353 3.313-10.345 4.261-10.933h11.327c.162.196.529.722 1.15 2h-1.738c-.553 0-1 .448-1 1zm2 1h7v14h-7zm22 .414 5.586 5.586h-11.172zm-13-12.414h8v14.586l-3.707 3.707c-.286.286-.372.716-.217 1.09.154.373.52.617.924.617h1v6h-6zm8 20h10v6h-2v-4c0-.552-.447-1-1-1h-4c-.553 0-1 .448-1 1v4h-2zm6 6h-2v-3h2zm-23.397 7h14.397c1.654 0 3 1.346 3 3s-1.346 3-3 3h-16v2h16c2.521 0 4.591-1.882 4.93-4.311l6.463-2.77c.218-.093.396-.26.501-.472l3.236-6.473c.302-.601.905-.974 1.577-.974.522 0 1.015.229 1.351.63s.477.925.386 1.439l-.434 2.458c-1.219 6.903-5.326 12.992-11.271 16.707-3.942 2.464-8.483 3.766-13.133 3.766h-22.606v-13.462c4.319-2.962 9.353-4.538 14.603-4.538zm-22.603 0h6l.001 22h-6.001z"/><path d="m6 41h2v3h-2z"/><path d="m38 7h1v2h-1z"/><path d="m41 7h1v2h-1z"/><path d="m38 11h1v2h-1z"/><path d="m41 11h1v2h-1z"/><path d="m38 15h1v2h-1z"/><path d="m41 15h1v2h-1z"/><path d="m29 19h1v2h-1z"/><path d="m32 19h1v2h-1z"/><path d="m29 23h1v2h-1z"/><path d="m32 23h1v2h-1z"/><path d="m29 27h1v2h-1z"/><path d="m32 27h1v2h-1z"/><path d="m38 19h1v2h-1z"/><path d="m41 19h1v2h-1z"/><path d="m22 18h-1v-1h-2v1h-1c-.553 0-1 .448-1 1v3c0 .552.447 1 1 1h3v1h-4v1c0 .552.447 1 1 1h1v1h2v-1h1c.553 0 1-.448 1-1v-3c0-.552-.447-1-1-1h-3v-1h4v-1c0-.552-.447-1-1-1z"/><path d="m53 4h2v2h-2z"/><path d="m55 2h2v2h-2z"/><path d="m57 4h2v2h-2z"/><path d="m55 6h2v2h-2z"/><path d="m60 9h2v2h-2z"/><path d="m53 12h2v2h-2z"/><path d="m2 11h2v2h-2z"/><path d="m4 9h2v2h-2z"/><path d="m6 11h2v2h-2z"/><path d="m4 13h2v2h-2z"/><path d="m2 19h2v2h-2z"/><path d="m6 2h2v2h-2z"/></svg>