<svg height="512" viewBox="0 0 60 59" width="512" xmlns="http://www.w3.org/2000/svg"><g id="Page-1" fill="none" fill-rule="evenodd"><g id="010---Chat" fill-rule="nonzero"><path id="Shape" d="m45 5v26c0 2.209139-1.790861 4-4 4h-22l-4 2.91-5.41 3.93c-.30293806.221384-.70431164.2545589-1.03948674.0859174-.33517509-.1686416-.54774296-.5107179-.55051326-.8859174v-6.04h-3c-2.209139 0-4-1.790861-4-4v-26c0-2.209139 1.790861-4 4-4h36c2.209139 0 4 1.790861 4 4z" fill="#e8edfc"/><path id="Shape" d="m12 37.91-4 2.906v.224c.0027703.3751995.21533817.7172758.55051326.8859174.3351751.1686415.73654868.1354666 1.03948674-.0859174l5.41-3.93 4-2.91h-3z" fill="#cad9fc"/><path id="Shape" d="m41 1h-3c2.209139 0 4 1.790861 4 4v26c0 2.209139-1.790861 4-4 4h3c2.209139 0 4-1.790861 4-4v-26c0-2.209139-1.790861-4-4-4z" fill="#cad9fc"/><path id="Shape" d="m59 21v25.96c0 2.209139-1.790861 4-4 4h-3v6.04c.0009799.3769993-.2101485.7225085-.5460708.8936387-.3359224.1711303-.7395387.1387929-1.0439292-.0836387l-9.41-6.85h-22c-2.209139 0-4-1.790861-4-4v-9.05l4-2.91h22c2.209139 0 4-1.790861 4-4v-14h10c2.209139 0 4 1.790861 4 4z" fill="#a4c2f7"/><path id="Shape" d="m55 17h-3c2.209139 0 4 1.790861 4 4v25.96c0 2.209139-1.790861 4-4 4h3c2.209139 0 4-1.790861 4-4v-25.96c0-2.209139-1.790861-4-4-4z" fill="#7facfa"/><path id="Shape" d="m49 56.784 1.41 1.026c.3043905.2224316.7080068.254769 1.0439292.0836387.3359223-.1711302.5470507-.5166394.5460708-.8936387l.0000034-6.04h-3.0000034z" fill="#7facfa"/><path id="Shape" d="m5 35h3c-2.209139 0-4-1.790861-4-4v-26c0-2.209139 1.790861-4 4-4h-3c-2.209139 0-4 1.790861-4 4v26c0 2.209139 1.790861 4 4 4z" fill="#fff"/><path id="Shape" d="m9.59 41.84 1.41-1.024v-5.816h-3v6.04c.0027703.3751995.21533817.7172758.55051326.8859174.3351751.1686415.73654868.1354666 1.03948674-.0859174z" fill="#fff"/><path id="Rectangle-path" d="m0 10h2v8h-2z" fill="#fff"/><g fill="#428dff"><circle id="Oval" cx="1" cy="14" r="1"/><path id="Shape" d="m5 36h2v5.036c.0002714.7520434.42239452 1.4403649 1.09257707 1.7815756s1.47512438.277626 2.08342293-.1645756l9.149-6.653h21.675c2.7600532-.0033061 4.9966939-2.2399468 5-5v-26c-.0033061-2.76005315-2.2399468-4.99669388-5-5h-36c-2.76005315.00330612-4.99669388 2.23994685-5 5v5c0 .5522847.44771525 1 1 1s1-.4477153 1-1v-5c0-1.65685425 1.34314575-3 3-3h36c1.6568542 0 3 1.34314575 3 3v26c0 1.6568542-1.3431458 3-3 3h-22c-.2112545-.0000404-.4170951.0668228-.588.191l-9.412 6.845v-6.036c0-.5522847-.44771525-1-1-1h-3c-1.65685425 0-3-1.3431458-3-3v-13c0-.5522847-.44771525-1-1-1s-1 .4477153-1 1v13c.00330612 2.7600532 2.23994685 4.9966939 5 5z"/><path id="Shape" d="m49 18h6c1.6568542 0 3 1.3431458 3 3v25.962c0 1.6568542-1.3431458 3-3 3h-3c-.5522847 0-1 .4477153-1 1v6.038l-9.412-6.846c-.1707834-.1245332-.3766344-.1917499-.588-.192h-22c-1.6568542 0-3-1.3431458-3-3v-3.962c0-.5522847-.4477153-1-1-1s-1 .4477153-1 1v3.962c.0033061 2.7600532 2.2399468 4.9966939 5 5h21.675l9.149 6.654c.608153.4420962 1.4128701.5057645 2.0829778.1648029s1.0923751-1.0289394 1.0930222-1.7808029v-5.038h2c2.7600532-.0033061 4.9966939-2.2399468 5-5v-25.962c-.0033061-2.7600532-2.2399468-4.9966939-5-5h-6c-.5522847 0-1 .4477153-1 1s.4477153 1 1 1z"/><path id="Shape" d="m18 22.935c0-.5522847-.4477153-1-1-1s-1 .4477153-1 1c0 3.005 2.614 5.493 6 5.91v1.155c0 .5522847.4477153 1 1 1s1-.4477153 1-1v-1.155c3.386-.417 6-2.9 6-5.91s-2.614-5.494-6-5.91v-7.944c2.279.369 4 1.976 4 3.9 0 .5522847.4477153 1 1 1s1-.4477153 1-1c0-3.006-2.614-5.493-6-5.91v-1.071c0-.55228475-.4477153-1-1-1s-1 .44771525-1 1v1.068c-3.386.417-6 2.9-6 5.91s2.614 5.494 6 5.91v7.945c-2.279-.37-4-1.977-4-3.898zm10 0c0 1.921-1.721 3.528-4 3.9v-7.8c2.279.372 4 1.979 4 3.9zm-10-9.957c0-1.921 1.721-3.528 4-3.9v7.8c-2.279-.372-4-1.978-4-3.9z"/><path id="Shape" d="m55 48c.5522847 0 1-.4477153 1-1v-4c0-.5522847-.4477153-1-1-1s-1 .4477153-1 1v3h-3c-.5522847 0-1 .4477153-1 1s.4477153 1 1 1z"/></g></g></g></svg>