<svg id="Capa_1" enable-background="new 0 0 128 128" height="512" viewBox="0 0 128 128" width="512" xmlns="http://www.w3.org/2000/svg" xmlns:xlink="http://www.w3.org/1999/xlink"><linearGradient id="lg1"><stop offset="0" stop-color="#c2e085"/><stop offset="1" stop-color="#4fb97a"/></linearGradient><linearGradient id="SVGID_1_" gradientTransform="matrix(1 0 0 -1 0 130)" gradientUnits="userSpaceOnUse" x1="64" x2="64" xlink:href="#lg1" y1="138.12" y2="-1.22"/><linearGradient id="SVGID_2_" gradientTransform="matrix(1 0 0 -1 0 130)" gradientUnits="userSpaceOnUse" x1="64" x2="64" xlink:href="#lg1" y1="128.1" y2="21.15"/><linearGradient id="SVGID_3_" gradientTransform="matrix(1 0 0 -1 0 130)" gradientUnits="userSpaceOnUse" x1="64" x2="64" y1="128.57" y2="57.03"><stop offset="0" stop-color="#4ac297"/><stop offset="1" stop-color="#0b9560"/></linearGradient><linearGradient id="SVGID_6_" gradientTransform="matrix(1 0 0 -1 0 130)" gradientUnits="userSpaceOnUse" x1="104" x2="104" xlink:href="#lg1" y1="200.1" y2="22.53"/><linearGradient id="SVGID_7_" gradientTransform="matrix(1 0 0 -1 0 130)" gradientUnits="userSpaceOnUse" x1="24.12" x2="24.12" xlink:href="#lg1" y1="200.1" y2="22.53"/><linearGradient id="SVGID_8_" gradientTransform="matrix(1 0 0 -1 0 130)" gradientUnits="userSpaceOnUse" x1="24.12" x2="24.12" xlink:href="#lg1" y1="131.07" y2="62.71"/><linearGradient id="SVGID_9_" gradientTransform="matrix(1 0 0 -1 0 130)" gradientUnits="userSpaceOnUse" x1="108.07" x2="108.07" xlink:href="#lg1" y1="139.81" y2="65.66"/><linearGradient id="SVGID_11_" gradientTransform="matrix(1 0 0 -1 0 130)" gradientUnits="userSpaceOnUse" x1="104.12" x2="104.12" xlink:href="#lg1" y1="148.84" y2="76.6"/><linearGradient id="lg2"><stop offset="0" stop-color="#54678c"/><stop offset="1" stop-color="#3d506d"/></linearGradient><linearGradient id="SVGID_12_" gradientTransform="matrix(1 0 0 -1 0 130)" gradientUnits="userSpaceOnUse" x1="17" x2="111.001" xlink:href="#lg2" y1="104.445" y2="104.445"/><linearGradient id="SVGID_13_" gradientTransform="matrix(1 0 0 -1 0 130)" gradientUnits="userSpaceOnUse" x1="17" x2="111" xlink:href="#lg2" y1="27.5" y2="27.5"/><g><path d="m20 40h88c2.209 0 4 1.791 4 4v40c0 2.209-1.791 4-4 4h-88c-2.209 0-4-1.791-4-4v-40c0-2.209 1.791-4 4-4z" fill="url(#SVGID_1_)"/><path d="m20 88h88c2.209 0 4-1.791 4-4v-40c-.004-1.936-1.394-3.591-3.3-3.93-3 17.78-18.5 50.79-92.7 41.44v2.49c0 2.209 1.791 4 4 4z" fill="url(#SVGID_2_)"/><g fill="url(#SVGID_3_)"><path d="m64 72.78c-2.698-.006-4.884-2.192-4.89-4.89 0-.552.448-1 1-1s1 .448 1 1c0 1.596 1.294 2.89 2.89 2.89s2.89-1.294 2.89-2.89-1.294-2.89-2.89-2.89c-2.701 0-4.89-2.189-4.89-4.89s2.189-4.89 4.89-4.89 4.89 2.189 4.89 4.89c0 .552-.448 1-1 1s-1-.448-1-1c0-1.596-1.294-2.89-2.89-2.89s-2.89 1.294-2.89 2.89 1.294 2.89 2.89 2.89c2.701.001 4.889 2.191 4.888 4.892-.001 2.699-2.189 4.887-4.888 4.888z"/><path d="m64 74.72c-.552 0-1-.448-1-1v-19.44c0-.552.448-1 1-1s1 .448 1 1v19.44c0 .552-.448 1-1 1z"/><path d="m64 79c-8.284 0-15-6.716-15-15s6.716-15 15-15 15 6.716 15 15-6.716 15-15 15zm0-28c-7.18 0-13 5.82-13 13s5.82 13 13 13 13-5.82 13-13-5.82-13-13-13z"/></g><path d="m108 40h-12c0 8.837 7.163 16 16 16v-12c0-2.209-1.791-4-4-4z" fill="url(#SVGID_6_)"/><path d="m16.12 71.88v12c0 2.209 1.791 4 4 4h12c0-8.837-7.163-16-16-16z" fill="url(#SVGID_7_)"/><path d="m20.12 87.88h12c0-1.699-.27-3.386-.8-5-4.77-.26-9.83-.71-15.2-1.38v2.35c-.017 2.209 1.761 4.013 3.97 4.03z" fill="url(#SVGID_8_)"/><path d="m112 56v-12c-.004-1.936-1.394-3.591-3.3-3.93-.811 4.824-2.348 9.497-4.56 13.86 2.397 1.358 5.105 2.071 7.86 2.07z" fill="url(#SVGID_9_)"/><path d="m16.12 43.88v12c8.837 0 16-7.163 16-16h-12c-2.209 0-4 1.791-4 4z" fill="url(#SVGID_7_)"/><path d="m96.12 87.88h12c2.209 0 4-1.791 4-4v-12c-8.837 0-16 7.163-16 16z" fill="url(#SVGID_11_)"/><path d="m109 34h-90c-1.105 0-2-.895-2-2s.895-2 2-2h85.17l-9.58-9.59c-.718-.839-.621-2.102.218-2.82.749-.641 1.853-.641 2.602 0l13 13c.574.571.748 1.431.44 2.18-.311.746-1.041 1.232-1.85 1.23z" fill="url(#SVGID_12_)"/><path d="m32 111c-.53-.002-1.037-.214-1.41-.59l-13-13c-.574-.571-.748-1.431-.44-2.18.311-.746 1.041-1.232 1.85-1.23h90c1.105 0 2 .895 2 2s-.895 2-2 2h-85.17l9.58 9.59c.779.783.775 2.05-.008 2.828-.373.371-.877.58-1.402.582z" fill="url(#SVGID_13_)"/><g><path d="m19.62 60.85c-.552 0-1-.448-1-1v-13.45c0-2.206 1.794-4 4-4h7.5c.552 0 1 .448 1 1s-.448 1-1 1h-7.5c-1.103 0-2 .897-2 2v13.45c0 .552-.448 1-1 1z" fill="#fff"/></g><g><path d="m19.62 68.03c-.552 0-1-.447-1-1v-2.71c0-.552.448-1 1-1s1 .448 1 1v2.71c0 .553-.448 1-1 1z" fill="#fff"/></g><g><path d="m106.07 85.71h-3.49c-.553 0-1-.447-1-1s.447-1 1-1h3.49c.552 0 1-.448 1-1v-5.41c0-.553.447-1 1-1s1 .447 1 1v5.41c0 1.654-1.345 3-3 3z" fill="#fff"/></g></g></svg>