<?xml version="1.0" encoding="iso-8859-1"?>
<!-- Generator: Adobe Illustrator 21.0.0, SVG Export Plug-In . SVG Version: 6.00 Build 0)  -->
<svg xmlns="http://www.w3.org/2000/svg" xmlns:xlink="http://www.w3.org/1999/xlink" version="1.1" id="Capa_1" x="0px" y="0px" viewBox="0 0 511.598 511.598" style="enable-background:new 0 0 511.598 511.598;" xml:space="preserve" width="512" height="512">
<g>
	<path style="fill:#6E563D;" d="M27.525,305.746c-46.085-106.809,37.38-148.841,83.49-148.841h0c25.509,0,34.864,7.55,44.894,21.153   c0,0,15.265-10.341,36.507-7.431c39.251,5.377,76.32,43.486,43.357,134.767"/>
	<g>
		<path style="fill:#604B35;" d="M192.417,170.628c-8.009-1.097-15.166-0.31-20.978,1.096    c36.852,8.342,68.605,47.079,37.335,133.672l-181.268,0.306c0.007,0.015,0.012,0.03,0.019,0.046l208.249-0.351    C268.737,214.113,231.667,176.005,192.417,170.628z"/>
	</g>
	<path style="fill:#E09C77;" d="M221.887,299.722c-2.121,0-4.16,0.34-6.076,0.956c-0.767,11.475-3.824,22.317-8.725,32.082   c3.635,4.076,8.91,6.657,14.801,6.657c10.961,0,19.847-8.886,19.847-19.847C241.734,308.608,232.848,299.722,221.887,299.722z"/>
	<path style="fill:#F7B081;" d="M47.488,300.678c-1.916-0.616-3.955-0.956-6.076-0.956c-10.961,0-19.847,8.886-19.847,19.848   c0,10.961,8.886,19.847,19.847,19.847c5.891,0,11.166-2.581,14.801-6.656C51.312,322.996,48.255,312.153,47.488,300.678z"/>
	<path style="fill:#8CC7EC;" d="M255.799,503.794H7.5v-0.296c0-68.566,55.583-124.149,124.149-124.149h0   c68.566,0,124.149,55.583,124.149,124.149V503.794z"/>
	<path style="fill:#66BAEA;" d="M131.65,379.348L131.65,379.348c-4.563,0-9.065,0.254-13.5,0.733   c62.215,6.729,110.649,59.413,110.649,123.416v0.296h27v-0.296C255.799,434.932,200.215,379.348,131.65,379.348z"/>
	<path style="fill:#A58260;" d="M461.596,409.978c42.502-14.364,45.911-133.344,29.286-176.714   c-17.621-45.969-61.703-76.359-110.934-76.359h0h0h0h0l0,0h0h0h0c-49.231,0-93.312,30.39-110.934,76.359   c-16.625,43.369-13.215,162.35,29.286,176.714H461.596z"/>
	<path style="fill:#8C6B50;" d="M490.882,233.264c-17.621-45.969-61.703-76.359-110.934-76.359h0l0,0h0l0,0h0h0l0,0   c-4.55,0-9.055,0.263-13.5,0.77c43.652,4.983,81.441,33.867,97.434,75.588c16.625,43.369,13.216,162.35-29.286,176.714h27   C504.098,395.614,507.507,276.634,490.882,233.264z"/>
	<path style="fill:#FD7DAD;" d="M504.098,503.794H255.799v-0.296c0-68.566,55.583-124.149,124.149-124.149h0   c68.566,0,124.149,55.583,124.149,124.149V503.794z"/>
	<path style="fill:#FC63A1;" d="M379.948,379.348L379.948,379.348c-4.563,0-9.065,0.254-13.5,0.733   c62.215,6.729,110.649,59.413,110.649,123.416v0.296h27v-0.296C504.098,434.932,448.514,379.348,379.948,379.348z"/>
	<path style="fill:#FF3D43;" d="M255.799,31.352c-9.777-31.198-71.799-36.258-78.806,14.959   c-7.969,58.254,78.806,100.442,78.806,100.442s86.775-42.189,78.806-100.442C327.598-4.906,265.576,0.154,255.799,31.352z"/>
	<g>
		<path style="fill:#D72E2E;" d="M334.605,46.311c-4.643-33.938-33.44-43.159-55.188-36.446    c13.644,4.35,25.369,15.841,28.188,36.446c5.971,43.651-41.254,78.281-65.306,92.9c8.046,4.89,13.5,7.543,13.5,7.543    S342.574,104.564,334.605,46.311z"/>
	</g>
	<path style="fill:#FFC89F;" d="M216.024,279.801c-40.886-7.03-68.035-47.657-68.035-47.657s-19.419,47.657-100.714,47.657v15.173   c0,46.599,37.776,84.374,84.374,84.374h0c46.599,0,84.374-37.776,84.374-84.374C216.024,294.974,216.024,279.801,216.024,279.801z"/>
	<path style="fill:#F7B081;" d="M189.024,269.887c0,14.963,0,25.087,0,25.087c0,42.002-30.695,76.822-70.874,83.286   c4.397,0.707,8.903,1.088,13.5,1.088l0,0c46.599,0,84.374-37.776,84.374-84.374c0,0,0-15.173,0-15.173   C206.161,278.105,197.1,274.451,189.024,269.887z"/>
	<path style="fill:#FFC89F;" d="M464.323,279.801c-40.885-7.03-68.035-47.657-68.035-47.657s-19.419,47.657-100.714,47.657v15.173   c0,46.599,37.776,84.374,84.374,84.374h0c46.599,0,84.374-37.776,84.374-84.374V279.801z"/>
	<path style="fill:#F7B081;" d="M437.323,269.887v25.087c0,42.002-30.695,76.822-70.875,83.286c4.397,0.707,8.903,1.088,13.5,1.088   h0c46.599,0,84.374-37.776,84.374-84.374v-15.173C454.459,278.105,445.399,274.451,437.323,269.887z"/>
	<path style="fill:#E09C77;" d="M162.9,383.317c-9.985-2.589-20.456-3.969-31.251-3.969h0c-10.794,0-21.266,1.38-31.25,3.969   c1.953,15.526,15.194,27.539,31.25,27.539C147.705,410.857,160.947,398.844,162.9,383.317z"/>
	<path style="fill:#E09C77;" d="M411.199,383.317c-9.985-2.589-20.456-3.969-31.25-3.969h0c-10.794,0-21.266,1.38-31.25,3.969   c1.953,15.526,15.194,27.539,31.25,27.539C396.004,410.857,409.246,398.844,411.199,383.317z"/>
	<g>
		<path d="M345.082,297.895c-6.705,0-12.159,5.455-12.159,12.16c0,6.705,5.454,12.159,12.159,12.159s12.16-5.455,12.16-12.159    C357.242,303.35,351.787,297.895,345.082,297.895z"/>
		<path d="M414.814,322.214c6.705,0,12.159-5.455,12.159-12.159c0-6.705-5.454-12.16-12.159-12.16c-6.705,0-12.16,5.455-12.16,12.16    C402.654,316.759,408.109,322.214,414.814,322.214z"/>
		<path d="M96.783,297.895c-6.705,0-12.159,5.455-12.159,12.16c0,6.705,5.454,12.159,12.159,12.159    c6.705,0,12.16-5.455,12.16-12.159C108.943,303.35,103.488,297.895,96.783,297.895z"/>
		<path d="M166.516,322.214c6.705,0,12.159-5.455,12.159-12.159c0-6.705-5.454-12.16-12.159-12.16c-6.705,0-12.16,5.455-12.16,12.16    C154.355,316.759,159.811,322.214,166.516,322.214z"/>
		<path d="M474.206,411.691c10.161-7.528,18.22-20.823,24.031-39.712c1.219-3.959-1.004-8.156-4.963-9.374    c-3.952-1.215-8.155,1.003-9.373,4.963c-3.811,12.387-10.469,27.656-21.12,33.688c-12.706-10.314-27.362-18.315-43.324-23.347    c30.94-14.799,52.364-46.41,52.364-82.934v-15.173c0-3.652-2.63-6.773-6.229-7.392c-37.126-6.383-62.82-44.06-63.07-44.432    c-1.542-2.307-4.224-3.573-6.992-3.295c-2.761,0.28-5.142,2.062-6.188,4.632c-0.176,0.43-18.389,42.987-93.769,42.987    c-4.143,0-7.5,3.358-7.5,7.5v15.173c0,36.524,21.425,68.135,52.365,82.934c-15.959,5.032-30.611,13.03-43.316,23.341    c-5.932-3.359-11.224-9.914-15.765-19.574c-17.839-37.949-17.846-113.102-5.341-145.726c8.104-21.141,22.235-39.097,40.864-51.925    c18.638-12.835,40.446-19.618,63.067-19.618c22.621,0,44.43,6.784,63.067,19.618c18.629,12.829,32.76,30.784,40.864,51.925    c8.657,22.585,11.281,67.057,6.103,103.445c-0.584,4.101,2.267,7.899,6.368,8.482c4.09,0.579,7.898-2.268,8.482-6.369    c5.581-39.215,2.659-85.867-6.947-110.927c-9.194-23.984-25.227-44.355-46.363-58.91c-21.15-14.565-45.9-22.264-71.574-22.264    s-50.424,7.699-71.574,22.264c-21.137,14.555-37.169,34.926-46.363,58.91c-13.801,36.002-13.848,115.74,5.771,157.476    c4.959,10.549,10.96,18.452,17.917,23.626c-13.178,13.524-23.476,29.861-29.901,48.017c-13.741-38.835-45.211-69.36-84.64-81.791    c15.725-7.522,28.988-19.387,38.234-34.032c3.83,1.975,8.109,3.04,12.494,3.04c15.079,0,27.347-12.268,27.347-27.347    c0-5.839-1.846-11.252-4.975-15.699c11.147-32.416,19.429-76.095,0.038-108.149c-10.871-17.969-28.934-29.52-50.861-32.524    c-15.594-2.137-28.348,2.025-35.499,5.29c-10.429-12.417-22.3-19.081-46.92-19.081c-20.193,0-52.196,8.024-75.93,30.637    c-2.999,2.857-3.113,7.604-0.256,10.604c2.857,2.998,7.604,3.113,10.604,0.256c20.526-19.558,48.157-26.497,65.582-26.497    c23.792,0,30.552,6.839,38.857,18.104c2.37,3.215,6.878,3.984,10.209,1.781c0.132-0.088,13.382-8.686,31.317-6.232    c17.353,2.377,31.581,11.408,40.062,25.427c12.628,20.875,12.682,52.065,0.259,90.573c-2.569-0.994-5.323-1.612-8.197-1.783    v-12.474c0-3.652-2.63-6.773-6.23-7.392c-37.126-6.383-62.82-44.06-63.07-44.432c-1.541-2.307-4.224-3.573-6.992-3.295    c-2.761,0.28-5.142,2.062-6.189,4.632c-0.176,0.43-18.389,42.987-93.767,42.987c-4.143,0-7.5,3.358-7.5,7.5v12.474    c-3.096,0.184-6.055,0.884-8.792,2.018c-11.969-31.645-12.566-58.991-1.737-81.378c1.805-3.729,0.244-8.214-3.484-10.018    c-3.729-1.805-8.216-0.243-10.018,3.485c-13.246,27.38-12.22,60.287,3.029,97.863c-2.97,4.374-4.707,9.649-4.707,15.323    c0,15.079,12.268,27.347,27.347,27.347c4.386,0,8.664-1.066,12.494-3.04c9.245,14.645,22.509,26.511,38.234,34.032    C38.792,394.728,0,444.666,0,503.498v0.296c0,4.142,3.357,7.5,7.5,7.5h248.299h248.299c4.143,0,7.5-3.358,7.5-7.5v-0.296    C511.598,467.824,497.328,435.425,474.206,411.691z M379.948,386.848c7.52,0,14.875,0.721,22.003,2.087    c-3.728,8.547-12.265,14.421-22.003,14.421c-9.737,0-18.275-5.874-22.003-14.421C365.074,387.569,372.428,386.848,379.948,386.848    z M303.073,294.974v-7.806c56.892-2.037,83.319-27.061,93.989-41.73c10.322,12.264,31.443,33.274,59.76,40.432v9.104    c0,42.389-34.485,76.874-76.874,76.874S303.073,337.363,303.073,294.974z M131.649,386.848c7.52,0,14.875,0.721,22.003,2.087    c-3.728,8.547-12.265,14.421-22.003,14.421s-18.275-5.874-22.003-14.421C116.775,387.569,124.129,386.848,131.649,386.848z     M221.887,331.917c-1.943,0-3.834-0.481-5.54-1.348c3.094-7.335,5.258-15.153,6.353-23.306    c6.429,0.422,11.534,5.772,11.534,12.307C234.233,326.378,228.694,331.917,221.887,331.917z M41.412,331.917    c-6.808,0-12.347-5.539-12.347-12.347c0-6.534,5.106-11.885,11.534-12.307c1.095,8.153,3.259,15.971,6.353,23.306    C45.246,331.435,43.355,331.917,41.412,331.917z M54.963,300.069c-0.002-0.029-0.004-0.058-0.006-0.086    c-0.107-1.658-0.181-3.324-0.181-5.009v-7.806c56.891-2.037,83.318-27.061,93.988-41.73c10.322,12.264,31.443,33.274,59.76,40.432    v9.104c0,1.685-0.074,3.351-0.181,5.009c-0.003,0.029-0.004,0.057-0.007,0.086c-2.634,40.02-36.012,71.779-76.687,71.779    S57.597,340.089,54.963,300.069z M15.22,496.294c2.961-48.379,35.547-88.877,79.799-103.549    c5.51,15.064,19.997,25.612,36.631,25.612c16.633,0,31.121-10.548,36.631-25.612c44.251,14.673,76.837,55.171,79.799,103.549    H15.22z M263.518,496.294c2.961-48.379,35.547-88.877,79.799-103.549c5.51,15.064,19.998,25.612,36.631,25.612    c16.634,0,31.121-10.548,36.631-25.612c44.251,14.673,76.837,55.171,79.799,103.549H263.518z"/>
		<path d="M206.178,112.053c3.023-2.83,3.18-7.577,0.35-10.601c-17.084-18.248-24.52-36.459-22.104-54.125    c3.657-26.733,22.858-31.2,30.943-31.88c15.326-1.289,29.629,6.513,33.274,18.147c0.98,3.128,3.879,5.257,7.157,5.257    c3.278,0,6.177-2.129,7.157-5.257c3.646-11.634,17.944-19.438,33.274-18.147c8.085,0.68,27.286,5.146,30.943,31.88    c6.306,46.096-56.2,82.791-71.384,90.975c-5.244-2.813-16.113-9.009-27.867-17.867c-3.308-2.493-8.011-1.831-10.503,1.476    c-2.493,3.308-1.832,8.011,1.476,10.503c17.511,13.196,32.975,20.768,33.624,21.084c2.052,0.998,4.507,0.998,6.559,0    c0.922-0.448,22.815-11.184,44.007-29.438c29.102-25.068,42.57-52.305,38.95-78.766C337.847,14.676,316.276,2.08,297.486,0.5    c-16.731-1.408-32.38,4.879-41.688,15.786C246.492,5.379,230.848-0.912,214.111,0.5c-18.79,1.58-40.36,14.176-44.549,44.794    c-3.06,22.359,5.693,44.703,26.014,66.409C198.405,114.727,203.15,114.884,206.178,112.053z"/>
	</g>
</g>















</svg>
