<?xml version="1.0" encoding="iso-8859-1"?>
<!-- Generator: Adobe Illustrator 19.0.0, SVG Export Plug-In . SVG Version: 6.00 Build 0)  -->
<svg version="1.1" id="Capa_1" xmlns="http://www.w3.org/2000/svg" xmlns:xlink="http://www.w3.org/1999/xlink" x="0px" y="0px"
	 viewBox="0 0 480 480" style="enable-background:new 0 0 480 480;" xml:space="preserve">
<path style="fill:#5A5A60;" d="M224,474.989h32l16-32h-64L224,474.989z"/>
<g>
	<path style="fill:#EF9F35;" d="M320,146.989v136h64c25.927,0.013,47.179-20.566,48-46.48c14.377-8.288,23.452-23.414,24-40
		c14.836-8.566,23.982-24.389,24-41.52v-8H320z"/>
	<path style="fill:#EF9F35;" d="M0,146.989v8c0.018,17.131,9.164,32.954,24,41.52c0.548,16.586,9.623,31.712,24,40
		c0.821,25.914,22.073,46.493,48,46.48h64v-136H0z"/>
</g>
<path style="fill:#F7D04F;" d="M341.36,41.709C277.679-12.989,181.714-5.707,127.016,57.975
	c-52.368,60.969-48.221,152.169,9.464,208.134c29.874,26.73,47.121,64.796,47.52,104.88v16h112v-16
	c0.019-39.267,16.641-76.696,45.76-103.04c62.408-56.146,67.485-152.253,11.339-214.661c-3.577-3.976-7.362-7.761-11.339-11.339
	L341.36,41.709z"/>
<g>
	<path style="fill:#F9F6ED;" d="M335.28,143.629l-0.72-5.92l-26.08-4.8c-1.175-3.698-2.674-7.285-4.48-10.72l15.04-21.84l-3.6-4.64
		c-4.687-5.942-10.058-11.313-16-16l-4.64-3.6l-22,14.88c-3.435-1.806-7.022-3.305-10.72-4.48l-4.8-26.08l-5.92-0.72
		c-7.543-0.96-15.177-0.96-22.72,0l-5.92,0.72l-4.8,26.08c-3.698,1.175-7.285,2.674-10.72,4.48l-21.84-15.04l-4.64,3.6
		c-5.942,4.687-11.313,10.058-16,16l-3.6,4.64l14.88,22c-1.806,3.435-3.305,7.022-4.48,10.72l-26.08,4.8l-0.72,5.92
		c-0.96,7.543-0.96,15.177,0,22.72l0.72,5.92l26.08,4.8c1.175,3.698,2.674,7.285,4.48,10.72l-15.04,21.84l3.6,4.64
		c4.687,5.942,10.058,11.313,16,16l4.64,3.6l22-14.88c3.435,1.806,7.022,3.305,10.72,4.48l4.8,26.08l5.92,0.72l3.36,0.72v128h16
		v-128h3.36l5.92-0.72l4.8-26.08c3.723-1.407,7.311-3.147,10.72-5.2l21.84,15.04l4.64-3.6c5.942-4.687,11.313-10.058,16-16l3.6-4.64
		l-14.88-22c1.806-3.435,3.305-7.022,4.48-10.72l26.08-4.8l0.72-5.92C336.24,158.806,336.24,151.172,335.28,143.629L335.28,143.629z
		 M320,158.669l-24,4.32l-1.2,5.04c-1.341,5.655-3.583,11.057-6.64,16l-2.64,4.48l13.92,20.32c-1.611,1.851-3.349,3.589-5.2,5.2
		l-20.32-13.92l-4.48,2.64c-4.943,3.057-10.345,5.299-16,6.64l-5.44,1.6l-4.48,24c-2.56,0-4.8,0-7.36,0l-4.16-24l-5.04-1.2
		c-5.645-1.37-11.043-3.61-16-6.64l-4.48-2.64l-20.32,13.92c-1.858-1.631-3.621-3.367-5.28-5.2l14-20.32l-2.88-4.88
		c-3.057-4.943-5.299-10.345-6.64-16l-0.96-5.04l-24-4.48c0-1.28,0-2.48,0-3.68s0-2.4,0-3.68l24-4.48l1.2-5.04
		c1.341-5.655,3.583-11.057,6.64-16l2.64-4.48l-13.92-20.32c1.611-1.851,3.349-3.589,5.2-5.2l20.32,13.92l4.48-2.64
		c4.957-3.03,10.355-5.27,16-6.64l5.04-1.2l4.48-24h7.36l4.48,24l5.04,1.2c5.645,1.37,11.043,3.61,16,6.64l4.48,2.64l20.32-13.92
		c1.858,1.631,3.621,3.367,5.28,5.2l-14,20.32l2.64,4.48c3.057,4.943,5.299,10.345,6.64,16l1.28,5.36l24,4.48v3.68
		C320,155.149,320,157.389,320,158.669L320,158.669z"/>
	<path style="fill:#F9F6ED;" d="M240,114.989c-22.091,0-40,17.909-40,40s17.909,40,40,40s40-17.909,40-40
		S262.091,114.989,240,114.989z M240,178.989c-13.255,0-24-10.745-24-24s10.745-24,24-24c13.255,0,24,10.745,24,24
		S253.255,178.989,240,178.989z"/>
	<path style="fill:#F9F6ED;" d="M299.76,61.389c-7.054-4.42-14.564-8.068-22.4-10.88l5.28-15.04c8.988,3.121,17.579,7.283,25.6,12.4
		L299.76,61.389z"/>
	<path style="fill:#F9F6ED;" d="M348,126.269c-5.604-20.049-16.686-38.139-32-52.24l10.88-11.68
		c17.469,16.103,30.078,36.778,36.4,59.68L348,126.269z"/>
</g>
<path style="fill:#1895AA;" d="M312,394.989c0-13.255-10.745-24-24-24h-96c-13.255,0-24,10.745-24,24
	c0.035,5.92,2.258,11.619,6.24,16c-3.982,4.381-6.205,10.08-6.24,16c0,13.255,10.745,24,24,24l0,0h96c13.255,0,24-10.745,24-24l0,0
	c-0.035-5.92-2.258-11.619-6.24-16C309.742,406.608,311.965,400.909,312,394.989z"/>
<g>
</g>
<g>
</g>
<g>
</g>
<g>
</g>
<g>
</g>
<g>
</g>
<g>
</g>
<g>
</g>
<g>
</g>
<g>
</g>
<g>
</g>
<g>
</g>
<g>
</g>
<g>
</g>
<g>
</g>
</svg>
