<svg height="496pt" viewBox="0 0 496 496" width="496pt" xmlns="http://www.w3.org/2000/svg"><path d="m472 232c8.800781 0 16 7.199219 16 16 0 4.398438-1.761719 8.398438-4.71875 11.28125-2.882812 2.957031-6.882812 4.71875-11.28125 4.71875h-128c-8.800781 0-16-7.199219-16-16 0-4.398438 1.761719-8.398438 4.71875-11.28125 2.882812-2.957031 6.882812-4.71875 11.28125-4.71875zm0 0" fill="#fcd770"/><path d="m472 264c8.800781 0 16 7.199219 16 16 0 4.398438-1.761719 8.398438-4.71875 11.28125-2.882812 2.957031-6.882812 4.71875-11.28125 4.71875h-128c-8.800781 0-16-7.199219-16-16 0-4.398438 1.761719-8.398438 4.71875-11.28125 2.882812-2.957031 6.882812-4.71875 11.28125-4.71875zm0 0" fill="#fcd770"/><path d="m463.761719 328.160156c-17.601563-19.761718-43.203125-32.160156-71.761719-32.160156h80c8.800781 0 16 7.199219 16 16 0 4.398438-1.761719 8.398438-4.71875 11.28125-2.882812 2.957031-6.882812 4.71875-11.28125 4.71875h-8zm0 0" fill="#fcd770"/><g fill="#ffc729"><path d="m312 296c8.800781 0 16 7.199219 16 16 0 4.398438-1.761719 8.398438-4.71875 11.28125-2.882812 2.957031-6.882812 4.71875-11.28125 4.71875h-128c-8.800781 0-16-7.199219-16-16 0-4.398438 1.761719-8.398438 4.71875-11.28125 2.882812-2.957031 6.882812-4.71875 11.28125-4.71875zm0 0"/><path d="m328 472c0 4.398438-1.761719 8.398438-4.71875 11.28125-2.882812 2.957031-6.882812 4.71875-11.28125 4.71875h-128c-8.800781 0-16-7.199219-16-16 0-4.398438 1.761719-8.398438 4.71875-11.28125 2.882812-2.957031 6.882812-4.71875 11.28125-4.71875h128c4.398438 0 8.398438 1.761719 11.28125 4.71875 2.957031 2.882812 4.71875 6.882812 4.71875 11.28125zm0 0"/><path d="m312 328c4.398438 0 8.398438-1.761719 11.28125-4.71875l.796875.796875c-10 10.082031-17.839844 22.320313-22.558594 35.921875h-117.519531c-8.800781 0-16-7.199219-16-16 0-4.398438 1.761719-8.398438 4.71875-11.28125 2.882812-2.957031 6.882812-4.71875 11.28125-4.71875zm0 0"/><path d="m184 360h117.519531c-3.597656 10-5.519531 20.800781-5.519531 32h-112c-8.800781 0-16-7.199219-16-16 0-4.398438 1.761719-8.398438 4.71875-11.28125 2.882812-2.957031 6.882812-4.71875 11.28125-4.71875zm0 0"/><path d="m324.078125 459.921875-.796875.796875c-2.882812-2.957031-6.882812-4.71875-11.28125-4.71875h-128c-8.800781 0-16-7.199219-16-16 0-4.398438 1.761719-8.398438 4.71875-11.28125 2.882812-2.957031 6.882812-4.71875 11.28125-4.71875h117.519531c4.71875 13.601562 12.558594 25.839844 22.558594 35.921875zm0 0"/><path d="m301.519531 424h-117.519531c-8.800781 0-16-7.199219-16-16 0-4.398438 1.761719-8.398438 4.71875-11.28125 2.882812-2.957031 6.882812-4.71875 11.28125-4.71875h112c0 11.199219 1.921875 22 5.519531 32zm0 0"/></g><path d="m152 392c8.800781 0 16 7.199219 16 16 0 4.398438-1.761719 8.398438-4.71875 11.28125-2.882812 2.957031-6.882812 4.71875-11.28125 4.71875h-128c-8.800781 0-16-7.199219-16-16 0-4.398438 1.761719-8.398438 4.71875-11.28125 2.882812-2.957031 6.882812-4.71875 11.28125-4.71875zm0 0" fill="#fcd770"/><path d="m152 360c8.800781 0 16 7.199219 16 16 0 4.398438-1.761719 8.398438-4.71875 11.28125-2.882812 2.957031-6.882812 4.71875-11.28125 4.71875h-128c-8.800781 0-16-7.199219-16-16 0-4.398438 1.761719-8.398438 4.71875-11.28125 2.882812-2.957031 6.882812-4.71875 11.28125-4.71875zm0 0" fill="#fcd770"/><path d="m152 328c8.800781 0 16 7.199219 16 16 0 4.398438-1.761719 8.398438-4.71875 11.28125-2.882812 2.957031-6.882812 4.71875-11.28125 4.71875h-128c-8.800781 0-16-7.199219-16-16 0-4.398438 1.761719-8.398438 4.71875-11.28125 2.882812-2.957031 6.882812-4.71875 11.28125-4.71875zm0 0" fill="#fcd770"/><path d="m152 424c8.800781 0 16 7.199219 16 16 0 4.398438-1.761719 8.398438-4.71875 11.28125-2.882812 2.957031-6.882812 4.71875-11.28125 4.71875h-128c-8.800781 0-16-7.199219-16-16 0-4.398438 1.761719-8.398438 4.71875-11.28125 2.882812-2.957031 6.882812-4.71875 11.28125-4.71875zm0 0" fill="#fcd770"/><path d="m152 456c8.800781 0 16 7.199219 16 16 0 4.398438-1.761719 8.398438-4.71875 11.28125-2.882812 2.957031-6.882812 4.71875-11.28125 4.71875h-128c-8.800781 0-16-7.199219-16-16 0-4.398438 1.761719-8.398438 4.71875-11.28125 2.882812-2.957031 6.882812-4.71875 11.28125-4.71875zm0 0" fill="#fcd770"/><path d="m301.519531 360c4.71875-13.601562 12.558594-25.839844 22.558594-35.921875 17.363281-17.359375 41.363281-28.078125 67.921875-28.078125 28.558594 0 54.160156 12.398438 71.761719 32.160156 15.039062 16.960938 24.238281 39.28125 24.238281 63.839844 0 53.039062-42.960938 96-96 96-26.558594 0-50.558594-10.71875-67.921875-28.078125-10-10.082031-17.839844-22.320313-22.558594-35.921875-3.597656-10-5.519531-20.800781-5.519531-32s1.921875-22 5.519531-32zm154.480469 40v-16l-9.121094-3.039062c-1.4375-7.28125-4.320312-14-8.238281-20l4.238281-8.5625-11.277344-11.277344-8.5625 4.238281c-6-3.917969-12.71875-6.800781-20-8.238281l-3.039062-9.121094h-16l-3.039062 9.121094c-7.28125 1.4375-14 4.320312-20 8.238281l-8.5625-4.238281-11.277344 11.277344 4.238281 8.5625c-3.917969 6-6.800781 12.71875-8.238281 20l-9.121094 3.039062v16l9.121094 3.039062c1.4375 7.28125 4.320312 14 8.238281 20l-4.238281 8.5625 11.277344 11.277344 8.5625-4.238281c6 3.917969 12.71875 6.800781 20 8.238281l3.039062 9.121094h16l3.039062-9.121094c7.28125-1.4375 14-4.320312 20-8.238281l8.5625 4.238281 11.277344-11.277344-4.238281-8.5625c3.917969-6 6.800781-12.71875 8.238281-20zm0 0" fill="#e6e9ed"/><path d="m423.039062 345.359375 8.5625-4.238281 11.277344 11.277344-4.238281 8.5625c3.917969 6 6.800781 12.71875 8.238281 20l9.121094 3.039062v16l-9.121094 3.039062c-1.4375 7.28125-4.320312 14-8.238281 20l4.238281 8.5625-11.277344 11.277344-8.5625-4.238281c-6 3.917969-12.71875 6.800781-20 8.238281l-3.039062 9.121094h-16l-3.039062-9.121094c-7.28125-1.4375-14-4.320312-20-8.238281l-8.5625 4.238281-11.277344-11.277344 4.238281-8.5625c-3.917969-6-6.800781-12.71875-8.238281-20l-9.121094-3.039062v-16l9.121094-3.039062c1.4375-7.28125 4.320312-14 8.238281-20l-4.238281-8.5625 11.277344-11.277344 8.5625 4.238281c6-3.917969 12.71875-6.800781 20-8.238281l3.039062-9.121094h16l3.039062 9.121094c7.28125 1.4375 14 4.320312 20 8.238281zm-7.039062 46.640625c0-13.28125-10.71875-24-24-24s-24 10.71875-24 24 10.71875 24 24 24 24-10.71875 24-24zm0 0" fill="#fcd770"/><path d="m432 80 40 48h-24v80h-32v-80h-24zm0 0" fill="#a0d468"/><path d="m472 8c8.800781 0 16 7.199219 16 16s-7.199219 16-16 16c-6.640625 0-12.320312-4.078125-14.800781-9.839844-.800781-1.921875-1.199219-4-1.199219-6.160156 0-8.800781 7.199219-16 16-16zm0 0" fill="#ffc729"/><path d="m390.800781 57.839844c.800781 1.921875 1.199219 4 1.199219 6.160156 0 8.800781-7.199219 16-16 16s-16-7.199219-16-16 7.199219-16 16-16c6.640625 0 12.320312 4.078125 14.800781 9.839844zm0 0" fill="#ffc729"/><path d="m299.839844 117.28125c2.640625 2.796875 4.160156 6.558594 4.160156 10.71875 0 8.800781-7.199219 16-16 16-2.558594 0-4.960938-.558594-7.121094-1.679688-5.277344-2.640624-8.878906-8.082031-8.878906-14.320312 0-8.800781 7.199219-16 16-16 4.640625 0 8.878906 2 11.839844 5.28125zm0 0" fill="#ffc729"/><path d="m247.121094 209.679688c5.277344 2.640624 8.878906 8.082031 8.878906 14.320312 0 8.800781-7.199219 16-16 16s-16-7.199219-16-16c0-4.398438 1.761719-8.398438 4.71875-11.28125 2.882812-2.957031 6.882812-4.71875 11.28125-4.71875 2.558594 0 4.960938.558594 7.121094 1.679688zm0 0" fill="#ffc729"/><path d="m200 125.679688c0 17.199218-4.71875 34.082031-13.761719 48.800781l-9.277343 15.199219-8.5625 14-52.238282 85.519531c-2.558594 4.242187-7.199218 6.800781-12.160156 6.800781s-9.601562-2.558594-12.160156-6.800781l-70.078125-114.71875c-9.042969-14.71875-13.761719-31.601563-13.761719-48.800781 0-23.039063 8.320312-44 22.078125-60.320313l11.28125-11.28125c16.320313-13.757813 37.28125-22.078125 60.320313-22.078125h4.640624c51.757813 0 93.679688 41.921875 93.679688 93.679688zm0 0" fill="#ff826e"/><path d="m152 176h-96c0-13.28125 5.359375-25.28125 14.078125-33.921875 8.640625-8.71875 20.640625-14.078125 33.921875-14.078125s25.28125 5.359375 33.921875 14.078125c8.71875 8.640625 14.078125 20.640625 14.078125 33.921875zm0 0" fill="#fcd770"/><path d="m128 88v16c0 13.28125-10.71875 24-24 24s-24-10.71875-24-24v-16c0-13.28125 10.71875-24 24-24 6.640625 0 12.640625 2.71875 16.960938 7.039062 4.320312 4.320313 7.039062 10.320313 7.039062 16.960938zm0 0" fill="#f0d0b4"/><path d="m447.761719 360.59375 4.886719-9.769531-19.472657-19.472657-9.769531 4.886719c-4.484375-2.535156-9.230469-4.503906-14.183594-5.886719l-3.453125-10.351562h-27.53125l-3.453125 10.351562c-4.960937 1.375-9.707031 3.34375-14.183594 5.886719l-9.769531-4.886719-19.472656 19.472657 4.886719 9.769531c-2.535156 4.484375-4.503906 9.230469-5.886719 14.183594l-10.359375 3.453125v27.53125l10.351562 3.453125c1.375 4.960937 3.34375 9.707031 5.886719 14.183594l-4.886719 9.769531 19.472657 19.472656 9.769531-4.886719c4.484375 2.535156 9.230469 4.503906 14.183594 5.886719l3.453125 10.359375h27.53125l3.453125-10.351562c4.960937-1.375 9.707031-3.34375 14.183594-5.886719l9.769531 4.886719 19.472656-19.472657-4.886719-9.769531c2.535156-4.484375 4.503906-9.230469 5.886719-14.183594l10.359375-3.453125v-27.53125l-10.351562-3.453125c-1.382813-4.960937-3.351563-9.707031-5.886719-14.191406zm.238281 33.636719-8.03125 2.679687-.914062 4.554688c-1.222657 6.128906-3.613282 11.886718-7.09375 17.109375l-2.578126 3.867187 3.792969 7.582032-3.160156 3.160156-7.582031-3.792969-3.867188 2.578125c-5.222656 3.488281-10.980468 5.871094-17.109375 7.09375l-4.554687.914062-2.671875 8.023438h-4.46875l-2.683594-8.03125-4.550781-.914062c-6.128906-1.222657-11.886719-3.613282-17.113282-7.09375l-3.863281-2.578126-7.582031 3.792969-3.160156-3.160156 3.792968-7.582031-2.578124-3.867188c-3.488282-5.222656-5.871094-10.980468-7.09375-17.109375l-.914063-4.554687-8.015625-2.671875v-4.46875l8.03125-2.683594.914062-4.550781c1.222657-6.128906 3.613282-11.886719 7.09375-17.113282l2.578126-3.863281-3.792969-7.582031 3.160156-3.160156 7.582031 3.792968 3.867188-2.578124c5.222656-3.488282 10.980468-5.871094 17.109375-7.09375l4.554687-.914063 2.671875-8.015625h4.46875l2.683594 8.03125 4.550781.914062c6.128906 1.222657 11.886719 3.613282 17.113282 7.09375l3.863281 2.578126 7.582031-3.792969 3.160156 3.160156-3.792968 7.582031 2.578124 3.867188c3.488282 5.222656 5.871094 10.980468 7.09375 17.109375l.914063 4.554687 8.015625 2.671875zm0 0"/><path d="m392 360c-17.648438 0-32 14.351562-32 32s14.351562 32 32 32 32-14.351562 32-32-14.351562-32-32-32zm0 48c-8.824219 0-16-7.175781-16-16s7.175781-16 16-16 16 7.175781 16 16-7.175781 16-16 16zm0 0"/><path d="m472 224h-128c-13.230469 0-24 10.769531-24 24 0 6.167969 2.40625 11.742188 6.238281 16-3.839843 4.257812-6.238281 9.832031-6.238281 16 0 3.800781.96875 7.351562 2.550781 10.550781-3.199219-1.582031-6.75-2.550781-10.550781-2.550781h-128c-13.230469 0-24 10.769531-24 24 0 3.800781.96875 7.351562 2.550781 10.550781-3.199219-1.582031-6.75-2.550781-10.550781-2.550781h-128c-13.230469 0-24 10.769531-24 24 0 6.167969 2.40625 11.742188 6.238281 16-3.832031 4.257812-6.238281 9.832031-6.238281 16s2.40625 11.742188 6.238281 16c-3.832031 4.257812-6.238281 9.832031-6.238281 16s2.40625 11.742188 6.238281 16c-3.832031 4.257812-6.238281 9.832031-6.238281 16s2.40625 11.742188 6.238281 16c-3.832031 4.257812-6.238281 9.832031-6.238281 16 0 13.230469 10.769531 24 24 24h128c6.167969 0 11.742188-2.40625 16-6.238281 4.257812 3.839843 9.832031 6.238281 16 6.238281h128c10.847656 0 19.929688-7.28125 22.894531-17.175781 16.402344 10.824219 36.015625 17.175781 57.105469 17.175781 57.34375 0 104-46.65625 104-104 0-21.089844-6.351562-40.703125-17.175781-57.105469 9.894531-2.964843 17.175781-12.046875 17.175781-22.894531 0-6.167969-2.40625-11.742188-6.238281-16 3.839843-4.257812 6.238281-9.832031 6.238281-16s-2.40625-11.742188-6.238281-16c3.839843-4.257812 6.238281-9.832031 6.238281-16 0-13.230469-10.769531-24-24-24zm-128 16h128c4.40625 0 8 3.59375 8 8s-3.59375 8-8 8h-128c-4.40625 0-8-3.59375-8-8s3.59375-8 8-8zm136 40c0 4.40625-3.59375 8-8 8h-128c-4.40625 0-8-3.59375-8-8s3.59375-8 8-8h128c4.40625 0 8 3.59375 8 8zm-464 160c0-4.40625 3.59375-8 8-8h128c4.40625 0 8 3.59375 8 8s-3.59375 8-8 8h-128c-4.40625 0-8-3.59375-8-8zm0-32c0-4.40625 3.59375-8 8-8h128c4.40625 0 8 3.59375 8 8s-3.59375 8-8 8h-128c-4.40625 0-8-3.59375-8-8zm0-32c0-4.40625 3.59375-8 8-8h128c4.40625 0 8 3.59375 8 8s-3.59375 8-8 8h-128c-4.40625 0-8-3.59375-8-8zm272.40625 24c.417969 5.464844 1.265625 10.800781 2.503906 16h-106.910156c-4.40625 0-8-3.59375-8-8s3.59375-8 8-8zm-112.40625 40c0-4.40625 3.59375-8 8-8h112.023438c2.34375 5.617188 5.222656 10.9375 8.480468 16h-120.503906c-4.40625 0-8-3.59375-8-8zm112.40625-56h-104.40625c-4.40625 0-8-3.59375-8-8s3.59375-8 8-8h106.902344c-1.230469 5.199219-2.078125 10.535156-2.496094 16zm7.617188-32h-112.023438c-4.40625 0-8-3.59375-8-8s3.59375-8 8-8h120.503906c-3.257812 5.0625-6.136718 10.382812-8.480468 16zm38.871093-46.824219c-.382812-1.289062-.855469-2.535156-1.4375-3.726562 1.496094.734375 3.054688 1.328125 4.703125 1.742187-1.097656.664063-2.207031 1.289063-3.265625 1.984375zm-150.894531-1.175781h128c4.40625 0 8 3.59375 8 8s-3.59375 8-8 8h-128c-4.40625 0-8-3.59375-8-8s3.59375-8 8-8zm-160 32h128c4.40625 0 8 3.59375 8 8s-3.59375 8-8 8h-128c-4.40625 0-8-3.59375-8-8s3.59375-8 8-8zm128 144h-128c-4.40625 0-8-3.59375-8-8s3.59375-8 8-8h128c4.40625 0 8 3.59375 8 8s-3.59375 8-8 8zm160 0h-128c-4.40625 0-8-3.59375-8-8s3.59375-8 8-8h128c4.40625 0 8 3.59375 8 8s-3.59375 8-8 8zm80 0c-48.519531 0-88-39.480469-88-88s39.480469-88 88-88 88 39.480469 88 88-39.480469 88-88 88zm80-160h-5.128906c-5.871094-6.113281-12.496094-11.464844-19.703125-16h24.832031c4.40625 0 8 3.59375 8 8s-3.59375 8-8 8zm0 0"/><path d="m48 176v8h112v-8c0-22.40625-13.265625-41.726562-32.320312-50.671875 5.113281-5.671875 8.320312-13.105469 8.320312-21.328125v-16c0-17.648438-14.351562-32-32-32s-32 14.351562-32 32v16c0 8.222656 3.207031 15.65625 8.320312 21.328125-19.054687 8.945313-32.320312 28.265625-32.320312 50.671875zm40-72v-16c0-8.824219 7.175781-16 16-16s16 7.175781 16 16v16c0 8.824219-7.175781 16-16 16s-16-7.175781-16-16zm16 32c19.320312 0 35.480469 13.769531 39.191406 32h-78.382812c3.710937-18.230469 19.871094-32 39.191406-32zm0 0"/><path d="m85 293.335938c4.015625 6.574218 11.296875 10.664062 19 10.664062s14.984375-4.089844 19-10.65625l52.222656-85.464844-13.65625-8.34375-52.222656 85.464844c-2.253906 3.695312-8.433594 3.695312-10.6875 0l-70.089844-114.6875c-8.222656-13.457031-12.566406-28.898438-12.566406-44.664062 0-20.128907 7.160156-39.710938 20.160156-55.136719l-12.230468-10.3125c-15.433594 18.304687-23.929688 41.554687-23.929688 65.449219 0 18.710937 5.160156 37.039062 14.910156 53.007812zm0 0"/><path d="m101.648438 40h4.703124c47.222657 0 85.648438 38.425781 85.648438 85.648438 0 15.765624-4.34375 31.207031-12.558594 44.664062l-9.28125 15.183594 13.648438 8.34375 5.582031-9.136719 29.015625 29.015625c-1.503906 3.128906-2.40625 6.585938-2.40625 10.28125 0 13.230469 10.769531 24 24 24s24-10.769531 24-24c0-6.457031-2.59375-12.296875-6.742188-16.609375l27.839844-55.679687c.957032.113281 1.902344.289062 2.902344.289062 13.230469 0 24-10.769531 24-24 0-2.945312-.609375-5.726562-1.574219-8.335938l51.679688-36.175781c3.925781 2.816407 8.703125 4.511719 13.894531 4.511719 13.230469 0 24-10.769531 24-24 0-.441406-.105469-.847656-.128906-1.28125l54.410156-22.671875c4.390625 4.847656 10.679688 7.953125 17.71875 7.953125 13.230469 0 24-10.769531 24-24s-10.769531-24-24-24-24 10.769531-24 24c0 .441406.105469.847656.128906 1.28125l-54.410156 22.671875c-4.390625-4.847656-10.679688-7.953125-17.71875-7.953125-13.230469 0-24 10.769531-24 24 0 2.214844.398438 4.320312.960938 6.359375l-52.890626 37.023437c-3.558593-2.09375-7.644531-3.382812-12.070312-3.382812-13.230469 0-24 10.769531-24 24 0 6.457031 2.59375 12.296875 6.742188 16.609375l-27.839844 55.679687c-.957032-.113281-1.902344-.289062-2.902344-.289062-3.695312 0-7.152344.902344-10.28125 2.40625l-32.101562-32.101562c6.78125-13.878907 10.382812-29.128907 10.382812-44.65625 0-56.046876-45.601562-101.648438-101.648438-101.648438h-4.703124c-23.90625 0-47.144532 8.496094-65.449219 23.929688l10.3125 12.230468c15.425781-13 35-20.160156 55.136719-20.160156zm370.351562-24c4.40625 0 8 3.59375 8 8s-3.59375 8-8 8-8-3.59375-8-8 3.59375-8 8-8zm-96 40c4.40625 0 8 3.59375 8 8s-3.59375 8-8 8-8-3.59375-8-8 3.59375-8 8-8zm-88 64c4.40625 0 8 3.59375 8 8s-3.59375 8-8 8-8-3.59375-8-8 3.59375-8 8-8zm-40 104c0 4.40625-3.59375 8-8 8s-8-3.59375-8-8 3.59375-8 8-8 8 3.59375 8 8zm0 0"/><path d="m440 208h16v-72h33.078125l-57.078125-68.496094-57.078125 68.496094h33.078125v72h16v-88h-14.921875l22.921875-27.503906 22.921875 27.503906h-14.921875zm0 0"/></svg>