<?xml version="1.0" encoding="iso-8859-1"?>
<!-- Generator: Adobe Illustrator 19.0.0, SVG Export Plug-In . SVG Version: 6.00 Build 0)  -->
<svg xmlns="http://www.w3.org/2000/svg" xmlns:xlink="http://www.w3.org/1999/xlink" version="1.1" id="Layer_1" x="0px" y="0px" viewBox="0 0 504.442 504.442" style="enable-background:new 0 0 504.442 504.442;" xml:space="preserve" width="512" height="512">
<g>
	<g>
		<g>
			<path style="fill:#FFCBB3;" d="M361.989,400.939c0,13.673-10.53,24.878-23.919,25.949c-0.698,0.059-1.409,0.089-2.119,0.089     c-1.823,0-3.599-0.184-5.315-0.545h-156.83c-1.717,0.361-3.492,0.545-5.315,0.545h-0.018c-14.377-0.012-26.02-11.66-26.02-26.038     c0-13.555,10.358-24.688,23.593-25.913c0.805-0.083,1.622-0.118,2.444-0.118c1.095,0,2.166,0.065,3.226,0.195h161.009     c1.06-0.13,2.131-0.195,3.226-0.195c1.545,0,3.06,0.136,4.528,0.397C352.702,377.44,361.989,388.106,361.989,400.939z"/>
			<path style="fill:#E89876;" d="M340.48,375.304v32.981c0,6.404-0.835,12.637-2.409,18.604c-0.698,0.059-1.409,0.089-2.119,0.089     c-1.823,0-3.599-0.184-5.315-0.545h-156.83c-1.717,0.361-3.492,0.545-5.315,0.545h-0.018c-1.586-5.996-2.427-12.252-2.427-18.692     v-33.259c0.805-0.083,1.622-0.118,2.444-0.118c1.095,0,2.166,0.065,3.226,0.195h161.009c1.06-0.13,2.131-0.195,3.226-0.195     C337.496,374.907,339.012,375.043,340.48,375.304z"/>
			<path style="fill:#E89876;" d="M332.725,363.371v54.112c0,38.722-27.701,70.975-64.369,78.025     c-4.883,0.941-9.932,1.432-15.093,1.432c-43.884,0-79.457-35.573-79.457-79.457v-54.112c0-43.884,35.573-79.463,79.457-79.463     c5.161,0,10.21,0.491,15.093,1.433c15.893,3.054,30.098,10.844,41.096,21.841C323.828,321.565,332.725,341.429,332.725,363.371z"/>
			<path style="fill:#FFCBB3;" d="M332.725,363.371v54.112c0,38.722-27.701,70.975-64.369,78.025     c-36.668-7.05-64.369-39.302-64.369-78.025v-54.112c0-38.722,27.701-70.981,64.369-78.03     c15.893,3.054,30.098,10.844,41.096,21.841C323.828,321.565,332.725,341.429,332.725,363.371z"/>
			<path style="fill:#3E5268;" d="M328.001,246.535l-35.647,35.647c-3.02-7.415-10.288-12.647-18.788-12.647     c-6.975,0-13.126,3.522-16.777,8.883c-9.316-11.477-23.532-18.813-39.468-18.813c-28.076,0-50.835,22.76-50.835,50.835     c0,28.076,22.76,50.835,50.835,50.835c11.729,0,22.521-3.982,31.122-10.654c25.245,14.469,57.996,10.936,79.559-10.626     C353.809,314.186,353.809,272.343,328.001,246.535z"/>
			<path style="fill:#27394C;" d="M196.989,310.44c0,22.759,14.957,42.03,35.576,48.505c-4.804,1.516-9.931,2.329-15.247,2.329     c-28.075,0-50.835-22.759-50.835-50.835c0-28.076,22.759-50.835,50.835-50.835c5.316,0,10.432,0.814,15.247,2.329     C211.947,268.41,196.989,287.681,196.989,310.44z"/>
		</g>
		<path style="fill:#FC74AF;" d="M330.233,97.704L265.032,13.77c-6.494-8.36-19.127-8.36-25.621,0l-65.202,83.934    c-4.97,6.398-0.411,15.713,7.691,15.713h25.338v69.881c0,4.596,3.726,8.323,8.323,8.323h73.321c4.596,0,8.323-3.726,8.323-8.323    v-69.881h25.338C330.644,113.417,335.203,104.102,330.233,97.704z"/>
		<g>
			<path style="fill:#70E6D1;" d="M135.805,130.581l-102.901-26.6c-10.25-2.65-20.249,5.069-20.282,15.656l-0.326,106.283     c-0.025,8.101,9.277,12.689,15.69,7.739l20.058-15.483l42.7,55.317c2.809,3.639,8.035,4.311,11.674,1.503l58.04-44.803     c3.639-2.809,4.311-8.035,1.503-11.674l-42.7-55.317l20.058-15.483C145.732,142.769,143.649,132.609,135.805,130.581z"/>
			<path style="fill:#FFE563;" d="M368.637,130.581l102.901-26.6c10.25-2.65,20.249,5.069,20.282,15.656l0.326,106.283     c0.025,8.101-9.277,12.689-15.69,7.739l-20.058-15.483l-42.7,55.317c-2.809,3.639-8.035,4.311-11.674,1.503l-58.04-44.803     c-3.639-2.809-4.311-8.035-1.503-11.674l42.7-55.317l-20.058-15.483C358.711,142.769,360.794,132.609,368.637,130.581z"/>
		</g>
	</g>
	<g>
		<path d="M340.227,367.69v-4.321c0-7.622-0.997-15.141-2.94-22.418c24.618-28.88,23.304-72.432-3.983-99.72    c-1.407-1.407-3.314-2.197-5.304-2.197s-3.896,0.79-5.304,2.197l-29.206,29.207c-5.123-5.283-12.238-8.403-19.927-8.403    c-6.094,0-11.919,1.994-16.666,5.555c-10.711-9.925-24.742-15.485-39.579-15.485c-32.166,0-58.335,26.169-58.335,58.335    c0,11.942,3.613,23.054,9.795,32.31c-1.635,6.717-2.471,13.635-2.471,20.619v4.119c-17.464,1.144-31.326,15.705-31.326,33.451    c0,18.311,14.752,33.231,32.995,33.524c7.919,39.848,43.149,69.98,85.288,69.98c5.547,0,11.103-0.529,16.508-1.572    c14.881-2.86,28.832-9.633,40.346-19.587c3.134-2.709,3.478-7.445,0.769-10.579c-2.71-3.134-7.446-3.477-10.579-0.768    c-9.526,8.236-21.064,13.839-33.371,16.204c-4.477,0.863-9.076,1.301-13.672,1.301c-39.677,0-71.957-32.28-71.957-71.957V363.37    c0-2.288,0.116-4.566,0.329-6.829c9.872,7.659,22.249,12.235,35.682,12.235c11.398,0,22.26-3.224,31.698-9.366    c24.496,11.956,53.615,9.237,75.436-6.563c0.509,3.467,0.774,6.98,0.774,10.524v11.798c0,0.04-0.001,0.08,0,0.121v42.198    c0,12.292-3.151,24.42-9.113,35.074c-2.022,3.615-0.732,8.185,2.883,10.208c1.158,0.648,2.415,0.957,3.655,0.957    c2.627,0,5.178-1.383,6.552-3.839c4.452-7.954,7.603-16.586,9.367-25.52c17.272-1.343,30.917-15.816,30.917-33.425    C369.488,383.9,356.707,369.799,340.227,367.69z M149.982,400.939c0-9.469,7.145-17.289,16.326-18.387v34.934    c0,0.618,0.01,1.234,0.023,1.85C157.139,418.248,149.982,410.419,149.982,400.939z M252.172,344.114    c-2.638-1.512-5.925-1.282-8.326,0.581c-7.659,5.94-16.831,9.081-26.526,9.081c-23.895,0-43.335-19.44-43.335-43.335    c0-23.895,19.44-43.335,43.335-43.335c13.107,0,25.371,5.847,33.645,16.04c1.494,1.841,3.777,2.873,6.138,2.767    c2.368-0.099,4.55-1.312,5.885-3.271c2.39-3.51,6.344-5.605,10.577-5.605c5.222,0,9.87,3.13,11.843,7.976    c0.948,2.327,2.998,4.025,5.461,4.523c2.464,0.496,5.012-0.271,6.789-2.048l30.006-30.006    c17.733,22.959,16.079,56.167-4.966,77.212C304.042,353.346,275.042,357.222,252.172,344.114z M340.204,418.966    c0.008-0.493,0.024-0.986,0.024-1.48v-34.56c8.163,1.938,14.261,9.269,14.261,18.014    C354.488,409.696,348.379,417.036,340.204,418.966z"/>
		<path d="M253.264,459.189c10.78,0,21.562-4.104,29.769-12.311c2.929-2.929,2.929-7.678,0-10.606c-2.93-2.929-7.678-2.929-10.607,0    c-10.564,10.565-27.757,10.565-38.323,0c-2.929-2.929-7.678-2.929-10.606,0c-2.929,2.929-2.929,7.678,0,10.606    C231.703,455.085,242.484,459.189,253.264,459.189z"/>
		<path d="M226.148,406.768v-19.532c0-4.142-3.358-7.5-7.5-7.5s-7.5,3.358-7.5,7.5v19.532c0,4.142,3.358,7.5,7.5,7.5    S226.148,410.91,226.148,406.768z"/>
		<path d="M295.382,406.768v-19.532c0-4.142-3.357-7.5-7.5-7.5s-7.5,3.358-7.5,7.5v19.532c0,4.142,3.357,7.5,7.5,7.5    S295.382,410.91,295.382,406.768z"/>
		<path d="M181.9,120.917h17.838v62.381c0,8.725,7.098,15.823,15.823,15.823h73.321c8.725,0,15.822-7.098,15.822-15.823v-62.381    h17.839c6.635,0,12.567-3.702,15.484-9.661c2.916-5.959,2.199-12.915-1.871-18.154v0L270.955,9.169    C266.428,3.342,259.6,0,252.222,0c0,0,0,0,0,0c-7.379,0-14.208,3.342-18.734,9.169l-65.202,83.934    c-4.07,5.239-4.786,12.195-1.87,18.154C169.333,117.216,175.266,120.917,181.9,120.917z M180.132,102.305l65.202-83.934    c1.665-2.143,4.175-3.371,6.888-3.371s5.224,1.229,6.888,3.371l65.201,83.934c0,0,0,0,0,0c0.709,0.911,0.523,1.785,0.243,2.357    c-0.28,0.573-0.856,1.255-2.011,1.255h-25.339c-4.143,0-7.5,3.358-7.5,7.5v69.881c0,0.454-0.369,0.823-0.822,0.823h-73.321    c-0.454,0-0.823-0.369-0.823-0.823v-69.881c0-4.142-3.358-7.5-7.5-7.5H181.9c-1.154,0-1.73-0.682-2.011-1.255    S179.424,103.217,180.132,102.305z"/>
		<path d="M171.066,225.625c0.54-4.192-0.585-8.343-3.168-11.688l-38.117-49.38l14.121-10.9c5.251-4.054,7.686-10.609,6.354-17.108    c-1.332-6.499-6.15-11.568-12.573-13.228l-51.041-13.194c-4.006-1.036-8.102,1.374-9.138,5.384    c-1.037,4.01,1.374,8.102,5.384,9.138l51.041,13.194c1.118,0.289,1.505,1.094,1.633,1.718s0.089,1.516-0.825,2.222l-20.058,15.483    c-1.574,1.215-2.602,3.007-2.855,4.979s0.286,3.966,1.501,5.541l42.7,55.317c0.277,0.359,0.21,0.876-0.148,1.153l-58.04,44.803    c-0.359,0.276-0.878,0.21-1.154-0.148l-42.7-55.317c-1.215-1.574-3.007-2.602-4.979-2.855c-1.977-0.255-3.966,0.286-5.541,1.501    l-20.058,15.483c-0.914,0.707-1.786,0.519-2.358,0.236c-0.571-0.282-1.251-0.86-1.248-2.015l0.326-106.283    c0.008-2.713,1.245-5.219,3.392-6.877c2.148-1.658,4.888-2.218,7.513-1.54l27.072,6.998c4.01,1.038,8.102-1.374,9.138-5.384    c1.037-4.01-1.374-8.102-5.384-9.138l-27.072-6.998c-7.143-1.847-14.59-0.32-20.433,4.189c-5.841,4.509-9.204,11.327-9.226,18.705    L4.797,225.896c-0.021,6.634,3.663,12.579,9.613,15.513c5.951,2.936,12.909,2.239,18.16-1.814l14.121-10.9l38.118,49.381    c3.114,4.033,7.804,6.147,12.543,6.147c3.376,0,6.777-1.074,9.65-3.291l58.041-44.803    C168.387,233.547,170.527,229.816,171.066,225.625z"/>
		<path d="M499.32,119.613c-0.023-7.379-3.387-14.197-9.228-18.705c-5.84-4.508-13.287-6.035-20.432-4.188l-102.9,26.6    c-6.423,1.66-11.241,6.729-12.573,13.228c-1.333,6.499,1.103,13.054,6.354,17.108l14.121,10.9l-38.117,49.38    c-2.583,3.345-3.708,7.497-3.168,11.688c0.539,4.192,2.679,7.922,6.024,10.505l58.04,44.803c2.874,2.218,6.274,3.292,9.65,3.291    c4.739,0,9.431-2.115,12.543-6.147l38.118-49.38l14.12,10.9c5.252,4.054,12.21,4.748,18.159,1.815    c5.949-2.935,9.633-8.879,9.613-15.514L499.32,119.613z M483.396,227.957c-0.57,0.282-1.444,0.47-2.357-0.236l-20.058-15.483    c-1.575-1.215-3.567-1.755-5.541-1.501c-1.973,0.254-3.764,1.281-4.979,2.855l-42.7,55.317c-0.278,0.359-0.795,0.425-1.154,0.148    l-58.04-44.803c-0.18-0.138-0.285-0.322-0.313-0.546c-0.029-0.224,0.026-0.428,0.164-0.607l42.7-55.317    c1.216-1.575,1.756-3.568,1.502-5.541s-1.281-3.764-2.855-4.979l-20.058-15.483c-0.914-0.705-0.953-1.597-0.825-2.222    s0.515-1.429,1.633-1.718l102.9-26.6c0.73-0.189,1.47-0.282,2.203-0.282c1.901,0,3.759,0.625,5.31,1.822    c2.147,1.658,3.384,4.165,3.393,6.878l0.325,106.282C484.649,227.097,483.969,227.675,483.396,227.957z"/>
	</g>
</g>















</svg>
