<svg id="Layer_1" enable-background="new 0 0 64 64" height="512" viewBox="0 0 64 64" width="512" xmlns="http://www.w3.org/2000/svg"><path d="m44.5 19.6-2.5-.6v7l2.9-1.4c.7-.3 1.1-1 1.1-1.8v-1.2c0-.9-.6-1.7-1.5-2z" fill="#eaa28c"/><path d="m19.5 19.6 2.5-.6v7l-2.9-1.4c-.7-.3-1.1-1-1.1-1.8v-1.2c0-.9.6-1.7 1.5-2z" fill="#eaa28c"/><path d="m48 35.8-9-2.8h-14l-9 2.8c-4.2 1.3-7 5.2-7 9.5v15.7h45c.6 0 1-.4 1-1v-14.6c0-4.4-2.8-8.3-7-9.6z" fill="#2b2b2b"/><path d="m25.7 33 6.3 19 6.3-19z" fill="#e5e1dc"/><g fill="#3f3f3f"><path d="m19 51h2v10h-2z"/><path d="m31 55h2v3h-2z"/><path d="m19 45 3-2 10 9-6.3-19h-.7l-9 2.8c-.6.2-1.2.4-1.7.7z"/><path d="m45 45-3-2-10 9 6.3-19h.7l9 2.8c.6.2 1.2.4 1.7.7z"/></g><path d="m21 11v15.1c0 3.1 1.6 5.9 4.2 7.6l2.5 1.6c2.6 1.7 6 1.7 8.6 0l2.5-1.6c2.6-1.7 4.2-4.5 4.2-7.6v-15.1z" fill="#f7b49a"/><path d="m37 22h6v2h-6z" fill="#e9e9e9"/><path d="m21 22h6v2h-6z" fill="#e9e9e9"/><path d="m21 10h22v7h-22z" fill="#2b2b2b"/><path d="m45 8h2v8h-2z" fill="#2b2b2b"/><path d="m45.4 5.7-13.4-2.7-13.4 2.7c-.9.2-1.6 1-1.6 2v.7c0 1 .7 1.8 1.6 2l13 2.6c.3.1.5.1.8 0l13-2.6c.9-.2 1.6-1 1.6-2v-.8c0-.9-.7-1.7-1.6-1.9z" fill="#3f3f3f"/><path d="m30.9 22.3 2.2 3.3c.6.8 1.5 1.3 2.5 1.3h.4c1.7 0 3-1.3 3-3 0-1.7-1.3-3-3-3h-.4c-1 0-1.9.5-2.5 1.3l-2.2 3.3c-.6.8-1.5 1.3-2.5 1.3h-.4c-1.7 0-3-1.3-3-3 0-1.7 1.3-3 3-3h.4c1 .2 1.9.7 2.5 1.5z" fill="#4d7589"/><path d="m43 51h2v10h-2z" fill="#3f3f3f"/><path d="m55 39h-12c-1.1 0-2 .9-2 2v18c0 1.1.9 2 2 2h11c1.7 0 3-1.3 3-3v-17c0-1.1-.9-2-2-2z" fill="#e5e1dc"/><path d="m51 58v-1h-14v1c0 1.7 1.3 3 3 3h14c-1.7 0-3-1.3-3-3z" fill="#d3d1cf"/><path d="m46.2 47.5h3.6v2h-3.6z" fill="#f4a422" transform="matrix(.555 -.832 .832 .555 -18.98 61.535)"/><path d="m49 46.7h2v3.6h-2z" fill="#f4a422" transform="matrix(.832 -.555 .555 .832 -18.506 35.881)"/><path d="m44 52h10v2h-10z" fill="#b4b4b5"/><circle cx="49" cy="45" fill="#f4c167" r="2"/><text fill="#999" font-family="'SukhumvitSet-SemiBold'" font-size="6" transform="translate(57.04 -1.956)">76</text></svg>