<svg id="Layer_1" enable-background="new 0 0 128 128" height="512" viewBox="0 0 128 128" width="512" xmlns="http://www.w3.org/2000/svg"><g><g><path d="m117.158 97.558h-7.126v-26.111h1.542c2.887 0 5.236-2.349 5.236-5.236v-19.812c0-2.887-2.349-5.235-5.236-5.235h-1.542v-4.432c0-3.45-2.806-6.256-6.256-6.256h-7.821v-13.555c0-1.725-1.403-3.128-3.128-3.128v-2.085c0-.576-.467-1.043-1.043-1.043h-3.65c-.576 0-1.043.466-1.043 1.043v2.085c-1.725 0-3.128 1.403-3.128 3.128v13.556h-45.879v-1.564c0-1.725-1.403-3.128-3.128-3.128h-4.17c-1.725 0-3.128 1.403-3.128 3.128v1.564h-4.171c-3.45 0-6.256 2.806-6.256 6.256v5.474 29.197c0 2.3 1.871 4.171 4.171 4.171v2.607c0 1.725 1.403 3.128 3.128 3.128h1.043v1.043c0 1.725 1.403 3.128 3.128 3.128v8.603c0 .576.467 1.043 1.043 1.043s1.043-.466 1.043-1.043v-8.604c1.725 0 3.128-1.403 3.128-3.128v-1.043h1.043c1.725 0 3.128-1.403 3.128-3.128v-2.607c2.3 0 4.171-1.871 4.171-4.171v-8.342c0-2.3 1.871-4.171 4.171-4.171h25.026c2.3 0 4.171 1.871 4.171 4.171v34.497h-60.655c-4.6 0-8.342 3.742-8.342 8.342v12.435c0 1.725 1.403 3.128 3.128 3.128h112.615c1.725 0 3.128-1.403 3.128-3.128v-12.435c.001-4.599-3.741-8.342-8.341-8.342z" fill="#e6e7e8"/></g><g><g><path d="m112.987 94.43h-102.188c-4.031 0-7.299 3.268-7.299 7.299v6.257h116.786v-6.257c0-4.031-3.268-7.299-7.299-7.299z" fill="#6dc9f7"/></g><path d="m3.5 107.986v6.178c0 1.152.934 2.085 2.086 2.085h112.615c1.152 0 2.085-.934 2.085-2.085v-6.178z" fill="#0089ef"/><path d="m107.576 38.036h-2.757v28.197h2.757c2.221 0 4.021-1.8 4.021-4.021v-20.155c0-2.221-1.8-4.021-4.021-4.021z" fill="#6dc9f7"/><path d="m99.819 27.348h-80.718c-2.761 0-5 2.239-5 5v5.688h90.718v-5.688c0-2.761-2.239-5-5-5z" fill="#ffd7e5"/><g><path d="m99.819 27.348h-80.718c-2.761 0-5 2.239-5 5v3c0-2.761 2.239-5 5-5h80.718c2.761 0 5 2.239 5 5v-3c0-2.761-2.239-5-5-5z" fill="#fff"/></g><path d="m30.87 22.656h-4.341c-1.105 0-2 .895-2 2v2.692h8.341v-2.692c0-1.105-.896-2-2-2z" fill="#d4fbff"/><path d="m88.742 10.664h-5.906c-1.105 0-2 .895-2 2v14.684h9.906v-14.684c0-1.104-.895-2-2-2z" fill="#6dc9f7"/><path d="m83.964 7.536h3.65v3.128h-3.65z" fill="#d4fbff"/><g><path d="m18.272 70.361v3.735c0 1.105.895 2 2 2h10.598c1.105 0 2-.895 2-2v-3.735z" fill="#6dc9f7"/><path d="m22.443 76.096v2.171c0 1.105.895 2 2 2h2.256c1.105 0 2-.895 2-2v-2.171z" fill="#d4fbff"/></g><g><path d="m14.101 38.036v29.197c0 1.728 1.401 3.128 3.128 3.128h16.684c1.728 0 3.128-1.401 3.128-3.128v-8.342c0-2.879 2.334-5.214 5.214-5.214h25.026c2.879 0 5.214 2.334 5.214 5.214v35.54h32.325v-56.395z" fill="#fa759e"/><ellipse cx="25.571" cy="51.331" fill="#6dc9f7" rx="5.474" ry="5.474" transform="matrix(.383 -.924 .924 .383 -31.638 55.312)"/><g><path d="m43.298 45.335v2.085c0 .576.467 1.043 1.043 1.043h20.855c.576 0 1.043-.467 1.043-1.043v-2.085c0-.576-.467-1.043-1.043-1.043h-20.856c-.575 0-1.042.467-1.042 1.043z" fill="#d4fbff"/></g><g><path d="m43.298 45.335v2.085c0 .576.467 1.043 1.043 1.043h13.555v-4.171h-13.556c-.575 0-1.042.467-1.042 1.043z" fill="#6dc9f7"/></g><g><path d="m43.298 45.335v2.085c0 .576.467 1.043 1.043 1.043h7.299v-4.171h-7.3c-.575 0-1.042.467-1.042 1.043z" fill="#0089ef"/></g><path d="m96.172 45.856h-15.03c-1.105 0-2 .896-2 2v6.949c0 1.105.895 2 2 2h15.03c1.105 0 2-.895 2-2v-6.949c0-1.104-.896-2-2-2z" fill="#d4fbff"/><g fill="#3a2c60"><path d="m112.987 93.431h-7.168v-26.198h1.757c2.769 0 5.021-2.252 5.021-5.021v-20.155c0-2.769-2.252-5.021-5.021-5.021h-1.757v-4.688c0-3.309-2.691-6-6-6h-8.077v-13.684c0-1.654-1.346-3-3-3h-.128v-2.128c0-.553-.448-1-1-1h-3.649c-.552 0-1 .447-1 1v2.128h-.128c-1.654 0-3 1.346-3 3v13.684h-45.967v-1.692c0-1.654-1.346-3-3-3h-4.341c-1.654 0-3 1.346-3 3v1.692h-4.427c-3.309 0-6 2.691-6 6v5.688 29.196c0 2.276 1.852 4.128 4.128 4.128h.042v2.735c0 1.654 1.346 3 3 3h1.171v1.171c0 1.654 1.346 3 3 3h.128v8.646c0 .553.448 1 1 1s1-.447 1-1v-8.646h.128c1.654 0 3-1.346 3-3v-1.171h1.171c1.654 0 3-1.346 3-3v-2.735h.043c2.276 0 4.128-1.852 4.128-4.128v-8.342c0-2.323 1.89-4.214 4.214-4.214h25.026c2.323 0 4.213 1.891 4.213 4.214v34.54h-60.695c-4.576 0-8.299 3.723-8.299 8.299v12.435c0 1.701 1.384 3.086 3.085 3.086h112.615c1.701 0 3.085-1.385 3.085-3.086v-12.435c.001-4.576-3.722-8.298-8.298-8.298zm-2.39-51.374v20.156c0 1.665-1.355 3.021-3.021 3.021h-1.757v-26.198h1.757c1.666 0 3.021 1.356 3.021 3.021zm-25.633-33.521h1.649v1.128h-1.649zm-3.128 4.128c0-.552.449-1 1-1h1.128 3.649 1.128c.551 0 1 .448 1 1v13.684h-7.906v-13.684zm-56.308 11.991c0-.552.449-1 1-1h4.341c.551 0 1 .448 1 1v1.692h-6.341zm-10.427 7.693c0-2.206 1.794-4 4-4h5.427 8.341 47.966 9.906 9.077c2.206 0 4 1.794 4 4v4.688h-88.717zm12.598 45.919c0 .552-.449 1-1 1h-2.256c-.551 0-1-.448-1-1v-1.171h4.256zm4.171-4.171c0 .552-.449 1-1 1h-2.171-6.256-2.171c-.551 0-1-.448-1-1v-2.736h12.598zm35.411-21.419h-25.026c-3.426 0-6.214 2.787-6.214 6.214v8.342c0 1.174-.955 2.128-2.128 2.128h-1.043-14.598-1.042c-1.174 0-2.128-.954-2.128-2.128v-28.197h88.718v27.197 27.197h-30.326v-34.54c0-3.426-2.787-6.213-6.213-6.213zm52.005 61.487c0 .599-.487 1.086-1.085 1.086h-112.616c-.599 0-1.085-.487-1.085-1.086v-5.178h13.5c.552 0 1-.447 1-1s-.448-1-1-1h-13.5v-5.257c0-3.474 2.826-6.299 6.299-6.299h61.695 32.325 8.168c3.474 0 6.299 2.825 6.299 6.299v5.257h-83.786c-.552 0-1 .447-1 1s.448 1 1 1h83.786z"/><path d="m31.045 106.986h-8.603c-.552 0-1 .447-1 1s.448 1 1 1h8.603c.552 0 1-.447 1-1s-.447-1-1-1z"/><path d="m25.571 44.856c-3.57 0-6.475 2.904-6.475 6.475s2.904 6.475 6.475 6.475c3.57 0 6.474-2.904 6.474-6.475s-2.904-6.475-6.474-6.475zm0 10.95c-2.467 0-4.475-2.007-4.475-4.475s2.007-4.475 4.475-4.475c2.467 0 4.474 2.007 4.474 4.475s-2.007 4.475-4.474 4.475z"/><path d="m81.142 57.806h15.03c1.654 0 3-1.346 3-3v-6.949c0-1.654-1.346-3-3-3h-15.03c-1.654 0-3 1.346-3 3v6.949c0 1.654 1.345 3 3 3zm-1-9.95c0-.552.449-1 1-1h15.03c.551 0 1 .448 1 1v6.949c0 .552-.449 1-1 1h-15.03c-.551 0-1-.448-1-1z"/><path d="m79.142 66.147h19.03c.552 0 1-.447 1-1s-.448-1-1-1h-19.03c-.552 0-1 .447-1 1s.447 1 1 1z"/><path d="m79.142 71.36h19.03c.552 0 1-.447 1-1s-.448-1-1-1h-19.03c-.552 0-1 .447-1 1s.447 1 1 1z"/><path d="m79.142 76.574h19.03c.552 0 1-.447 1-1s-.448-1-1-1h-19.03c-.552 0-1 .447-1 1s.447 1 1 1z"/></g></g></g></g></svg>