<?xml version="1.0" encoding="iso-8859-1"?>
<!-- Generator: Adobe Illustrator 19.0.0, SVG Export Plug-In . SVG Version: 6.00 Build 0)  -->
<svg version="1.1" id="Capa_1" xmlns="http://www.w3.org/2000/svg" xmlns:xlink="http://www.w3.org/1999/xlink" x="0px" y="0px"
	 viewBox="0 0 512 512" style="enable-background:new 0 0 512 512;" xml:space="preserve">
<circle style="fill:#1F66CC;" cx="256" cy="256" r="256"/>
<path style="fill:#154797;" d="M267.021,511.749c132.143-5.599,238.362-111.356,244.674-243.313l-91.207-91.208l13.222,116.917
	L257.581,118.016L74.746,199.582l122.262,122.261l-57.498,62.394L267.021,511.749z"/>
<path style="fill:#FFEC7C;" d="M420.487,177.227c-5.962,40.373-40.014,71.32-81.133,71.32c-45.321,0-82.061-37.594-82.061-83.969
	c0-13.354,1.535-25.451,6.956-36.661c-78.373,10.5-148.94,111.47-156.574,167.958c-10.163,75.203,64.122,140.076,181.297,140.076
	c85.226,0,162.027-97.014,162.027-172.9C451,230.579,443.036,200.744,420.487,177.227z"/>
<path style="fill:#FFDE1F;" d="M420.488,177.228c-5.962,40.373-40.014,71.32-81.133,71.32c-45.321,0-82.061-37.594-82.061-83.969
	c0-13.354,1.535-25.451,6.956-36.661c-3.287,0.44-5.037,0.534-8.298,1.284v304.941c10.575,1.184,21.591,1.81,33.021,1.81
	c85.226,0,162.027-97.014,162.027-172.9C451,230.579,443.036,200.744,420.488,177.228z"/>
<path style="fill:#FE9A35;" d="M284.91,380.404c-23.909,0-49.487-9.631-73.76-33.086l13.897-14.382
	c45.21,43.686,91.233,28.159,116.906,1.589c6.958-7.2,11.828-15.933,14.447-25.771c-6.428,2.016-13.192,2.927-19.985,2.641
	c-13.968-0.589-27.157-6.226-37.139-15.872l13.898-14.382c13.206,12.762,34.435,13.712,49.379,2.211l16.178-12.451l-0.079,20.415
	c-0.086,22.021-8.011,42.302-22.316,57.106C337.801,367.605,312.464,380.404,284.91,380.404z"/>
<path style="fill:#FF7C11;" d="M362.555,283.353c-14.944,11.5-36.173,10.55-49.379-2.211l-13.898,14.382
	c9.981,9.646,23.171,15.282,37.139,15.872c6.793,0.286,13.558-0.625,19.985-2.641c-2.619,9.838-7.489,18.571-14.447,25.771
	c-19.799,20.491-51.703,34.406-86.002,19.666v21.43c9.791,3.271,19.505,4.783,28.958,4.783c27.554,0,52.891-12.799,71.427-31.981
	c14.306-14.804,22.23-35.085,22.316-57.106l0.079-20.415L362.555,283.353z"/>
<circle style="fill:#FFDE1F;" cx="193.94" cy="174.5" r="85.1"/>
<path style="fill:#FE9A35;" d="M126.838,162.035H72.155c-9.865,0-16.147,10.444-11.627,19.212
	c8.129,15.766,27.037,36.071,70.818,39.747c7.381,0.62,13.379-5.884,12.184-13.194l-5.995-36.674
	C136.679,165.884,132.15,162.035,126.838,162.035z"/>
<circle style="fill:#4D4D4D;" cx="173.9" cy="167.06" r="14.695"/>
<g>
</g>
<g>
</g>
<g>
</g>
<g>
</g>
<g>
</g>
<g>
</g>
<g>
</g>
<g>
</g>
<g>
</g>
<g>
</g>
<g>
</g>
<g>
</g>
<g>
</g>
<g>
</g>
<g>
</g>
</svg>
