<svg viewBox="1 1 511.99998 511.99998" xmlns="http://www.w3.org/2000/svg"><path d="m512 256c0 141.386719-114.613281 256-256 256s-256-114.613281-256-256 114.613281-256 256-256 256 114.613281 256 256zm0 0" fill="#5a9ed1"/><path d="m347.097656 495.324219c-28.304687 10.769531-59.003906 16.675781-91.09375 16.675781s-62.789062-5.90625-91.09375-16.675781l20.9375-60.648438 16.867188-48.828125h106.578125l16.863281 48.828125zm0 0" fill="#583377"/><path d="m326.15625 434.675781-154.945312 42.386719 31.503906-91.214844h106.578125zm0 0" fill="#442463"/><path d="m502.078125 80.121094v246.722656c-8.359375 29.089844-21.746094 56.058594-39.144531 79.902344h-413.863282c-17.394531-23.84375-30.78125-50.8125-39.140624-79.902344v-246.722656c0-16.96875 13.75-30.730469 30.71875-30.730469h430.699218c16.96875 0 30.730469 13.761719 30.730469 30.730469zm0 0" fill="#583377"/><path d="m40.652344 343.429688c-5.417969 0-9.828125-4.40625-9.828125-9.824219v-253.488281c0-5.417969 4.410156-9.828126 9.828125-9.828126h430.695312c5.421875 0 9.828125 4.410157 9.828125 9.828126v253.488281c0 5.417969-4.410156 9.824219-9.828125 9.824219zm0 0" fill="#ff4f9b"/><path d="m124.046875 252.035156h-49.894531c-6.183594 0-11.089844-4.050781-11.089844-11.515625 0-1.703125.425781-4.050781 1.707031-6.394531l49.257813-96.59375c3.195312-6.183594 8.527344-8.53125 13.859375-8.53125 5.757812 0 16.632812 4.902344 16.632812 12.582031 0 1.277344-.429687 2.558594-1.066406 4.050781l-37.742187 75.695313h18.335937v-14.925781c0-7.035156 8.316406-10.019532 16.632813-10.019532 8.3125 0 16.628906 2.984376 16.628906 10.019532v14.925781h9.171875c6.820312 0 10.234375 7.679687 10.234375 15.355469 0 7.675781-5.117188 15.351562-10.234375 15.351562h-9.171875v22.601563c0 6.824219-8.316406 10.238281-16.628906 10.238281-8.316407 0-16.632813-3.414062-16.632813-10.238281zm0 0" fill="#fcda42"/><path d="m395.972656 252.035156h-49.894531c-6.183594 0-11.089844-4.050781-11.089844-11.515625 0-1.703125.425781-4.050781 1.703125-6.394531l49.257813-96.59375c3.199219-6.183594 8.53125-8.53125 13.863281-8.53125 5.757812 0 16.628906 4.902344 16.628906 12.582031 0 1.277344-.425781 2.558594-1.0625 4.050781l-37.746094 75.695313h18.339844v-14.925781c0-7.035156 8.316406-10.019532 16.632813-10.019532 8.316406 0 16.628906 2.984376 16.628906 10.019532v14.925781h9.171875c6.820312 0 10.234375 7.679687 10.234375 15.355469 0 7.675781-5.117187 15.351562-10.234375 15.351562h-9.171875v22.601563c0 6.824219-8.316406 10.238281-16.628906 10.238281-8.316407 0-16.632813-3.414062-16.632813-10.238281zm0 0" fill="#fcda42"/><path d="m334.75 206.125c0 43.492188-35.257812 78.75-78.75 78.75s-78.75-35.257812-78.75-78.75 35.257812-78.75 78.75-78.75 78.75 35.257812 78.75 78.75zm0 0" fill="#fff"/><g fill="#ff4f9b"><path d="m225.539062 253.242188-16.65625-16.65625c-2.542968-2.539063-2.542968-6.660157 0-9.203126l68.375-68.375c2.542969-2.542968 6.664063-2.542968 9.203126 0l16.65625 16.65625c2.542968 2.539063 2.542968 6.660157 0 9.203126l-68.375 68.375c-2.542969 2.542968-6.664063 2.542968-9.203126 0zm0 0"/><path d="m208.882812 175.664062 16.65625-16.65625c2.539063-2.542968 6.660157-2.542968 9.203126 0l68.375 68.375c2.542968 2.542969 2.542968 6.664063 0 9.203126l-16.65625 16.65625c-2.539063 2.542968-6.660157 2.542968-9.203126 0l-68.375-68.375c-2.542968-2.542969-2.542968-6.664063 0-9.203126zm0 0"/></g></svg>