<svg height="512pt" viewBox="0 0 512 512" width="512pt" xmlns="http://www.w3.org/2000/svg"><path d="m512 256c0 31.230469-5.589844 61.15625-15.839844 88.835938-18.609375 50.3125-52.589844 93.183593-96.246094 122.902343-41.011718 27.941407-90.550781 44.261719-143.914062 44.261719-46.914062 0-90.886719-12.621094-128.691406-34.660156-35.734375-20.804688-65.960938-50.027344-87.980469-84.9375-24.917969-39.488282-39.328125-86.269532-39.328125-136.402344 0-54.605469 17.09375-105.230469 46.238281-146.789062 21.542969-30.730469 49.671875-56.515626 82.335938-75.292969 37.523437-21.578125 81.03125-33.917969 127.425781-33.917969 141.386719 0 256 114.613281 256 256zm0 0" fill="#0077b4"/><g fill="#f1f1f1"><path d="m87.625 15.675781c30.492188.023438 55.644531 25.210938 55.578125 55.859375-.074219 32.089844-26.707031 56.277344-55.957031 55.578125-29.667969.601563-55.742188-24.179687-55.734375-55.792969 0-30.65625 25.246093-55.667968 56.113281-55.644531zm0 0"/><path d="m135.378906 185.09375v278.738281c0 5.839844-3.261718 10.917969-8.070312 13.507813-35.734375-20.804688-65.960938-50.027344-87.980469-84.9375v-207.308594c0-8.476562 6.878906-15.351562 15.363281-15.351562h65.324219c8.484375 0 15.363281 6.875 15.363281 15.351562zm0 0"/><path d="m496.160156 267.640625v77.195313c-18.609375 50.3125-52.589844 93.183593-96.246094 122.902343v-167.007812c0-14.867188-6.03125-28.347657-15.789062-38.09375-9.875-9.886719-23.59375-15.945313-38.714844-15.78125-29.621094.335937-53.257812 24.945312-53.257812 54.566406v171.40625c0 3.519531-2.851563 6.371094-6.371094 6.371094l-83.289062-.019531c-3.523438 0-6.375-2.851563-6.375-6.375v-296.6875c0-3.519532 2.851562-6.375 6.375-6.375h81.511718c3.519532 0 6.375 2.855468 6.375 6.375v34.210937c.007813-.011719.320313.03125.875.113281 1.566406-2.851562 3.28125-5.609375 5.140625-8.265625 16.980469-24.386719 45.234375-40.332031 77.199219-40.332031h16.757812c58.433594 0 105.808594 47.367188 105.808594 105.796875zm0 0"/></g></svg>