<svg height="512pt" viewBox="0 0 512 512" width="512pt" xmlns="http://www.w3.org/2000/svg"><path d="m512 256c0 56.058594-18.023438 107.917969-48.585938 150.089844-18.726562 25.828125-42.164062 48.035156-69.058593 65.328125-9.070313 5.851562-18.527344 11.125-28.339844 15.785156-13.65625 6.523437-27.980469 11.851563-42.839844 15.882813-12.027343 3.273437-24.40625 5.683593-37.074219 7.160156-9.871093 1.160156-19.925781 1.753906-30.101562 1.753906-15.097656 0-29.882812-1.304688-44.261719-3.824219-21.234375-3.699219-41.566406-10.011719-60.65625-18.597656-6.730469-3.03125-13.300781-6.34375-19.707031-9.917969-1.035156-.574218-2.070312-1.171875-3.101562-1.753906-6.898438-3.980469-13.585938-8.277344-20.0625-12.863281-2.832032-2.007813-5.621094-4.066407-8.359376-6.1875-9.800781-7.542969-19.050781-15.796875-27.660156-24.679688-9.789062-10.09375-18.753906-20.992187-26.789062-32.589843-28.632813-41.335938-45.402344-91.503907-45.402344-145.585938 0-72.695312 30.300781-138.3125 78.964844-184.914062 45.972656-44.035157 108.332031-71.085938 177.035156-71.085938 68.691406 0 131.050781 27.050781 177.027344 71.074219 48.671875 46.601562 78.972656 112.230469 78.972656 184.925781zm0 0" fill="#66baed"/><path d="m326.351562 386.882812v43.550782c-41.523437 35.464844-102.671874 35.464844-144.195312 0v-43.550782c41.523438 35.464844 102.671875 35.464844 144.195312 0zm0 0" fill="#bfd5de"/><path d="m326.351562 386.882812v15.339844c-41.523437 35.464844-102.671874 35.464844-144.195312 0v-15.339844c41.523438 35.464844 102.671875 35.464844 144.195312 0zm0 0" fill="#dde8ed"/><path d="m433.433594 83.226562c0 84.78125-59.433594 155.667969-138.910156 173.234376-12.390626 2.769531-25.296876 4.21875-38.511719 4.21875-98.003907 0-177.457031-79.453126-177.457031-177.453126 0-4.074218.136718-8.128906.410156-12.140624 30.027344-28.765626 67.058594-50.28125 108.28125-61.753907 21.871094-6.082031 44.929687-9.332031 68.753906-9.332031s46.875 3.25 68.753906 9.332031c41.222656 11.472657 78.242188 32.988281 108.273438 61.742188.269531 4.011719.40625 8.066406.40625 12.152343zm0 0" fill="#6dc5ef"/><path d="m463.414062 406.089844c-33.847656 46.683594-83.070312 81.5-140.238281 96.996094-12.027343 3.273437-24.40625 5.683593-37.074219 7.160156v-59.769532c0-38.085937 29.332032-69.328124 66.65625-72.339843 1.964844-.164063 3.9375-.238281 5.933594-.238281h47.273438c5.589844 0 11.03125.617187 16.257812 1.816406 16.625 3.804687 31.085938 13.324218 41.191406 26.375zm0 0" fill="#bfd5de"/><path d="m463.414062 406.089844c-33.847656 46.683594-83.070312 81.5-140.238281 96.996094v-52.609376c0-40.082031 32.507813-72.578124 72.601563-72.578124h10.195312c23.375 0 44.167969 11.042968 57.441406 28.191406zm0 0" fill="#dde8ed"/><path d="m311.285156 297.835938c0 11.988281-8.757812 21.929687-20.226562 23.777343-1.253906.203125-2.542969.308594-3.859375.308594-13.304688 0-24.085938-10.78125-24.085938-24.085937 0-13.304688 10.78125-24.085938 24.085938-24.085938 1.316406 0 2.605469.105469 3.859375.308594 11.46875 1.84375 20.226562 11.785156 20.226562 23.777344zm0 0" fill="#d3a489"/><path d="m401.820312 404.082031-19.484374 31.257813-19.488282-31.257813" fill="#f74f4f"/><path d="m394.355469 471.417969c-9.070313 5.851562-18.527344 11.125-28.339844 15.785156l16.324219-59.996094zm0 0" fill="#f74f4f"/><path d="m311.285156 297.835938c0 11.988281-8.757812 21.929687-20.226562 23.777343-2.082032-7.578125-3.195313-15.550781-3.195313-23.777343 0-8.230469 1.113281-16.203126 3.195313-23.777344 11.46875 1.84375 20.226562 11.785156 20.226562 23.777344zm0 0" fill="#bf8e75"/><path d="m295.808594 297.835938c0 4.753906-3.855469 8.609374-8.609375 8.609374-4.753907 0-8.605469-3.855468-8.605469-8.609374 0-4.753907 3.851562-8.609376 8.605469-8.609376 4.753906 0 8.609375 3.855469 8.609375 8.609376zm0 0" fill="#bf8e75"/><path d="m382.328125 407.605469-32.679687 18.164062-9.941407-46.242187 20.304688-11.960938" fill="#bfd5de"/><path d="m382.328125 407.605469 32.683594 18.164062 9.941406-46.242187-20.308594-11.960938" fill="#bfd5de"/><path d="m453.378906 297.835938c0 11.988281 8.757813 21.929687 20.226563 23.777343 1.253906.203125 2.542969.308594 3.859375.308594 13.304687 0 24.085937-10.78125 24.085937-24.085937 0-13.304688-10.78125-24.085938-24.085937-24.085938-1.316406 0-2.605469.105469-3.859375.308594-11.46875 1.84375-20.226563 11.785156-20.226563 23.777344zm0 0" fill="#d3a489"/><g fill="#bf8e75"><path d="m453.378906 297.835938c0 11.988281 8.757813 21.929687 20.226563 23.777343 2.085937-7.578125 3.195312-15.550781 3.195312-23.777343 0-8.230469-1.109375-16.203126-3.195312-23.777344-11.46875 1.84375-20.226563 11.785156-20.226563 23.777344zm0 0"/><path d="m486.074219 297.835938c0 4.753906-3.855469 8.609374-8.609375 8.609374s-8.609375-3.855468-8.609375-8.609374c0-4.753907 3.855469-8.609376 8.609375-8.609376s8.609375 3.855469 8.609375 8.609376zm0 0"/><path d="m471.949219 285.035156c0 44.59375-32.578125 81.589844-75.234375 88.457032-4.675782.769531-9.480469 1.15625-14.382813 1.15625-49.496093 0-89.613281-40.117188-89.613281-89.613282 0-23.417968 8.132812-58.574218 22.839844-74.539062 16.375-17.777344 40.695312-15.078125 66.773437-15.078125 4.902344 0 9.703125.390625 14.382813 1.15625 42.65625 6.871093 75.234375 43.863281 75.234375 88.460937zm0 0"/><path d="m408.234375 349.925781v31.785157c0 11.636718-7.671875 21.472656-18.242187 24.738281-2.417969.75-4.996094 1.15625-7.664063 1.15625-14.300781 0-25.894531-11.589844-25.894531-25.894531v-31.785157zm0 0"/></g><path d="m408.234375 379.699219v2.011719c0 11.640624-7.671875 21.472656-18.242187 24.742187-9.535157-2.933594-16.703126-11.222656-18.027344-21.367187 1.730468.105468 3.46875.160156 5.21875.160156 4.898437 0 9.703125-.390625 14.382812-1.160156 5.761719-.925782 11.335938-2.410157 16.667969-4.386719zm0 0" fill="#d3a489"/><path d="m471.949219 285.035156c0 44.59375-32.578125 81.589844-75.234375 88.457032-42.652344-6.867188-75.230469-43.863282-75.230469-88.457032 0-27.460937 12.351563-52.039062 31.808594-68.480468 12.132812-10.257813 27.035156-17.339844 43.421875-19.980469 39.765625 6.402343 70.785156 38.996093 74.792968 79.523437.289063 2.941406.441407 5.925782.441407 8.9375zm0 0" fill="#d3a489"/><path d="m382.332031 329.171875c-7.503906 0-15.007812-1.882813-21.847656-5.640625-1.929687-1.0625-2.632813-3.484375-1.570313-5.414062 1.058594-1.929688 3.484376-2.632813 5.414063-1.574219 11.273437 6.199219 24.738281 6.199219 36.011719 0 1.929687-1.058594 4.355468-.355469 5.414062 1.574219 1.0625 1.929687.355469 4.351562-1.570312 5.414062-6.84375 3.757812-14.347656 5.640625-21.851563 5.640625zm0 0" fill="#bf8e75"/><path d="m363.25 279.816406c0 5.617188-4.554688 10.167969-10.167969 10.167969s-10.164062-4.550781-10.164062-10.167969c0-5.613281 4.550781-10.164062 10.164062-10.164062s10.167969 4.550781 10.167969 10.164062zm0 0" fill="#3d4159"/><path d="m421.75 279.816406c0 5.617188-4.550781 10.167969-10.164062 10.167969-5.617188 0-10.167969-4.550781-10.167969-10.167969 0-5.613281 4.550781-10.164062 10.167969-10.164062 5.613281 0 10.164062 4.550781 10.164062 10.164062zm0 0" fill="#3d4159"/><path d="m361.175781 278.023438c0 2.40625-1.949219 4.355468-4.355469 4.355468s-4.355468-1.949218-4.355468-4.355468 1.949218-4.355469 4.355468-4.355469 4.355469 1.949219 4.355469 4.355469zm0 0" fill="#fff"/><path d="m420.175781 278.023438c0 2.40625-1.949219 4.355468-4.355469 4.355468s-4.355468-1.949218-4.355468-4.355468 1.949218-4.355469 4.355468-4.355469 4.355469 1.949219 4.355469 4.355469zm0 0" fill="#fff"/><path d="m392.5 305.414062h-20.332031c-2.421875 0-4.386719-1.964843-4.386719-4.386718s1.964844-4.386719 4.386719-4.386719h20.332031c2.421875 0 4.382812 1.964844 4.382812 4.386719s-1.960937 4.386718-4.382812 4.386718zm0 0" fill="#bf8e75"/><path d="m377.089844 169.816406c27.148437 1.941406 48.941406 23.871094 50.324218 51.476563l.257813 5.179687h15.613281l8.414063 55.933594 20.371093-6.304688-2.738281-54.808593c-1.441406-28.996094-25.425781-51.722657-54.449219-51.617188zm0 0" fill="#2a2f4f"/><path d="m467.609375 148.1875c21.617187 21.617188 21.617187 56.667969 0 78.285156-21.617187 21.617188-56.667969 21.617188-78.285156 0zm0 0" fill="#3d4159"/><path d="m389.324219 226.472656h-67.941407l-8.410156 55.933594-20.371094-6.304688 2.730469-54.808593c1.445313-28.992188 25.429688-51.726563 54.457031-51.617188l98.117188.367188 12.972656 23.351562" fill="#3d4159"/><path d="m387.578125 169.816406c-27.148437 1.941406-48.945313 23.871094-50.324219 51.476563l-.257812 5.179687h-15.617188l-8.414062 55.933594-20.367188-6.304688 2.734375-54.808593c1.445313-28.996094 25.429688-51.722657 54.453125-51.617188zm0 0" fill="#2a2f4f"/><path d="m211.738281 442.167969v66.007812c-68.773437-11.976562-128.125-51.410156-166.335937-106.589843 8.984375-12.015626 21.859375-20.949219 36.769531-24.929688 1.054687-.292969 2.121094-.554688 3.207031-.785156 2.875-.628906 5.820313-1.054688 8.820313-1.296875 1.828125-.144531 3.675781-.230469 5.546875-.230469h44.167968c4.941407 0 9.75.523438 14.386719 1.527344.273438.050781.535157.113281.796875.175781.78125.179687 1.554688.367187 2.328125.574219.03125.011718.03125.011718.0625.023437 7.640625 2.035157 14.746094 5.378907 21.054688 9.769531 17.648437 12.246094 29.195312 32.652344 29.195312 55.753907zm0 0" fill="#3d4159"/><path d="m161.65625 375.871094-.167969.773437-21.628906 100.601563c-1.117187.09375-2.246094.179687-3.375.261718-1.578125.105469-3.175781.199219-4.773437.261719-1.140626.050781-2.289063.105469-3.4375.136719-6.898438-3.980469-13.585938-8.277344-20.0625-12.863281-2.832032-2.007813-5.621094-4.066407-8.359376-6.1875l-17.679687-82.210938-.167969-.773437zm0 0" fill="#f74f4f"/><path d="m140.039062 398.816406-18.207031 29.199219-18.207031-29.199219" fill="#dde8ed"/><path d="m135.011719 481.644531c.679687-2.558593 1.203125-4.117187 1.472656-4.136719l-14.648437-57.09375-11.789063 45.914063zm0 0" fill="#dde8ed"/><path d="m121.828125 402.109375-30.535156 16.96875-9.289063-43.203125 18.972656-11.175781" fill="#dd3033"/><path d="m121.828125 402.109375 30.53125 16.96875 9.289063-43.203125-18.972657-11.175781" fill="#dd3033"/><path d="m162.804688 434.175781h9.6875l-21.410157 55.402344c-6.730469-3.03125-13.300781-6.34375-19.707031-9.917969l30.050781-103.039062.230469-.75 20.886719 6.824218zm0 0" fill="#2a2f4f"/><path d="m108.210938 465.042969c-12.949219-9.164063-25.003907-19.5-36.019532-30.867188h8.445313l-19.75-51.480469 20.898437-6.824218.21875.75zm0 0" fill="#2a2f4f"/><path d="m146.03125 348.21875v29.695312c0 10.875-7.167969 20.0625-17.042969 23.113282-2.261719.703125-4.667969 1.082031-7.160156 1.082031-13.363281 0-24.195313-10.832031-24.195313-24.195313v-29.695312zm0 0" fill="#eab599"/><path d="m146.03125 376.035156v1.878906c0 10.875-7.167969 20.0625-17.042969 23.113282-8.910156-2.738282-15.609375-10.484375-16.84375-19.960938 1.613281.097656 3.242188.148438 4.875.148438 4.578125 0 9.0625-.363282 13.4375-1.082032 5.386719-.863281 10.589844-2.25 15.574219-4.097656zm0 0" fill="#f6caae"/><path d="m55.453125 299.550781c0 11.203125-8.183594 20.488281-18.898437 22.214844-1.171876.1875-2.375.289063-3.605469.289063-12.429688 0-22.503907-10.074219-22.503907-22.503907 0-12.429687 10.074219-22.503906 22.503907-22.503906 1.230469 0 2.433593.101563 3.605469.289063 10.714843 1.722656 18.898437 11.011718 18.898437 22.214843zm0 0" fill="#f6caae"/><path d="m55.453125 299.550781c0 11.203125-8.183594 20.488281-18.898437 22.214844-1.945313-7.078125-2.984376-14.527344-2.984376-22.214844s1.039063-15.136719 2.984376-22.214843c10.714843 1.722656 18.898437 11.011718 18.898437 22.214843zm0 0" fill="#eab599"/><path d="m40.992188 299.550781c0 4.441407-3.601563 8.042969-8.042969 8.042969-4.441407 0-8.042969-3.601562-8.042969-8.042969 0-4.441406 3.601562-8.042969 8.042969-8.042969 4.441406 0 8.042969 3.601563 8.042969 8.042969zm0 0" fill="#eab599"/><path d="m188.207031 299.550781c0 11.203125 8.183594 20.488281 18.898438 22.214844 1.171875.1875 2.375.289063 3.605469.289063 12.429687 0 22.503906-10.074219 22.503906-22.503907 0-12.429687-10.074219-22.503906-22.503906-22.503906-1.230469 0-2.433594.101563-3.605469.289063-10.714844 1.722656-18.898438 11.011718-18.898438 22.214843zm0 0" fill="#f6caae"/><path d="m188.207031 299.550781c0 11.203125 8.183594 20.488281 18.898438 22.214844 1.949219-7.078125 2.988281-14.527344 2.988281-22.214844s-1.039062-15.136719-2.988281-22.214843c-10.714844 1.722656-18.898438 11.011718-18.898438 22.214843zm0 0" fill="#eab599"/><path d="m205.554688 255.710938v31.882812c0 41.664062-30.4375 76.226562-70.289063 82.640625-.132813.023437-.273437.046875-.410156.066406-4.238281.679688-8.589844 1.015625-13.027344 1.015625-46.238281 0-83.722656-37.484375-83.722656-83.722656v-31.882812c0-9.738282 1.664062-19.09375 4.730469-27.785157 11.449218-32.585937 42.5-55.945312 78.992187-55.945312h.007813c4.429687 0 8.789062.34375 13.035156 1.011719 40.046875 6.257812 70.683594 40.914062 70.683594 82.71875zm0 0" fill="#eab599"/><path d="m218.753906 299.550781c0 4.441407-3.601562 8.042969-8.042968 8.042969-4.441407 0-8.042969-3.601562-8.042969-8.042969 0-4.441406 3.601562-8.042969 8.042969-8.042969 4.441406 0 8.042968 3.601563 8.042968 8.042969zm0 0" fill="#eab599"/><path d="m205.554688 255.710938v31.882812c0 41.660156-30.4375 76.226562-70.289063 82.640625-.132813.019531-.273437.042969-.410156.066406-40.046875-6.257812-70.675781-40.910156-70.675781-82.710937v-31.882813c0-41.804687 30.636718-76.457031 70.691406-82.714843 40.046875 6.257812 70.683594 40.914062 70.683594 82.71875zm0 0" fill="#f6caae"/><path d="m104 282.71875c0 5.242188-4.25 9.496094-9.496094 9.496094s-9.5-4.253906-9.5-9.496094c0-5.246094 4.253906-9.5 9.5-9.5s9.496094 4.253906 9.496094 9.5zm0 0" fill="#3d4159"/><path d="m158.660156 282.71875c0 5.242188-4.253906 9.496094-9.5 9.496094s-9.5-4.253906-9.5-9.496094c0-5.246094 4.253906-9.5 9.5-9.5s9.5 4.253906 9.5 9.5zm0 0" fill="#3d4159"/><path d="m102.066406 281.039062c0 2.25-1.824218 4.070313-4.070312 4.070313-2.25 0-4.070313-1.820313-4.070313-4.070313 0-2.246093 1.820313-4.066406 4.070313-4.066406 2.246094 0 4.070312 1.820313 4.070312 4.066406zm0 0" fill="#fff"/><path d="m157.1875 281.039062c0 2.25-1.820312 4.070313-4.070312 4.070313-2.246094 0-4.070313-1.820313-4.070313-4.070313 0-2.246093 1.824219-4.066406 4.070313-4.066406 2.25 0 4.070312 1.820313 4.070312 4.066406zm0 0" fill="#fff"/><path d="m131.328125 302.90625h-18.996094c-2.261719 0-4.09375-1.835938-4.09375-4.097656 0-2.261719 1.832031-4.097656 4.09375-4.097656h18.996094c2.265625 0 4.097656 1.835937 4.097656 4.097656 0 2.261718-1.832031 4.097656-4.097656 4.097656zm0 0" fill="#eab599"/><path d="m121.832031 328.828125c-7.011719 0-14.023437-1.757813-20.414062-5.269531-1.800781-.992188-2.457031-3.257813-1.46875-5.058594.992187-1.804688 3.257812-2.460938 5.058593-1.472656 10.535157 5.792968 23.113282 5.792968 33.648438 0 1.800781-.988282 4.066406-.332032 5.058594 1.472656.992187 1.800781.332031 4.066406-1.46875 5.058594-6.394532 3.511718-13.402344 5.269531-20.414063 5.269531zm0 0" fill="#eab599"/><path d="m205.554688 226.773438v32.660156h-15.582032v-25.574219l-112.484375-20.902344-23.796875-4.425781v50.902344h-15.585937v-32.660156c0-37.230469 30.175781-67.40625 67.402343-67.40625h32.648438c.886719 0 1.773438.015624 2.660156.058593 35.988282 1.386719 64.738282 31.003907 64.738282 67.347657zm0 0" fill="#e8c934"/><path d="m205.554688 226.773438v32.660156h-15.582032v-25.574219l-112.484375-20.902344c6.199219-29.769531 32.023438-52.324219 63.328125-53.53125 35.988282 1.386719 64.738282 31.003907 64.738282 67.347657zm0 0" fill="#ffe152"/><path d="m356.9375 83.238281c0 48.230469-33.8125 88.554688-79.027344 98.542969-7.042968 1.578125-14.386718 2.402344-21.910156 2.402344-55.746094 0-100.949219-45.203125-100.949219-100.945313 0-29.1875 12.382813-55.476562 32.195313-73.90625 21.871094-6.082031 44.929687-9.332031 68.753906-9.332031s46.875 3.25 68.753906 9.332031c19.800782 18.429688 32.183594 44.71875 32.183594 73.90625zm0 0" fill="#dde8ed"/><path d="m316.175781 83.238281c0 28.753907-20.15625 52.796875-47.113281 58.753907-4.203125.9375-8.578125 1.429687-13.0625 1.429687-33.238281 0-60.1875-26.945313-60.1875-60.183594s26.949219-60.175781 60.1875-60.175781c4.484375 0 8.859375.488281 13.0625 1.417969 26.957031 5.96875 47.113281 30 47.113281 58.757812zm0 0" fill="#fff0aa"/><path d="m316.175781 83.238281c0 28.753907-20.15625 52.796875-47.113281 58.753907-26.960938-5.957032-47.125-30-47.125-58.753907 0-28.757812 20.164062-52.789062 47.125-58.757812 26.957031 5.96875 47.113281 30 47.113281 58.757812zm0 0" fill="#ffe152"/><path d="m255.996094 108.496094c-20.785156 0-37.695313-16.910156-37.695313-37.695313h11.628907c0 14.371094 11.695312 26.066407 26.066406 26.066407 14.375 0 26.066406-11.695313 26.066406-26.066407h11.628906c0 20.785157-16.910156 37.695313-37.695312 37.695313zm0 0" fill="#fff"/><path d="m250.183594 102.683594h11.628906v54.847656h-11.628906zm0 0" fill="#fff"/><path d="m287.179688 135.3125v21.734375c0 8.675781-7.03125 15.714844-15.703126 15.714844h-30.953124c-8.679688 0-15.714844-7.039063-15.714844-15.714844v-21.734375zm0 0" fill="#2a2f4f"/><path d="m287.179688 135.3125v21.734375c0 8.675781-7.03125 15.714844-15.703126 15.714844h-13.355468c-8.671875 0-15.714844-7.039063-15.714844-15.714844v-21.734375zm0 0" fill="#3d4159"/><path d="m211.914062 397.421875c-2.90625 6.699219-10.699218 9.777344-17.410156 6.867187l-25.851562-11.210937c-3.347656-1.453125-5.792969-4.128906-7.039063-7.277344-1.242187-3.148437-1.285156-6.777343.164063-10.121093.789062-1.824219 1.945312-3.382813 3.347656-4.621094 3.71875-3.320313 9.175781-4.378906 14.058594-2.261719l25.851562 11.210937c3.355469 1.457032 5.804688 4.136719 7.046875 7.28125.566407 1.429688.886719 2.972657.917969 4.53125.054688 1.871094-.296875 3.777344-1.085938 5.601563zm0 0" fill="#bf8e75"/><path d="m213 391.820312c-3.726562 3.316407-9.183594 4.367188-14.0625 2.25l-25.855469-11.210937c-3.34375-1.453125-5.792969-4.132813-7.035156-7.277344-.566406-1.429687-.878906-2.96875-.921875-4.523437 3.71875-3.320313 9.175781-4.378906 14.058594-2.265625l25.851562 11.214843c3.355469 1.457032 5.804688 4.132813 7.046875 7.28125.566407 1.429688.886719 2.972657.917969 4.53125zm0 0" fill="#d3a489"/></svg>