<svg height="682pt" viewBox="-21 -21 682 682.66922" width="682pt" xmlns="http://www.w3.org/2000/svg"><path d="m615.609375 615.34375c-20.3125 20.3125-53.246094 20.3125-73.558594 0l-80.066406-80.066406 73.5625-73.558594 80.0625 80.0625c20.316406 20.316406 20.316406 53.25 0 73.5625zm0 0" fill="#6e563d"/><path d="m559.238281 584.796875-73.386719-73.382813-23.867187 23.863282 80.066406 80.066406c20.3125 20.3125 53.246094 20.3125 73.558594 0 7.925781-7.925781 12.746094-17.777344 14.488281-28.046875-20.433594 17.765625-51.421875 16.9375-70.859375-2.5zm0 0" fill="#634c38"/><path d="m451.566406 451.300781c-8.273437 8.277344-16.980468 15.867188-26.035156 22.785157l48.820312 48.820312 48.824219-48.820312-48.820312-48.820313c-6.921875 9.050781-14.511719 17.753906-22.789063 26.035156zm0 0" fill="#ffcd2c"/><path d="m451.632812 85.234375c-101.089843-101.082031-264.980468-101.082031-366.0625 0-101.089843 101.089844-101.089843 264.980469 0 366.0625 101.082032 101.089844 264.972657 101.089844 366.0625 0 101.082032-101.082031 101.082032-264.972656 0-366.0625zm0 0" fill="#ffdf65"/><path d="m451.636719 85.234375c-54.859375-54.859375-128.210938-79.933594-199.988281-75.25 60.488281 3.945313 119.851562 29.019531 166.082031 75.25 101.089843 101.089844 101.089843 264.980469 0 366.066406-46.230469 46.230469-105.59375 71.304688-166.082031 75.25 71.777343 4.683594 145.128906-20.390625 199.988281-75.25 101.089843-101.085937 101.089843-264.976562 0-366.066406zm0 0" fill="#ffcd2c"/><path d="m469.449219 266.984375c0 111.144531-90.097657 201.238281-201.234375 201.238281-111.136719 0-201.234375-90.09375-201.234375-201.238281 0-111.136719 90.097656-201.234375 201.234375-201.234375 111.136718 0 201.234375 90.097656 201.234375 201.234375zm0 0" fill="#e0e0e0"/><path d="m268.214844 65.75c-5.714844 0-11.363282.25-16.953125.71875 103.203125 8.609375 184.28125 95.089844 184.28125 200.515625 0 105.429687-81.078125 191.910156-184.28125 200.519531 5.589843.46875 11.238281.71875 16.953125.71875 111.136718 0 201.234375-90.097656 201.234375-201.238281 0-111.136719-90.097657-201.234375-201.234375-201.234375zm0 0" fill="#c4c4c4"/><path d="m297.398438 203.25s-23.765626 40.660156-81.617188 41.402344c-15.21875.195312-27.78125-1.878906-38.125-5.503906v46.425781c0 48.226562 39.097656 87.320312 87.320312 87.320312 48.226563 0 87.320313-39.09375 87.320313-87.320312v-39.804688c-.003906-.003906-35.082031-10.527343-54.898437-42.519531zm0 0" fill="#ffc89f"/><path d="m318.390625 226.859375v58.714844c0 42.425781-30.253906 77.769531-70.367187 85.664062 5.488281 1.078125 11.152343 1.65625 16.953124 1.65625 48.226563 0 87.320313-39.09375 87.320313-87.320312v-39.804688c-.003906-.003906-16.929687-5.089843-33.90625-18.910156zm0 0" fill="#f7bc94"/><path d="m177.65625 285.574219v-39.804688c-2.140625-.648437-4.40625-1-6.761719-1-12.878906 0-23.324219 10.4375-23.324219 23.320313 0 12.878906 10.445313 23.320312 23.324219 23.320312 2.402344 0 4.71875-.363281 6.894531-1.035156-.082031-1.59375-.132812-3.1875-.132812-4.800781zm0 0" fill="#eaa37d"/><path d="m352.300781 285.574219v-39.804688c2.140625-.648437 4.410157-1 6.761719-1 12.882812 0 23.320312 10.4375 23.320312 23.320313 0 12.878906-10.4375 23.320312-23.320312 23.320312-2.402344 0-4.714844-.363281-6.898438-1.035156.089844-1.59375.136719-3.1875.136719-4.800781zm0 0" fill="#eaa37d"/><path d="m297.398438 203.25s-23.765626 40.660156-81.617188 41.402344c-72.179688.933594-84.886719-49.085938-81.8125-74.085938 0 0 26.867188 16.082032 38.558594 6.277344 11.683594-9.804688 37.484375-50.824219 83.347656-52.734375 46.253906-1.921875 55.207031 20.136719 55.207031 20.136719s26.75-9.296875 43.523438 7.632812c30.21875 30.511719 15.492187 81.289063-2.308594 93.890625.003906 0-35.082031-10.527343-54.898437-42.519531zm0 0" fill="#6e563d"/><path d="m318.390625 226.859375c16.980469 13.824219 33.90625 18.910156 33.90625 18.910156 17.800781-12.601562 32.527344-63.378906 2.308594-93.890625-16.773438-16.929687-43.523438-7.632812-43.523438-7.632812 52.707031 41.042968 7.308594 82.613281 7.308594 82.613281zm0 0" fill="#634c38"/><path d="m322.066406 351.652344c-15.308594 13.238281-35.261718 21.242187-57.089844 21.242187-21.25 0-40.726562-7.59375-55.863281-20.210937-31.417969 12.875-57.574219 35.941406-74.371093 65.082031 35.519531 31.503906 82.257812 50.652344 133.472656 50.652344 50.355468 0 96.390625-18.496094 131.679687-49.0625-17.203125-30.691407-44.699219-54.824219-77.828125-67.703125zm0 0" fill="#ff3d43"/><path d="m377.5 435.976562c7.867188-5.097656 15.363281-10.71875 22.417969-16.835937-17.203125-30.703125-44.707031-54.859375-77.851563-67.742187-5.953125 5.144531-12.605468 9.484374-19.800781 12.886718 31.707031 15.800782 57.960937 40.890625 75.234375 71.691406zm0 0" fill="#d72e2e"/><path d="m264.976562 372.894531c-12.324218 0-24.050781-2.558593-34.683593-7.164062v.058593c0 20.207032 16.378906 36.582032 36.582031 36.582032s36.578125-16.375 36.578125-36.582032c0-.601562-.015625-1.195312-.042969-1.785156-11.597656 5.691406-24.640625 8.890625-38.433594 8.890625zm0 0" fill="#ffc89f"/><path d="m622.269531 535.125-80.0625-80.066406c-3.679687-3.679688-9.644531-3.679688-13.320312 0l-5.710938 5.707031-36.34375-36.34375c25.566407-35.546875 41.875-76.628906 47.714844-120.816406.679687-5.15625-2.949219-9.890625-8.105469-10.570313-5.136718-.679687-9.886718 2.945313-10.570312 8.101563-7.238282 54.734375-31.75 104.359375-70.894532 143.503906-47.113281 47.109375-109.75 73.058594-176.375 73.058594-66.621093 0-129.265624-25.949219-176.371093-73.058594-47.117188-47.113281-73.058594-109.75-73.058594-176.375s25.941406-129.261719 73.058594-176.371094c97.25-97.25 255.496093-97.25 352.746093 0 46.179688 46.179688 72.117188 107.578125 73.03125 172.871094.074219 5.199219 4.300782 9.339844 9.550782 9.285156 5.199218-.074219 9.355468-4.351562 9.28125-9.550781-.976563-70.222656-28.871094-136.253906-78.542969-185.925781-50.667969-50.667969-118.035156-78.574219-189.695313-78.574219-71.65625 0-139.023437 27.90625-189.691406 78.574219-50.671875 50.667969-78.574218 118.035156-78.574218 189.691406 0 71.660156 27.902343 139.027344 78.574218 189.695313 50.667969 50.667968 118.035156 78.574218 189.691406 78.574218 56.769532 0 110.839844-17.527344 156.050782-50.003906l36.378906 36.375-5.707031 5.714844c-3.679688 3.675781-3.679688 9.636718 0 13.320312l80.066406 80.0625c11.601563 11.605469 27.027344 18 43.4375 18s31.839844-6.394531 43.441406-18c23.949219-23.953125 23.949219-62.929687 0-86.878906zm-182.585937-60.203125c6.421875-5.339844 12.636718-10.988281 18.613281-16.960937 5.957031-5.957032 11.582031-12.148438 16.898437-18.535157l34.660157 34.660157-35.503907 35.5zm169.265625 133.761719c-8.039063 8.046875-18.738281 12.476562-30.117188 12.476562-11.378906 0-22.074219-4.429687-30.121093-12.476562l-73.40625-73.40625 60.242187-60.238282 73.410156 73.402344c16.601563 16.609375 16.601563 43.632813-.007812 60.242188zm0 0"/><path d="m221.085938 298.535156c8.113281 0 14.714843-6.601562 14.714843-14.71875 0-8.113281-6.601562-14.722656-14.714843-14.722656-8.117188 0-14.722657 6.609375-14.722657 14.722656 0 8.117188 6.605469 14.71875 14.722657 14.71875zm0 0"/><path d="m308.875 298.535156c8.113281 0 14.714844-6.601562 14.714844-14.71875 0-8.113281-6.601563-14.722656-14.714844-14.722656-8.117188 0-14.722656 6.609375-14.722656 14.722656 0 8.117188 6.605468 14.71875 14.722656 14.71875zm0 0"/><path d="m264.976562 336.90625c12.6875 0 23.753907-8.128906 27.550782-20.226562 1.550781-4.960938-1.210938-10.25-6.171875-11.804688-4.96875-1.550781-10.25 1.210938-11.808594 6.171875-1.3125 4.207031-5.160156 7.027344-9.570313 7.027344-4.410156 0-8.25-2.820313-9.570312-7.027344-1.550781-4.960937-6.839844-7.722656-11.800781-6.171875-4.964844 1.554688-7.730469 6.84375-6.171875 11.804688 3.789062 12.101562 14.859375 20.226562 27.542968 20.226562zm0 0"/><path d="m132.9375 402.976562c-19.808594-19.664062-35.101562-43.355468-44.828125-69.832031-1.773437-4.820312-7.273437-7.363281-12.089844-5.597656-4.816406 1.769531-7.363281 7.269531-5.59375 12.089844 14.722657 40.070312 40.976563 74.375 75.933594 99.199219 35.738281 25.386718 77.871094 38.804687 121.855469 38.804687 116.15625 0 210.652344-94.503906 210.652344-210.65625 0-116.15625-94.496094-210.652344-210.652344-210.652344s-210.652344 94.496094-210.652344 210.652344c0 11.539063.941406 23.121094 2.796875 34.421875.828125 5.0625 5.757813 8.597656 10.820313 7.765625 5.066406-.828125 8.597656-5.761719 7.769531-10.824219-1.695313-10.289062-2.554688-20.84375-2.554688-31.363281 0-105.769531 86.046875-191.820313 191.820313-191.820313 105.765625 0 191.816406 86.050782 191.816406 191.820313 0 53.875-22.335938 102.625-58.222656 137.5-15.859375-23.925781-37.816406-43.300781-63.472656-55.957031 11.417968-13.285156 19.308593-29.679688 22.171874-47.738282 17.382813-.761718 31.289063-15.136718 31.289063-32.703124 0-13.816407-8.601563-25.648438-20.734375-30.449219 5.28125-9.484375 8.949219-21.371094 10.023438-33.667969 2-22.957031-5.023438-43.8125-19.789063-58.71875-14.9375-15.078125-35.371094-13.796875-46.101563-11.738281-7.042968-8.289063-23.585937-20.3125-59.714843-18.808594-10.929688.453125-21.664063 2.957031-31.917969 7.449219-4.765625 2.085937-6.933594 7.636718-4.851562 12.402344 2.085937 4.765624 7.636718 6.9375 12.410156 4.847656 8.097656-3.542969 16.5625-5.527344 25.144531-5.882813 20.253906-.839843 31.855469 3.320313 38.023437 6.957031 5.660157 3.335938 7.71875 6.726563 8.109376 7.441407 1.710937 4.890625 7.070312 6.855469 11.773437 5.222656.214844-.074219 21.488281-7.003906 33.738281 5.363281 14.582032 14.722656 15.289063 33.777344 14.410156 43.828125-1.238281 14.234375-6.675781 26.335938-12.128906 32.628907-9.566406-3.925782-31.21875-14.769532-44.785156-36.675782-3.671875-5.925781-12.621094-5.816406-16.136719.207032-.214843.359374-21.679687 36.066406-73.609375 36.738281-26.609375.34375-46.441406-6.550781-58.929687-20.484375-7.980469-8.90625-11.898438-19.5625-13.234375-29.203125 10.875 4.066406 25.234375 6.769531 35.085937-1.484375 2.859375-2.410156 5.929688-5.808594 9.8125-10.113282 4.015625-4.449218 8.566407-9.496093 13.964844-14.621093 3.769531-3.578125 3.925781-9.539063.347656-13.3125-3.578125-3.769531-9.542969-3.925781-13.316406-.347657-5.925781 5.625-10.945313 11.191407-14.980469 15.664063-3.261718 3.613281-6.074218 6.734375-7.9375 8.296875-3.660156 3.066406-17.882812-1.324219-27.667968-7.144531-5.746094-3.441407-13.367188.296875-14.183594 6.933593-1.972656 16.039063 1.742187 39.671876 18.082031 57.90625 3.957031 4.414063 8.410156 8.273438 13.34375 11.601563-10.609375 5.421875-17.890625 16.453125-17.890625 29.164063 0 17.566406 13.90625 31.941406 31.289062 32.703124 2.964844 18.671876 11.289063 35.570313 23.339844 49.085938-23.957031 12.390625-44.648437 30.742188-59.847656 53.101562zm254.585938 14.09375c-32.769532 26.105469-74.25 41.730469-119.308594 41.730469-40.050782 0-78.414063-12.210937-110.949219-35.320312-3.496094-2.480469-6.878906-5.089844-10.179687-7.773438 14.855468-22.714843 36.039062-40.957031 60.695312-52.179687 4.246094 3.132812 8.769531 5.90625 13.503906 8.316406 2.972656 22.511719 22.277344 39.945312 45.589844 39.945312 24.054688 0 43.84375-18.5625 45.820312-42.113281 3.796876-2.164062 7.433594-4.566406 10.890626-7.203125 26.214843 11.34375 48.550781 30.441406 63.9375 54.597656zm-143.792969-37.136718c6.84375 1.542968 13.945312 2.378906 21.246093 2.378906 8.90625 0 17.53125-1.234375 25.726563-3.496094-4.617187 8.417969-13.566406 14.136719-23.828125 14.136719-9.792969 0-18.363281-5.226563-23.144531-13.019531zm117.988281-98.203125v-27.285157c6.398438 1.246094 11.246094 6.886719 11.246094 13.644532 0 6.757812-4.847656 12.398437-11.246094 13.640625zm-204.726562-13.640625c0-6.757813 4.84375-12.398438 11.246093-13.644532v27.285157c-6.394531-1.242188-11.246093-6.882813-11.246093-13.640625zm30.085937-16.558594c8.792969 1.8125 18.402344 2.671875 28.828125 2.539062 43.285156-.554687 69.105469-21.582031 81.234375-35.050781 15.699219 19.082031 35.527344 29.089844 45.742187 33.304688v33.25c0 42.953125-34.945312 77.90625-77.90625 77.90625-42.953124 0-77.898437-34.953125-77.898437-77.90625zm0 0"/></svg>