<svg height="496pt" viewBox="0 0 496 496" width="496pt" xmlns="http://www.w3.org/2000/svg"><path d="m336 424-40-40 40-40v24c30.929688 0 56-25.070312 56-56v-16h32v16c0 48.601562-39.398438 88-88 88zm0 0" fill="#f0d365"/><path d="m160 72 40 40-40 40v-24c-30.929688 0-56 25.070312-56 56v16h-32v-16c0-48.601562 39.398438-88 88-88zm0 0" fill="#f0d365"/><path d="m264 360c0 70.691406-57.308594 128-128 128s-128-57.308594-128-128 57.308594-128 128-128 128 57.308594 128 128zm0 0" fill="#8bd2f5"/><path d="m56 456h160l-8.28125-41.414062c-4.488281-22.433594-24.191406-38.585938-47.070312-38.585938h-49.296876c-22.878906 0-42.582031 16.152344-47.0625 38.585938zm0 0" fill="#af4a47"/><path d="m136.648438 376h-25.296876c-22.878906 0-42.582031 16.152344-47.0625 38.585938l-8.289062 41.414062h136l-8.28125-41.414062c-4.488281-22.433594-24.191406-38.585938-47.070312-38.585938zm0 0" fill="#e4725f"/><path d="m488 136c0 70.691406-57.308594 128-128 128s-128-57.308594-128-128 57.308594-128 128-128 128 57.308594 128 128zm0 0" fill="#8bd2f5"/><path d="m280 232h160l-8.28125-41.414062c-4.488281-22.433594-24.191406-38.585938-47.070312-38.585938h-49.296876c-22.878906 0-42.582031 16.152344-47.0625 38.585938zm0 0" fill="#695b52"/><path d="m360.648438 152h-25.296876c-22.878906 0-42.582031 16.152344-47.0625 38.585938l-8.289062 41.414062h136l-8.28125-41.414062c-4.488281-22.433594-24.191406-38.585938-47.070312-38.585938zm0 0" fill="#857970"/><path d="m328 40v48c0 17.671875 14.328125 32 32 32s32-14.328125 32-32v-48" fill="#efbe9a"/><path d="m328 40h64v32h-64zm0 0" fill="#8892a0"/><path d="m120 336h32v40h-32zm0 0" fill="#db9b7c"/><path d="m344 112h32v40h-32zm0 0" fill="#db9b7c"/><path d="m136 344c17.671875 0 32-14.328125 32-32v-16c0-17.671875-14.328125-32-32-32s-32 14.328125-32 32v16c0 17.671875 14.328125 32 32 32zm0 0" fill="#efbe9a"/><path d="m360 272c-74.992188 0-136-61.007812-136-136s61.007812-136 136-136 136 61.007812 136 136-61.007812 136-136 136zm0-256c-66.167969 0-120 53.832031-120 120s53.832031 120 120 120 120-53.832031 120-120-53.832031-120-120-120zm0 0"/><path d="m136 496c-74.992188 0-136-61.007812-136-136s61.007812-136 136-136 136 61.007812 136 136-61.007812 136-136 136zm0-256c-66.167969 0-120 53.832031-120 120s53.832031 120 120 120 120-53.832031 120-120-53.832031-120-120-120zm0 0"/><path d="m136 352c-22.054688 0-40-17.945312-40-40v-16c0-22.054688 17.945312-40 40-40s40 17.945312 40 40v16c0 22.054688-17.945312 40-40 40zm0-80c-13.230469 0-24 10.769531-24 24v16c0 13.230469 10.769531 24 24 24s24-10.769531 24-24v-16c0-13.230469-10.769531-24-24-24zm0 0"/><path d="m216 464h-160c-2.398438 0-4.664062-1.078125-6.183594-2.929688-1.519531-1.847656-2.128906-4.285156-1.65625-6.636718l8.28125-41.417969c5.214844-26.085937 28.3125-45.015625 54.910156-45.015625h49.296876c26.597656 0 49.695312 18.929688 54.910156 45.015625l8.28125 41.417969c.472656 2.351562-.136719 4.789062-1.65625 6.636718-1.519532 1.851563-3.785156 2.929688-6.183594 2.929688zm-150.238281-16h140.476562l-6.367187-31.839844c-3.71875-18.640625-20.222656-32.160156-39.222656-32.160156h-49.296876c-19 0-35.503906 13.519531-39.222656 32.160156zm0 0"/><path d="m144 344h16v32h-16zm0 0"/><path d="m112 344h16v32h-16zm0 0"/><path d="m360 128c-22.054688 0-40-17.945312-40-40v-48h16v48c0 13.230469 10.769531 24 24 24s24-10.769531 24-24v-48h16v48c0 22.054688-17.945312 40-40 40zm0 0"/><path d="m304 32h112v16h-112zm0 0"/><path d="m440 240h-160c-2.398438 0-4.664062-1.078125-6.183594-2.929688-1.519531-1.847656-2.128906-4.285156-1.65625-6.636718l8.28125-41.417969c5.214844-26.085937 28.3125-45.015625 54.910156-45.015625h49.296876c26.597656 0 49.695312 18.929688 54.910156 45.015625l8.28125 41.417969c.472656 2.351562-.136719 4.789062-1.65625 6.636718-1.519532 1.851563-3.785156 2.929688-6.183594 2.929688zm-150.238281-16h140.476562l-6.367187-31.839844c-3.71875-18.640625-20.222656-32.160156-39.222656-32.160156h-49.296876c-19 0-35.503906 13.519531-39.222656 32.160156zm0 0"/><path d="m368 120h16v32h-16zm0 0"/><path d="m336 120h16v32h-16zm0 0"/><path d="m328 64h64v16h-64zm0 0"/><path d="m336 432c-2.078125 0-4.128906-.816406-5.65625-2.34375l-40-40c-3.128906-3.128906-3.128906-8.183594 0-11.3125l40-40c2.289062-2.289062 5.710938-2.992188 8.71875-1.734375 2.984375 1.230469 4.9375 4.160156 4.9375 7.390625v15.335938c22.671875-3.824219 40-23.59375 40-47.335938v-16c0-4.425781 3.585938-8 8-8h32c4.414062 0 8 3.574219 8 8v16c0 50.238281-38.800781 91.59375-88 95.671875v16.328125c0 3.230469-1.953125 6.160156-4.9375 7.390625-.992188.417969-2.03125.609375-3.0625.609375zm-28.6875-48 20.6875 20.6875v-4.6875c0-4.425781 3.585938-8 8-8 44.113281 0 80-35.886719 80-80v-8h-16v8c0 35.289062-28.710938 64-64 64-4.414062 0-8-3.574219-8-8v-4.6875zm0 0"/><path d="m104 208h-32c-4.414062 0-8-3.574219-8-8v-16c0-50.238281 38.800781-91.59375 88-95.671875v-16.328125c0-3.230469 1.953125-6.160156 4.9375-7.390625 2.984375-1.257813 6.421875-.5625 8.71875 1.734375l40 40c3.128906 3.128906 3.128906 8.183594 0 11.3125l-40 40c-2.296875 2.289062-5.734375 2.984375-8.71875 1.734375-2.984375-1.230469-4.9375-4.160156-4.9375-7.390625v-15.335938c-22.671875 3.824219-40 23.59375-40 47.335938v16c0 4.425781-3.585938 8-8 8zm-24-16h16v-8c0-35.289062 28.710938-64 64-64 4.414062 0 8 3.574219 8 8v4.6875l20.6875-20.6875-20.6875-20.6875v4.6875c0 4.425781-3.585938 8-8 8-44.113281 0-80 35.886719-80 80zm0 0"/></svg>